<svg width="592" height="445" viewBox="0 0 592 445" fill="none" xmlns="http://www.w3.org/2000/svg">
<path d="M94.017 391.785L75.702 184.453C75.2347 179.172 76.8408 173.917 80.179 169.805L164.761 65.6375C166.898 63.0202 169.649 60.9732 172.767 59.6793C175.885 58.3851 179.274 57.8841 182.632 58.2208L441.373 84.8837C444.955 85.2509 448.377 86.5677 451.285 88.6989C454.19 90.8301 456.476 93.6988 457.912 97.01L517.482 233.625C519.044 237.216 519.543 241.18 518.925 245.047L495.208 391.823L94.017 391.785Z" fill="#F2F2F2"/>
<path d="M500.018 392.119H89.836C89.7972 392.119 89.7587 392.112 89.7228 392.097C89.6869 392.082 89.6543 392.06 89.6266 392.034C89.5992 392.004 89.5774 391.971 89.5626 391.938C89.5478 391.9 89.54 391.863 89.54 391.823C89.54 391.785 89.5478 391.745 89.5626 391.708C89.5774 391.674 89.5992 391.641 89.6266 391.615C89.6543 391.585 89.6869 391.563 89.7228 391.548C89.7587 391.533 89.7972 391.526 89.836 391.526H500.055C500.133 391.526 500.21 391.559 500.266 391.615C500.321 391.671 500.351 391.745 500.351 391.823C500.351 391.863 500.344 391.908 500.325 391.945C500.307 391.986 500.284 392.019 500.251 392.045C500.221 392.075 500.184 392.097 500.144 392.108C500.103 392.119 500.059 392.127 500.018 392.119Z" fill="#AFB3B8"/>
<path d="M256.78 282.204H110.963V372.691H256.78V282.204Z" fill="#D7DADC"/>
<path d="M252.673 286.358H115.107V368.568H252.673V286.358Z" fill="#F2F2F2"/>
<path d="M252.451 286.358H115.107V368.568H252.451V286.358Z" fill="#F2F2F2"/>
<path d="M267.066 282.204H256.78V372.691H267.066V282.204Z" fill="#AFB3B8"/>
<path d="M252.673 325.258H115.107V329.671H252.673V325.258Z" fill="#D7DADC"/>
<path d="M152.144 289.361H143.523V325.254H152.144V289.361Z" fill="#AFB3B8"/>
<path d="M175.195 289.361H152.144V325.254H175.195V289.361Z" fill="#D7DADC"/>
<path d="M159.803 293.477H154.956V325.261H159.803V293.477Z" fill="#AFB3B8"/>
<path d="M172.79 293.477H159.803V325.261H172.79V293.477Z" fill="#D7DADC"/>
<path d="M174.603 325.258H167.388L163.244 295.295H170.459L174.603 325.258Z" fill="#AFB3B8"/>
<path d="M174.603 325.258H193.843L189.699 295.295H170.459L174.603 325.258Z" fill="#D7DADC"/>
<path d="M145.669 368.571H138.454L134.31 338.608H141.525L145.669 368.571Z" fill="#AFB3B8"/>
<path d="M145.669 368.571H164.909L160.765 338.608H141.525L145.669 368.571Z" fill="#D7DADC"/>
<path d="M224.553 359.263H180.338V368.575H224.553V359.263Z" fill="#D7DADC"/>
<path d="M211.529 344.467H180.338V351.995H211.529V344.467Z" fill="#D7DADC"/>
<path d="M218.892 351.995H180.338V359.256H218.892V351.995Z" fill="#D7DADC"/>
<path d="M216.82 296.185H209.827V325.265H216.82V296.185Z" fill="#AFB3B8"/>
<path d="M235.505 296.185H216.82V325.265H235.505V296.185Z" fill="#D7DADC"/>
<path d="M232.249 299.485H225.552V325.239H232.249V299.485Z" fill="#AFB3B8"/>
<path d="M243.719 299.485H232.249V325.239H243.719V299.485Z" fill="#D7DADC"/>
<path d="M211.529 350.734H180.338V351.988H211.529V350.734Z" fill="#AFB3B8"/>
<path d="M218.892 358.002H180.338V359.256H218.892V358.002Z" fill="#AFB3B8"/>
<path d="M224.553 367.31H180.338V368.564H224.553V367.31Z" fill="#AFB3B8"/>
<path d="M264.624 372.725L266.215 390.339C266.242 390.491 266.235 390.647 266.196 390.799C266.156 390.947 266.085 391.088 265.986 391.207C265.888 391.329 265.765 391.426 265.626 391.492C265.486 391.559 265.334 391.596 265.179 391.6C264.966 391.596 264.759 391.526 264.587 391.4C264.415 391.274 264.285 391.099 264.217 390.895L259.629 372.725H264.624Z" fill="#D7DADC"/>
<path d="M264.032 382.997L262.108 382.515L259.629 372.725H264.661L266.215 390.376C266.261 390.606 266.227 390.847 266.12 391.055C266.012 391.263 265.837 391.429 265.623 391.526L264.032 382.997Z" fill="#AFB3B8"/>
<path d="M246.642 372.725L248.233 390.339C248.266 390.491 248.265 390.647 248.23 390.795C248.196 390.947 248.128 391.088 248.032 391.207C247.937 391.329 247.816 391.426 247.677 391.492C247.539 391.563 247.388 391.596 247.234 391.6C247.016 391.6 246.803 391.53 246.625 391.403C246.446 391.277 246.31 391.099 246.235 390.895L241.647 372.725H246.642Z" fill="#D7DADC"/>
<path d="M244.977 374.653L242.091 374.097L241.61 372.688H246.605L248.196 390.339C248.242 390.569 248.208 390.81 248.101 391.018C247.993 391.225 247.818 391.392 247.604 391.489L244.977 374.653Z" fill="#AFB3B8"/>
<path d="M137.899 372.725L136.345 390.339C136.305 390.491 136.3 390.651 136.332 390.803C136.363 390.955 136.43 391.099 136.527 391.222C136.625 391.344 136.749 391.444 136.891 391.507C137.033 391.574 137.188 391.604 137.344 391.6C137.557 391.596 137.764 391.526 137.936 391.4C138.108 391.274 138.238 391.099 138.306 390.895L142.931 372.725H137.899Z" fill="#D7DADC"/>
<path d="M138.787 382.107L137.085 381.662L137.899 372.725H142.931L138.306 390.895C138.238 391.099 138.108 391.274 137.936 391.4C137.764 391.526 137.557 391.596 137.344 391.6H137.27L138.787 382.107Z" fill="#AFB3B8"/>
<path d="M119.473 372.725L117.882 390.339C117.849 390.491 117.85 390.647 117.885 390.795C117.919 390.947 117.987 391.088 118.083 391.207C118.178 391.329 118.3 391.426 118.438 391.492C118.576 391.563 118.727 391.596 118.881 391.6C119.096 391.6 119.305 391.533 119.478 391.407C119.652 391.281 119.779 391.099 119.843 390.895L124.468 372.725H119.473Z" fill="#D7DADC"/>
<path d="M121.397 374.245L119.214 373.837L119.473 372.725H124.468L119.843 390.895C119.779 391.099 119.652 391.281 119.478 391.407C119.305 391.533 119.096 391.6 118.881 391.6H118.807L121.397 374.245Z" fill="#AFB3B8"/>
<path d="M316.017 104.835C316.018 100.168 314.3 95.665 311.194 92.1888C308.087 88.7126 303.81 86.5076 299.182 85.9962V85.8479H297.073C292.199 86.0641 287.595 88.1567 284.222 91.6904C280.849 95.2241 278.966 99.9258 278.966 104.816C278.966 109.706 280.849 114.408 284.222 117.942C287.595 121.475 292.199 123.568 297.073 123.784H299.182V123.673C303.81 123.162 308.087 120.957 311.194 117.48C314.3 114.004 316.018 109.501 316.017 104.835Z" fill="#B0B4B9"/>
<path d="M299.182 123.821C309.645 123.821 318.126 115.321 318.126 104.835C318.126 94.3485 309.645 85.8479 299.182 85.8479C288.72 85.8479 280.238 94.3485 280.238 104.835C280.238 115.321 288.72 123.821 299.182 123.821Z" fill="#84888F"/>
<path d="M299.182 121.707C308.48 121.707 316.017 114.153 316.017 104.835C316.017 95.5159 308.48 87.9617 299.182 87.9617C289.884 87.9617 282.347 95.5159 282.347 104.835C282.347 114.153 289.884 121.707 299.182 121.707Z" fill="white"/>
<path d="M299.182 121.707C308.48 121.707 316.017 114.153 316.017 104.835C316.017 95.5159 308.48 87.9617 299.182 87.9617C289.884 87.9617 282.347 95.5159 282.347 104.835C282.347 114.153 289.884 121.707 299.182 121.707Z" fill="#84888F"/>
<path opacity="0.9" d="M299.182 121.707C308.48 121.707 316.017 114.153 316.017 104.835C316.017 95.5159 308.48 87.9617 299.182 87.9617C289.884 87.9617 282.347 95.5159 282.347 104.835C282.347 114.153 289.884 121.707 299.182 121.707Z" fill="white"/>
<path d="M299.182 87.9617H298.257C302.519 88.2454 306.515 90.1426 309.434 93.2687C312.353 96.3948 313.977 100.516 313.977 104.798C313.977 109.079 312.353 113.2 309.434 116.326C306.515 119.452 302.519 121.35 298.257 121.633H299.182C303.647 121.633 307.929 119.856 311.086 116.691C314.243 113.527 316.017 109.235 316.017 104.76C316.017 100.286 314.243 95.9939 311.086 92.8296C307.929 89.6653 303.647 87.8875 299.182 87.8875V87.9617Z" fill="#B0B4B9"/>
<path d="M299.33 106.133L293.743 95.0075C293.638 94.8006 293.618 94.5603 293.687 94.3385C293.756 94.1168 293.909 93.931 294.113 93.8208C294.32 93.7155 294.559 93.6955 294.78 93.7648C295.002 93.8338 295.187 93.9873 295.297 94.1917L300.107 103.796L306.471 100.644C306.679 100.562 306.91 100.561 307.118 100.642C307.327 100.723 307.497 100.88 307.595 101.081C307.693 101.283 307.712 101.514 307.648 101.728C307.584 101.943 307.441 102.125 307.248 102.239L299.33 106.133Z" fill="#4D61FC"/>
<path opacity="0.5" d="M313.575 113.512C315.176 110.889 316.021 107.872 316.017 104.798C316.022 102.58 315.59 100.384 314.745 98.3346C313.901 96.2854 312.661 94.4234 311.097 92.8556C309.533 91.2877 307.675 90.045 305.63 89.1988C303.585 88.3525 301.394 87.9198 299.182 87.9246H297.776L313.575 113.512Z" fill="white"/>
<path opacity="0.5" d="M295.26 88.4063C294.445 88.6214 293.642 88.8813 292.855 89.1851L310.282 117.48C310.957 116.871 311.588 116.214 312.169 115.514L295.26 88.4063Z" fill="white"/>
<path d="M453.139 162.981H376.808V166.886H453.139V162.981Z" fill="#AFB3B8"/>
<path d="M471.602 162.981H453.176V166.886H471.602V162.981Z" fill="#D7DADC"/>
<path d="M407.666 123.747H399.97V162.996H407.666V123.747Z" fill="#AFB3B8"/>
<path d="M428.238 123.747H407.666V162.996H428.238V123.747Z" fill="#D7DADC"/>
<path d="M414.511 127.419H410.182V163H414.511V127.419Z" fill="#AFB3B8"/>
<path d="M426.092 127.419H414.511V163H426.092V127.419Z" fill="#D7DADC"/>
<path d="M427.72 163.018H421.282L417.582 129.05H424.02L427.72 163.018Z" fill="#AFB3B8"/>
<path d="M427.72 163.018H444.888L441.188 129.05H424.02L427.72 163.018Z" fill="#D7DADC"/>
<path d="M170.237 156.789H203.019V109.151H170.237V156.789Z" fill="#B0B4B9"/>
<path d="M168.424 156.789H201.206V109.151H168.424V156.789Z" fill="white"/>
<path d="M172.531 151.523H197.247V114.18H172.531V151.523Z" fill="#DBDBDB"/>
<path d="M180.745 135.206C182.319 135.206 183.594 133.928 183.594 132.351C183.594 130.774 182.319 129.495 180.745 129.495C179.172 129.495 177.896 130.774 177.896 132.351C177.896 133.928 179.172 135.206 180.745 135.206Z" fill="#4D61FC"/>
<g opacity="0.2">
<path opacity="0.2" d="M180.745 144.588H188.996V121.107H180.745V144.588Z" fill="black"/>
</g>
<path d="M153.92 155.379H118.807V204.44H153.92V155.379Z" fill="white"/>
<path d="M155.4 155.379H153.883V204.44H155.4V155.379Z" fill="#B0B4B9"/>
<path d="M149.517 160.089H123.21V199.805H149.517V160.089Z" fill="#D8DBDD"/>
<path opacity="0.15" d="M455.507 328.336V318.509H428.941C428.397 318.262 427.912 317.901 427.52 317.451C427.128 317.001 426.836 316.472 426.666 315.9C426.492 315.327 426.447 314.724 426.525 314.132C426.606 313.539 426.81 312.971 427.128 312.465C430.717 306.68 431.568 299.522 424.871 295.555C419.432 292.365 411.995 294.442 408.998 299.967C406.519 304.529 408.554 308.534 410.885 312.613C411.174 313.121 411.351 313.683 411.41 314.264C411.47 314.845 411.407 315.432 411.225 315.987C411.044 316.543 410.748 317.054 410.36 317.488C409.967 317.922 409.494 318.27 408.961 318.509H382.728V344.542C382.883 345.183 383.191 345.779 383.62 346.278C384.053 346.777 384.596 347.167 385.207 347.413C385.817 347.66 386.48 347.757 387.138 347.696C387.793 347.635 388.426 347.418 388.981 347.063C394.79 343.466 401.931 342.65 405.853 349.325C409.035 354.777 406.704 362.119 401.154 365.123C396.603 367.607 392.977 365.605 388.833 363.343C386.132 361.897 383.32 363.009 382.728 365.902V391.452H401.154V391.526H440.707V391.452H455.507V365.457C455.544 365.382 455.507 328.336 455.507 328.336Z" fill="black"/>
<path d="M455.507 328.336V318.509H428.941C428.397 318.262 427.912 317.901 427.52 317.451C427.128 317.001 426.836 316.472 426.666 315.9C426.492 315.327 426.447 314.724 426.525 314.132C426.606 313.539 426.81 312.971 427.128 312.465C430.717 306.68 431.568 299.522 424.871 295.555C419.432 292.365 411.995 294.442 408.998 299.967C406.519 304.529 408.554 308.534 410.885 312.613C411.174 313.121 411.351 313.683 411.41 314.264C411.47 314.845 411.407 315.432 411.225 315.987C411.044 316.543 410.748 317.054 410.36 317.488C409.967 317.922 409.494 318.27 408.961 318.509H382.728V344.542C382.883 345.183 383.191 345.779 383.62 346.278C384.053 346.777 384.596 347.167 385.207 347.413C385.817 347.66 386.48 347.757 387.138 347.696C387.793 347.635 388.426 347.418 388.981 347.063C394.79 343.466 401.931 342.65 405.853 349.325C409.035 354.777 406.704 362.119 401.154 365.123C396.603 367.607 392.977 365.605 388.833 363.343C386.132 361.897 383.32 363.009 382.728 365.902V391.452H401.154V391.526H440.707V391.452H455.507V365.457C455.544 365.382 455.507 328.336 455.507 328.336Z" fill="#4D61FC"/>
<path d="M405.853 349.288C401.931 342.576 394.79 343.429 388.981 347.026C388.352 347.427 387.623 347.65 386.879 347.671C386.132 347.692 385.392 347.51 384.741 347.146C384.09 346.781 383.549 346.247 383.172 345.599C382.798 344.951 382.606 344.214 382.617 343.466V319.214H356.791C356.222 319.424 355.705 319.757 355.277 320.188C354.848 320.619 354.519 321.139 354.311 321.71C354.103 322.282 354.022 322.892 354.074 323.499C354.125 324.105 354.307 324.693 354.608 325.221C356.939 329.3 358.937 333.305 356.495 337.867C353.461 343.429 346.024 345.469 340.622 342.28C333.925 338.349 334.739 331.192 338.328 325.37C338.657 324.838 338.863 324.24 338.931 323.618C339 322.997 338.929 322.368 338.723 321.778C338.517 321.187 338.182 320.651 337.742 320.207C337.303 319.763 336.77 319.424 336.182 319.214H310.319V319.028H309.949V318.583H309.838V391.526H382.617V366.94C382.61 366.208 382.798 365.487 383.157 364.85C383.52 364.214 384.042 363.684 384.674 363.315C385.303 362.946 386.021 362.751 386.754 362.749C387.483 362.748 388.2 362.939 388.833 363.306C392.903 365.642 396.936 367.645 401.487 365.197C407 362.193 409.072 354.702 405.853 349.288Z" fill="#4D61FC"/>
<path d="M455.507 317.73L455.618 246.307H382.839V271.19C382.839 274.491 376.142 281.833 373.367 280.09C367.595 276.456 363.525 270.3 359.566 277.012C356.384 282.427 358.456 289.88 363.969 292.921C368.52 295.369 372.368 289.213 376.438 286.877C379.213 285.282 382.839 291.438 382.839 294.664V319.25H408.332C408.95 319.08 409.523 318.77 410.004 318.345C410.485 317.92 410.863 317.391 411.107 316.797C411.355 316.204 411.462 315.562 411.421 314.92C411.384 314.279 411.2 313.654 410.885 313.095C408.554 309.052 406.519 305.01 408.998 300.449C411.995 294.924 419.432 292.847 424.871 296.073C431.568 300.004 430.717 307.161 427.128 312.983C426.784 313.543 426.573 314.175 426.518 314.83C426.458 315.486 426.558 316.145 426.802 316.755C427.047 317.365 427.431 317.909 427.927 318.343C428.419 318.776 429.008 319.087 429.644 319.25H455.507V317.73Z" fill="#4D61FC"/>
<path opacity="0.15" d="M455.507 317.73V246.307H382.728V271.19C382.728 274.491 393.162 272.488 389.24 279.2C386.021 284.615 379.62 282.315 385.133 285.356C389.684 287.804 376.993 290.103 381.063 287.767C383.838 286.172 382.728 291.438 382.728 294.664V319.25H408.258C408.872 319.081 409.438 318.772 409.916 318.349C410.393 317.925 410.767 317.398 411.011 316.808C411.251 316.218 411.359 315.58 411.318 314.942C411.277 314.305 411.088 313.686 410.774 313.132C408.443 309.053 406.445 305.01 408.887 300.449C411.884 294.924 419.358 292.847 424.76 296.073C431.457 300.004 430.643 307.161 427.017 312.983C426.673 313.545 426.462 314.18 426.41 314.838C426.355 315.495 426.455 316.156 426.706 316.767C426.954 317.378 427.343 317.921 427.842 318.353C428.338 318.784 428.93 319.092 429.57 319.25H455.507V317.73Z" fill="black"/>
<path opacity="0.5" d="M455.507 328.336V318.509H428.941C428.397 318.262 427.912 317.901 427.52 317.451C427.128 317.001 426.836 316.472 426.666 315.9C426.492 315.327 426.447 314.724 426.525 314.132C426.606 313.539 426.81 312.971 427.128 312.465C430.717 306.68 431.568 299.522 424.871 295.555C419.432 292.365 411.995 294.442 408.998 299.967C406.519 304.529 408.554 308.534 410.885 312.613C411.174 313.121 411.351 313.683 411.41 314.264C411.47 314.845 411.407 315.432 411.225 315.987C411.044 316.543 410.748 317.054 410.36 317.488C409.967 317.922 409.494 318.27 408.961 318.509H382.728V344.542C382.883 345.183 383.191 345.779 383.62 346.278C384.053 346.777 384.596 347.167 385.207 347.413C385.817 347.66 386.48 347.757 387.138 347.696C387.793 347.635 388.426 347.418 388.981 347.063C394.79 343.466 401.931 342.65 405.853 349.325C409.035 354.777 406.704 362.119 401.154 365.123C396.603 367.607 392.977 365.605 388.833 363.343C386.132 361.897 383.32 363.009 382.728 365.902V391.452H401.154V391.526H440.707V391.452H455.507V328.336Z" fill="white"/>
<path d="M348.429 249.534C348.133 246.79 345.691 245.492 343.064 246.605C339.068 248.236 335.553 249.72 331.594 247.012C326.821 243.712 325.378 236.777 328.819 232.105C333.074 226.357 339.549 227.766 344.507 231.66C344.984 232.029 345.542 232.281 346.134 232.395C346.726 232.508 347.336 232.481 347.915 232.315C348.495 232.149 349.028 231.849 349.471 231.439C349.913 231.029 350.253 230.52 350.464 229.954L351.944 215.825L352.943 206.406V206.11L345.358 205.294L289.118 199.36L286.232 199.064V199.397L285.307 208.075L283.753 223.168L283.605 223.39L281.681 241.821C281.701 241.909 281.725 241.995 281.755 242.08L279.239 265.888H279.572V266.073L288.23 267L303.289 268.595C303.808 268.84 304.265 269.199 304.627 269.646C304.988 270.092 305.244 270.615 305.376 271.175C305.507 271.734 305.511 272.317 305.387 272.878C305.263 273.44 305.014 273.965 304.658 274.417C300.81 279.386 299.367 285.876 305.102 290.14C309.801 293.589 316.794 292.44 320.087 287.656C322.788 283.688 321.308 279.831 319.569 275.863C319.348 275.348 319.242 274.791 319.256 274.231C319.27 273.671 319.404 273.12 319.65 272.616C319.896 272.113 320.248 271.668 320.68 271.314C321.113 270.959 321.618 270.702 322.159 270.56L345.95 273.082L346.949 263.292L348.429 249.534Z" fill="#4D61FC"/>
<path opacity="0.5" d="M348.429 249.534C348.133 246.79 345.691 245.492 343.064 246.605C339.068 248.236 335.553 249.72 331.594 247.012C326.821 243.712 325.378 236.777 328.819 232.105C333.074 226.357 339.549 227.766 344.507 231.66C344.984 232.029 345.542 232.281 346.134 232.395C346.726 232.508 347.336 232.481 347.915 232.315C348.495 232.149 349.028 231.849 349.471 231.439C349.913 231.029 350.253 230.52 350.464 229.954L351.944 215.825L352.943 206.406V206.11L345.358 205.294L289.118 199.36L286.232 199.064V199.397L285.307 208.075L283.753 223.168L283.605 223.39L281.681 241.821C281.701 241.909 281.725 241.995 281.755 242.08L279.239 265.888H279.572V266.073L288.23 267L303.289 268.595C303.808 268.84 304.265 269.199 304.627 269.646C304.988 270.092 305.244 270.615 305.376 271.175C305.507 271.734 305.511 272.317 305.387 272.878C305.263 273.44 305.014 273.965 304.658 274.417C300.81 279.386 299.367 285.876 305.102 290.14C309.801 293.589 316.794 292.44 320.087 287.656C322.788 283.688 321.308 279.831 319.569 275.863C319.348 275.348 319.242 274.791 319.256 274.231C319.27 273.671 319.404 273.12 319.65 272.616C319.896 272.113 320.248 271.668 320.68 271.314C321.113 270.959 321.618 270.702 322.159 270.56L345.95 273.082L346.949 263.292L348.429 249.534Z" fill="white"/>
<path d="M458.06 246.864C458.326 246.864 458.541 246.648 458.541 246.382C458.541 246.116 458.326 245.9 458.06 245.9C457.794 245.9 457.579 246.116 457.579 246.382C457.579 246.648 457.794 246.864 458.06 246.864Z" fill="white"/>
<path d="M452.177 318.88V318.509H425.611C425.063 318.265 424.579 317.907 424.179 317.459C423.783 317.01 423.487 316.482 423.313 315.909C423.136 315.336 423.088 314.732 423.165 314.138C423.243 313.544 423.447 312.973 423.761 312.465C427.387 306.68 428.201 299.522 421.504 295.555C416.102 292.365 408.665 294.442 405.668 299.967C403.189 304.529 405.224 308.534 407.518 312.613C407.807 313.121 407.984 313.683 408.043 314.264C408.103 314.845 408.04 315.432 407.858 315.987C407.677 316.543 407.381 317.054 406.993 317.488C406.6 317.922 406.127 318.27 405.594 318.509H379.398V344.542C379.553 345.183 379.861 345.779 380.29 346.278C380.723 346.777 381.266 347.167 381.877 347.413C382.487 347.66 383.15 347.757 383.808 347.696C384.463 347.635 385.096 347.418 385.651 347.063C391.423 343.466 398.601 342.65 402.523 349.325C405.705 354.777 403.337 362.119 397.824 365.123C393.273 367.607 389.61 365.605 385.503 363.343C382.765 361.897 379.99 363.009 379.398 365.902V391.452H397.787V391.526H437.34V391.452H452.177V318.88Z" fill="#4D61FC"/>
<path d="M402.523 349.288C398.601 342.576 391.423 343.429 385.651 347.026C385.018 347.424 384.289 347.644 383.542 347.664C382.795 347.684 382.055 347.503 381.403 347.139C380.749 346.776 380.205 346.243 379.827 345.597C379.446 344.951 379.25 344.215 379.25 343.466V319.214H353.461C352.889 319.421 352.368 319.75 351.936 320.18C351.503 320.609 351.17 321.128 350.958 321.7C350.747 322.272 350.663 322.884 350.712 323.492C350.76 324.1 350.941 324.69 351.241 325.221C353.572 329.3 355.607 333.305 353.128 337.867C350.131 343.429 342.694 345.469 337.255 342.28C330.558 338.349 331.409 331.192 334.998 325.37C335.327 324.838 335.533 324.24 335.601 323.618C335.67 322.997 335.599 322.368 335.393 321.778C335.187 321.187 334.852 320.651 334.412 320.207C333.973 319.763 333.44 319.424 332.852 319.214H306.952V319.028H306.582V318.583H306.471V391.526H379.25V366.94C379.25 366.206 379.442 365.486 379.809 364.851C380.175 364.216 380.7 363.688 381.333 363.32C381.966 362.952 382.684 362.757 383.416 362.755C384.149 362.752 384.867 362.942 385.503 363.306C389.573 365.642 393.569 367.645 398.12 365.197C403.67 362.193 405.705 354.702 402.523 349.288Z" fill="#4D61FC"/>
<path d="M452.14 317.73V246.307H379.361V271.19C379.361 271.939 379.165 272.676 378.784 273.322C378.406 273.968 377.863 274.5 377.208 274.864C376.556 275.227 375.816 275.408 375.069 275.389C374.322 275.369 373.593 275.148 372.96 274.75C367.188 271.116 360.047 270.3 356.088 277.012C352.906 282.427 354.941 289.88 360.491 292.921C365.042 295.369 369.038 293.366 373.108 291.03C373.744 290.667 374.462 290.477 375.195 290.479C375.927 290.482 376.645 290.677 377.278 291.045C377.911 291.413 378.436 291.94 378.802 292.576C379.169 293.211 379.361 293.931 379.361 294.664V319.25H404.854C405.472 319.08 406.045 318.77 406.526 318.345C407.007 317.92 407.385 317.391 407.629 316.797C407.877 316.204 407.984 315.562 407.944 314.92C407.907 314.279 407.722 313.654 407.407 313.095C405.076 309.052 403.041 305.01 405.52 300.449C408.517 294.924 415.954 292.847 421.393 296.073C428.053 300.004 427.239 307.161 423.65 312.983C423.306 313.543 423.095 314.175 423.04 314.83C422.98 315.486 423.08 316.145 423.324 316.755C423.569 317.365 423.953 317.909 424.449 318.343C424.941 318.776 425.53 319.087 426.166 319.25H452.14V317.73Z" fill="#4D61FC"/>
<path d="M345.987 249.385C345.728 246.641 343.286 245.343 340.659 246.456C336.663 248.088 333.111 249.571 329.189 246.864C324.416 243.563 322.936 236.629 326.377 231.956C330.632 226.208 337.107 227.618 342.065 231.511C342.546 231.88 343.105 232.132 343.7 232.246C344.294 232.359 344.907 232.332 345.489 232.167C346.071 232.001 346.607 231.701 347.053 231.291C347.499 230.881 347.844 230.372 348.059 229.805L349.539 215.677L350.501 206.258V205.961L342.916 205.145L286.676 199.212L283.827 198.915V199.249L282.902 207.926L281.311 223.019L281.2 223.242L279.239 241.672L279.35 241.932L276.834 265.739H277.167V265.925L285.788 266.852L300.884 268.446C301.403 268.691 301.86 269.05 302.222 269.497C302.583 269.944 302.839 270.467 302.971 271.026C303.102 271.586 303.106 272.168 302.982 272.73C302.858 273.291 302.609 273.817 302.253 274.268C298.405 279.238 296.962 285.727 302.697 289.992C307.359 293.44 314.389 292.291 317.682 287.507C320.383 283.539 318.903 279.683 317.164 275.715C316.937 275.2 316.825 274.642 316.836 274.08C316.847 273.517 316.98 272.964 317.227 272.459C317.474 271.954 317.828 271.509 318.264 271.155C318.701 270.801 319.209 270.548 319.754 270.412L343.508 272.933L344.544 263.143L345.987 249.385Z" fill="#4D61FC"/>
<path opacity="0.7" d="M452.177 318.509H425.611C425.063 318.265 424.579 317.907 424.179 317.459C423.783 317.01 423.487 316.482 423.313 315.909C423.136 315.336 423.088 314.732 423.165 314.138C423.243 313.544 423.447 312.973 423.761 312.465C427.387 306.68 428.201 299.522 421.504 295.555C416.102 292.365 408.665 294.442 405.668 299.967C403.189 304.529 405.224 308.534 407.518 312.613C407.807 313.121 407.984 313.683 408.043 314.264C408.103 314.845 408.04 315.432 407.858 315.987C407.677 316.543 407.381 317.054 406.993 317.488C406.6 317.922 406.127 318.27 405.594 318.509H379.398V344.542C379.553 345.183 379.861 345.779 380.29 346.278C380.723 346.777 381.266 347.167 381.877 347.413C382.487 347.66 383.15 347.757 383.808 347.696C384.463 347.635 385.096 347.418 385.651 347.063C391.423 343.466 398.601 342.65 402.523 349.325C405.705 354.777 403.337 362.119 397.824 365.123C393.273 367.607 389.61 365.605 385.503 363.343C382.765 361.897 379.99 363.009 379.398 365.902V391.452H397.787V391.526H437.34V391.452H452.177V318.509Z" fill="white"/>
<path opacity="0.7" d="M345.987 249.385C345.728 246.641 343.286 245.343 340.659 246.456C336.663 248.088 333.111 249.571 329.189 246.864C324.416 243.563 322.936 236.629 326.377 231.956C330.632 226.208 337.107 227.618 342.065 231.511C342.546 231.88 343.105 232.132 343.7 232.246C344.294 232.359 344.907 232.332 345.489 232.167C346.071 232.001 346.607 231.701 347.053 231.291C347.499 230.881 347.844 230.372 348.059 229.805L349.539 215.677L350.501 206.258V205.961L342.916 205.145L286.676 199.212L283.827 198.915V199.249L282.902 207.926L281.311 223.019L281.2 223.242L279.239 241.672L279.35 241.932L276.834 265.739H277.167V265.925L285.788 266.852L300.884 268.446C301.403 268.691 301.86 269.05 302.222 269.497C302.583 269.944 302.839 270.467 302.971 271.026C303.102 271.586 303.106 272.168 302.982 272.73C302.858 273.291 302.609 273.817 302.253 274.268C298.405 279.238 296.962 285.727 302.697 289.992C307.359 293.44 314.389 292.291 317.682 287.507C320.383 283.539 318.903 279.683 317.164 275.715C316.937 275.2 316.825 274.642 316.836 274.08C316.847 273.517 316.98 272.964 317.227 272.459C317.474 271.954 317.828 271.509 318.264 271.155C318.701 270.801 319.209 270.548 319.754 270.412L343.508 272.933L344.544 263.143L345.987 249.385Z" fill="white"/>
<path d="M307.877 198.581L312.946 198.285C313.063 198.273 313.181 198.295 313.286 198.348C313.391 198.4 313.48 198.481 313.542 198.582C313.603 198.682 313.636 198.798 313.635 198.916C313.634 199.034 313.601 199.149 313.538 199.249C313.306 199.643 312.956 199.954 312.539 200.139L307.877 198.581Z" fill="#F39494"/>
<path d="M304.51 197.654C304.51 197.654 309.394 197.024 309.653 197.061C309.912 197.098 310.726 197.951 309.801 198.47L307.396 198.618L304.51 197.654Z" fill="#F39494"/>
<path opacity="0.15" d="M309.061 198.507C309.283 198.618 313.353 199.545 313.353 199.545L312.724 200.139L307.544 198.655L309.061 198.507Z" fill="black"/>
<path opacity="0.15" d="M305.324 197.58L309.061 198.507L308.469 198.581L304.584 197.654L305.324 197.58Z" fill="black"/>
<path d="M317.608 202.401C318.422 202.364 318.311 201.214 317.497 200.955C313.871 199.768 304.473 197.617 303.992 197.543C303.511 197.469 294.335 196.579 284.826 196.06L284.604 205.553C287.257 205.433 289.916 205.507 292.559 205.775C293.706 205.924 296.333 206.517 297.739 207.407C299.145 208.297 301.661 209.298 303.104 209.521C303.254 209.534 303.404 209.492 303.526 209.404C303.649 209.315 303.735 209.186 303.77 209.039C303.844 208.482 303.881 207.667 303.141 207.333C302.401 206.999 299.071 204.96 299.515 203.921C299.959 202.883 303.178 202.178 303.733 202.327C304.288 202.475 308.839 203.439 308.913 203.699C308.987 203.958 312.761 208.186 313.945 207.889C314.078 207.858 314.202 207.795 314.306 207.706C314.41 207.616 314.49 207.503 314.541 207.376C314.592 207.248 314.611 207.11 314.598 206.974C314.584 206.837 314.538 206.706 314.463 206.591C313.612 205.367 312.095 202.883 311.355 201.882C313.612 202.067 316.72 202.438 317.608 202.401Z" fill="#F39494"/>
<path opacity="0.15" d="M311.318 201.882C311.063 201.585 310.73 201.366 310.356 201.251L306.323 199.99L310.504 200.918C310.909 201.027 311.264 201.276 311.503 201.622L311.651 201.882H311.318Z" fill="black"/>
<path opacity="0.15" d="M314.019 206.925C312.946 207.185 309.838 203.773 309.135 202.92C309.026 202.789 308.886 202.687 308.728 202.623L303.807 201.325C303.252 201.214 300.033 201.919 299.552 202.957C299.526 203.078 299.526 203.204 299.552 203.325C299.577 203.447 299.628 203.561 299.7 203.662C300.514 202.772 303.215 202.178 303.733 202.29C304.251 202.401 308.839 203.439 308.913 203.699C308.987 203.958 312.761 208.186 313.945 207.889C314.073 207.856 314.191 207.794 314.29 207.707C314.39 207.62 314.468 207.511 314.518 207.389C314.568 207.266 314.589 207.134 314.58 207.002C314.57 206.87 314.53 206.742 314.463 206.628C314.357 206.779 314.198 206.885 314.019 206.925Z" fill="black"/>
<path opacity="0.15" d="M303.178 208.557C301.735 208.334 299.034 207.222 297.813 206.443C296.592 205.664 295.075 204.478 293.632 204.033C291.449 203.536 289.208 203.336 286.972 203.439L284.604 205.553C287.257 205.433 289.916 205.507 292.559 205.775C293.706 205.924 296.333 206.517 297.739 207.407C299.145 208.297 301.661 209.298 303.141 209.521C303.287 209.532 303.431 209.49 303.548 209.401C303.664 209.312 303.743 209.183 303.77 209.039C303.826 208.757 303.826 208.467 303.77 208.186C303.735 208.31 303.655 208.418 303.545 208.486C303.436 208.555 303.305 208.58 303.178 208.557Z" fill="black"/>
<path d="M291.005 196.097L264.18 189.867L252.34 202.105L289.34 205.998L291.005 196.097Z" fill="#4D61FC"/>
<path d="M291.005 196.097L264.18 189.867L252.34 202.105L289.34 205.998L291.005 196.097Z" fill="#4D61FC"/>
<path d="M264.18 189.867L260.11 158.717C259 152.784 254.93 151.671 251.637 150.225L247.641 148.742L252.34 202.105L264.18 189.867Z" fill="#4D61FC"/>
<path opacity="0.15" d="M257.076 197.321L257.002 161.869C256.669 160.089 256.669 157.382 253.783 155.825L248.085 153.562L252.34 202.216L287.12 205.553L287.564 202.995L258.815 198.878C258.598 198.893 258.381 198.865 258.175 198.794C257.969 198.723 257.78 198.612 257.618 198.467C257.456 198.322 257.324 198.146 257.231 197.949C257.138 197.752 257.085 197.538 257.076 197.321Z" fill="black"/>
<path d="M291.005 196.097L289.34 205.998L286.972 206.147L288.6 195.059L291.005 196.097Z" fill="#21252B"/>
<path d="M210.419 229.843L203.87 167.988C203.352 161.61 208.532 154.527 214.6 152.413L229.881 147.073L241.647 148.26L247.308 148.779C247.419 148.927 259.444 159.31 259.37 159.088L259 230.955L210.419 229.843Z" fill="#4D61FC"/>
<path opacity="0.15" d="M236.393 153.006L239.02 168.322L238.095 152.969L236.393 153.006Z" fill="black"/>
<path d="M253.598 161.053L254.042 160.608C254.069 160.573 254.082 160.529 254.079 160.484C254.075 160.44 254.056 160.398 254.025 160.366C253.993 160.335 253.952 160.315 253.907 160.312C253.863 160.309 253.819 160.322 253.783 160.349L253.302 160.794L252.858 160.349C252.842 160.328 252.822 160.31 252.798 160.297C252.775 160.285 252.75 160.277 252.723 160.275C252.697 160.273 252.67 160.277 252.645 160.286C252.62 160.296 252.598 160.31 252.579 160.329C252.561 160.348 252.546 160.37 252.537 160.395C252.527 160.42 252.524 160.447 252.525 160.473C252.527 160.5 252.535 160.526 252.548 160.549C252.56 160.572 252.578 160.592 252.599 160.608L253.043 161.053L252.599 161.498C252.578 161.514 252.56 161.535 252.548 161.558C252.535 161.581 252.527 161.607 252.525 161.634C252.524 161.66 252.527 161.687 252.537 161.711C252.546 161.736 252.561 161.759 252.579 161.778C252.598 161.796 252.62 161.811 252.645 161.821C252.67 161.83 252.697 161.833 252.723 161.832C252.75 161.83 252.775 161.822 252.798 161.809C252.822 161.797 252.842 161.779 252.858 161.758L253.302 161.313L253.783 161.758C253.799 161.779 253.819 161.797 253.843 161.809C253.866 161.822 253.891 161.83 253.918 161.832C253.944 161.833 253.971 161.83 253.996 161.821C254.021 161.811 254.043 161.796 254.062 161.778C254.081 161.759 254.095 161.736 254.104 161.711C254.113 161.687 254.118 161.66 254.116 161.634C254.114 161.607 254.106 161.581 254.093 161.558C254.081 161.535 254.063 161.514 254.042 161.498L253.598 161.053Z" fill="white"/>
<path d="M241.832 173.958L242.424 173.736C242.473 173.716 242.512 173.678 242.533 173.629C242.554 173.58 242.555 173.526 242.535 173.476C242.515 173.427 242.477 173.388 242.428 173.367C242.38 173.346 242.325 173.345 242.276 173.365L241.721 173.625L241.462 173.031C241.459 173.007 241.451 172.983 241.437 172.963C241.422 172.943 241.403 172.926 241.381 172.915C241.359 172.904 241.335 172.899 241.31 172.9C241.286 172.901 241.261 172.907 241.24 172.92C241.214 172.928 241.191 172.941 241.171 172.959C241.151 172.977 241.135 172.999 241.125 173.024C241.114 173.049 241.109 173.075 241.11 173.102C241.111 173.129 241.117 173.155 241.129 173.18L241.351 173.736L240.759 173.995C240.685 174.032 240.611 174.144 240.648 174.218C240.685 174.292 240.796 174.366 240.907 174.329L241.499 174.107L241.721 174.7C241.745 174.746 241.784 174.782 241.831 174.802C241.878 174.822 241.931 174.826 241.98 174.811C242.026 174.787 242.062 174.749 242.082 174.701C242.102 174.654 242.105 174.601 242.091 174.552L241.832 173.958Z" fill="white"/>
<path d="M218.855 156.863L219.41 156.64C219.521 156.566 219.558 156.492 219.521 156.381C219.518 156.356 219.51 156.333 219.495 156.313C219.481 156.292 219.462 156.276 219.44 156.265C219.418 156.254 219.394 156.248 219.369 156.249C219.345 156.25 219.32 156.257 219.299 156.27L218.707 156.529L218.448 155.936C218.448 155.907 218.441 155.878 218.428 155.851C218.414 155.825 218.395 155.803 218.371 155.785C218.347 155.768 218.32 155.757 218.291 155.753C218.262 155.748 218.232 155.751 218.205 155.76C218.177 155.769 218.152 155.785 218.131 155.806C218.111 155.827 218.095 155.852 218.087 155.881C218.078 155.909 218.076 155.938 218.081 155.967C218.086 155.996 218.098 156.024 218.115 156.047L218.337 156.64L217.745 156.9C217.709 156.923 217.682 156.957 217.668 156.998C217.655 157.039 217.656 157.082 217.671 157.122C217.674 157.147 217.683 157.171 217.697 157.191C217.711 157.211 217.73 157.227 217.752 157.239C217.774 157.25 217.798 157.255 217.823 157.254C217.848 157.253 217.872 157.246 217.893 157.234L218.485 157.011L218.707 157.605C218.736 157.644 218.777 157.672 218.824 157.685C218.871 157.699 218.921 157.697 218.966 157.679C218.99 157.676 219.014 157.667 219.034 157.653C219.054 157.639 219.071 157.62 219.082 157.598C219.093 157.576 219.098 157.551 219.097 157.526C219.097 157.501 219.09 157.477 219.077 157.456L218.855 156.863Z" fill="white"/>
<path d="M257.15 175.553L257.742 175.33C257.781 175.301 257.809 175.26 257.823 175.213C257.836 175.166 257.834 175.116 257.816 175.071C257.779 174.997 257.668 174.922 257.594 174.96L257.002 175.219L256.78 174.626C256.756 174.58 256.718 174.544 256.67 174.524C256.623 174.503 256.571 174.5 256.521 174.515C256.495 174.522 256.472 174.536 256.452 174.554C256.432 174.572 256.416 174.594 256.406 174.619C256.395 174.643 256.39 174.67 256.391 174.697C256.391 174.724 256.398 174.75 256.41 174.774L256.632 175.367L256.077 175.59C256.051 175.598 256.028 175.611 256.008 175.629C255.988 175.647 255.972 175.669 255.962 175.694C255.951 175.719 255.946 175.745 255.947 175.772C255.947 175.799 255.954 175.825 255.966 175.85C256.003 175.924 256.114 175.998 256.188 175.924L256.78 175.701L257.039 176.295C257.042 176.319 257.051 176.342 257.065 176.363C257.079 176.383 257.098 176.399 257.12 176.411C257.142 176.422 257.166 176.427 257.191 176.426C257.216 176.425 257.24 176.418 257.261 176.406C257.287 176.398 257.31 176.384 257.33 176.366C257.35 176.348 257.366 176.326 257.376 176.302C257.387 176.277 257.392 176.25 257.391 176.223C257.39 176.197 257.384 176.17 257.372 176.146L257.15 175.553Z" fill="white"/>
<path d="M238.206 189.756L238.798 189.496C238.872 189.459 238.946 189.348 238.909 189.274C238.901 189.248 238.888 189.224 238.87 189.204C238.852 189.185 238.83 189.169 238.805 189.158C238.781 189.148 238.754 189.142 238.727 189.143C238.7 189.144 238.674 189.151 238.65 189.162L238.058 189.385L237.836 188.792C237.828 188.766 237.815 188.742 237.797 188.722C237.779 188.703 237.757 188.687 237.732 188.676C237.708 188.666 237.681 188.66 237.654 188.661C237.627 188.662 237.601 188.668 237.577 188.68C237.531 188.704 237.496 188.743 237.475 188.79C237.455 188.838 237.452 188.891 237.466 188.94L237.725 189.533L237.133 189.756C237.102 189.779 237.079 189.812 237.068 189.849C237.056 189.886 237.056 189.926 237.069 189.963C237.081 190 237.105 190.032 237.136 190.055C237.167 190.077 237.205 190.09 237.244 190.09L237.836 189.867L238.095 190.46C238.098 190.485 238.107 190.509 238.121 190.529C238.135 190.549 238.154 190.565 238.176 190.576C238.198 190.588 238.223 190.593 238.247 190.592C238.272 190.591 238.296 190.584 238.317 190.572C238.343 190.564 238.366 190.55 238.386 190.532C238.406 190.514 238.422 190.492 238.432 190.467C238.443 190.443 238.448 190.416 238.447 190.39C238.447 190.362 238.44 190.336 238.428 190.312L238.206 189.756Z" fill="white"/>
<path d="M235.949 181.709L236.541 181.449C236.566 181.446 236.589 181.437 236.609 181.423C236.629 181.409 236.646 181.39 236.657 181.368C236.668 181.346 236.673 181.321 236.672 181.297C236.672 181.272 236.665 181.248 236.652 181.227C236.644 181.201 236.631 181.177 236.613 181.157C236.595 181.137 236.573 181.121 236.548 181.111C236.524 181.1 236.497 181.095 236.47 181.096C236.443 181.097 236.417 181.103 236.393 181.115L235.801 181.338L235.579 180.745C235.55 180.705 235.509 180.677 235.462 180.663C235.415 180.65 235.366 180.653 235.32 180.67C235.246 180.707 235.172 180.819 235.246 180.893L235.468 181.486L234.876 181.746C234.852 181.748 234.828 181.757 234.808 181.771C234.788 181.785 234.771 181.805 234.761 181.827C234.749 181.849 234.744 181.873 234.745 181.898C234.746 181.923 234.753 181.947 234.765 181.968C234.773 181.994 234.786 182.017 234.804 182.037C234.822 182.057 234.844 182.073 234.869 182.084C234.894 182.094 234.92 182.1 234.947 182.099C234.974 182.098 235 182.091 235.024 182.08L235.616 181.857L235.838 182.413C235.846 182.439 235.859 182.462 235.877 182.482C235.895 182.502 235.917 182.518 235.942 182.529C235.967 182.539 235.993 182.545 236.02 182.544C236.047 182.543 236.073 182.536 236.097 182.525C236.171 182.487 236.245 182.376 236.208 182.302L235.949 181.709Z" fill="white"/>
<path d="M247.234 188.272L247.826 188.05C247.849 188.038 247.868 188.022 247.885 188.002C247.9 187.983 247.912 187.961 247.919 187.936C247.926 187.912 247.928 187.886 247.925 187.861C247.922 187.836 247.913 187.812 247.9 187.79C247.897 187.766 247.889 187.742 247.875 187.722C247.86 187.702 247.841 187.685 247.819 187.674C247.797 187.663 247.773 187.658 247.748 187.659C247.724 187.659 247.7 187.666 247.678 187.679L247.086 187.939L246.864 187.345C246.854 187.321 246.84 187.299 246.822 187.28C246.803 187.261 246.782 187.246 246.757 187.236C246.733 187.226 246.708 187.22 246.682 187.22C246.655 187.219 246.629 187.224 246.605 187.234C246.581 187.244 246.559 187.258 246.54 187.276C246.521 187.295 246.506 187.317 246.496 187.341C246.486 187.365 246.48 187.391 246.48 187.417C246.48 187.443 246.484 187.469 246.494 187.494L246.753 188.05L246.161 188.309C246.135 188.317 246.112 188.331 246.092 188.349C246.072 188.367 246.056 188.389 246.046 188.414C246.035 188.438 246.03 188.465 246.031 188.492C246.032 188.519 246.038 188.545 246.05 188.569C246.073 188.605 246.107 188.632 246.148 188.646C246.188 188.659 246.232 188.658 246.272 188.643L246.864 188.421L247.123 189.014C247.16 189.088 247.271 189.162 247.345 189.125C247.371 189.117 247.394 189.104 247.414 189.086C247.434 189.068 247.45 189.046 247.46 189.021C247.471 188.997 247.476 188.97 247.475 188.943C247.475 188.916 247.468 188.89 247.456 188.866L247.234 188.272Z" fill="white"/>
<path d="M226.921 171.585L227.513 171.362C227.562 171.343 227.601 171.304 227.622 171.256C227.643 171.207 227.644 171.152 227.624 171.103C227.604 171.054 227.566 171.014 227.517 170.993C227.469 170.973 227.414 170.972 227.365 170.992L226.773 171.251L226.551 170.658C226.543 170.632 226.53 170.609 226.512 170.589C226.494 170.569 226.472 170.553 226.447 170.542C226.423 170.532 226.396 170.527 226.369 170.527C226.342 170.528 226.316 170.535 226.292 170.547C226.253 170.576 226.225 170.617 226.211 170.664C226.198 170.711 226.2 170.761 226.218 170.806L226.44 171.362L225.848 171.622C225.802 171.646 225.766 171.684 225.746 171.732C225.726 171.779 225.723 171.832 225.737 171.882C225.766 171.921 225.807 171.949 225.854 171.962C225.901 171.976 225.951 171.974 225.996 171.956L226.588 171.733L226.81 172.327C226.83 172.376 226.868 172.415 226.917 172.436C226.965 172.457 227.02 172.458 227.069 172.438C227.118 172.418 227.157 172.38 227.178 172.331C227.199 172.283 227.2 172.227 227.18 172.178L226.921 171.585Z" fill="white"/>
<path d="M210.567 191.536L211.159 191.276C211.183 191.273 211.207 191.265 211.227 191.25C211.247 191.236 211.264 191.217 211.275 191.195C211.286 191.173 211.291 191.149 211.29 191.124C211.29 191.099 211.283 191.075 211.27 191.054C211.262 191.028 211.249 191.004 211.231 190.984C211.213 190.964 211.191 190.949 211.166 190.938C211.142 190.928 211.115 190.922 211.088 190.923C211.061 190.924 211.035 190.931 211.011 190.942L210.456 191.165L210.197 190.609C210.197 190.579 210.19 190.55 210.177 190.524C210.163 190.498 210.144 190.476 210.12 190.458C210.096 190.441 210.069 190.43 210.04 190.426C210.011 190.421 209.981 190.424 209.954 190.433C209.926 190.442 209.901 190.458 209.88 190.479C209.86 190.5 209.844 190.525 209.836 190.553C209.827 190.581 209.825 190.611 209.83 190.64C209.835 190.669 209.847 190.697 209.864 190.72L210.086 191.313L209.494 191.573C209.42 191.61 209.346 191.721 209.383 191.795C209.42 191.87 209.531 191.944 209.642 191.907L210.234 191.684L210.456 192.277C210.485 192.316 210.526 192.345 210.573 192.358C210.62 192.372 210.67 192.369 210.715 192.352C210.739 192.349 210.763 192.34 210.783 192.326C210.803 192.312 210.82 192.293 210.831 192.27C210.842 192.249 210.847 192.224 210.846 192.199C210.846 192.174 210.839 192.15 210.826 192.129L210.567 191.536Z" fill="white"/>
<path d="M211.825 201.919L212.417 201.697C212.443 201.688 212.466 201.675 212.486 201.657C212.506 201.639 212.522 201.617 212.532 201.592C212.543 201.568 212.548 201.541 212.547 201.514C212.546 201.487 212.54 201.461 212.528 201.437C212.504 201.391 212.466 201.355 212.418 201.335C212.371 201.315 212.319 201.311 212.269 201.326L211.714 201.585L211.455 200.992C211.452 200.967 211.444 200.944 211.429 200.923C211.415 200.903 211.396 200.887 211.374 200.876C211.352 200.865 211.328 200.859 211.303 200.86C211.279 200.861 211.254 200.868 211.233 200.881C211.207 200.889 211.184 200.902 211.164 200.92C211.144 200.938 211.128 200.96 211.118 200.985C211.107 201.009 211.102 201.036 211.103 201.063C211.103 201.09 211.11 201.116 211.122 201.14L211.344 201.734L210.752 201.956C210.706 201.98 210.671 202.018 210.65 202.066C210.63 202.113 210.627 202.166 210.641 202.216C210.715 202.29 210.789 202.364 210.9 202.327L211.492 202.067L211.714 202.661C211.734 202.71 211.772 202.749 211.821 202.77C211.869 202.791 211.924 202.792 211.973 202.772C212.022 202.752 212.061 202.714 212.082 202.665C212.103 202.616 212.104 202.561 212.084 202.512L211.825 201.919Z" fill="white"/>
<path d="M214.008 218.384L214.6 218.162C214.645 218.138 214.682 218.099 214.702 218.052C214.722 218.004 214.725 217.951 214.711 217.902C214.703 217.876 214.69 217.853 214.672 217.833C214.654 217.813 214.632 217.797 214.607 217.786C214.583 217.776 214.556 217.771 214.529 217.772C214.502 217.772 214.476 217.779 214.452 217.791L213.86 218.013L213.638 217.42C213.609 217.381 213.568 217.352 213.521 217.339C213.474 217.326 213.425 217.328 213.379 217.346C213.336 217.363 213.301 217.394 213.281 217.436C213.26 217.477 213.256 217.524 213.268 217.568L213.527 218.162L212.935 218.384C212.909 218.392 212.886 218.406 212.866 218.423C212.846 218.441 212.83 218.464 212.82 218.488C212.809 218.513 212.804 218.54 212.805 218.567C212.805 218.593 212.812 218.62 212.824 218.644C212.861 218.718 212.972 218.792 213.046 218.755L213.638 218.532L213.897 219.126C213.921 219.162 213.958 219.188 213.999 219.2C214.041 219.213 214.086 219.209 214.126 219.192C214.165 219.174 214.198 219.143 214.217 219.104C214.236 219.064 214.241 219.02 214.23 218.977L214.008 218.384Z" fill="white"/>
<path d="M221.334 215.417L221.926 215.195C221.952 215.187 221.975 215.173 221.995 215.156C222.015 215.137 222.031 215.116 222.041 215.091C222.052 215.066 222.057 215.04 222.056 215.012C222.055 214.986 222.049 214.959 222.037 214.935C222.026 214.913 222.009 214.893 221.99 214.877C221.97 214.861 221.948 214.849 221.923 214.842C221.899 214.835 221.874 214.833 221.849 214.837C221.824 214.84 221.8 214.848 221.778 214.861L221.186 215.084L220.964 214.49C220.956 214.465 220.943 214.441 220.925 214.421C220.907 214.401 220.885 214.385 220.86 214.375C220.836 214.364 220.809 214.359 220.782 214.36C220.755 214.361 220.729 214.367 220.705 214.379C220.666 214.408 220.638 214.45 220.624 214.496C220.611 214.543 220.613 214.593 220.631 214.639L220.853 215.232L220.261 215.454C220.212 215.474 220.173 215.513 220.152 215.561C220.131 215.61 220.13 215.665 220.15 215.714C220.17 215.763 220.208 215.803 220.257 215.823C220.305 215.844 220.36 215.845 220.409 215.825L221.001 215.566L221.223 216.159C221.233 216.184 221.247 216.205 221.266 216.224C221.284 216.243 221.306 216.258 221.33 216.268C221.354 216.279 221.38 216.284 221.405 216.284C221.432 216.285 221.458 216.28 221.482 216.27C221.506 216.261 221.528 216.246 221.547 216.228C221.566 216.21 221.581 216.188 221.591 216.164C221.602 216.139 221.607 216.113 221.607 216.088C221.607 216.061 221.603 216.035 221.593 216.011L221.334 215.417Z" fill="white"/>
<path d="M231.102 213.823L231.694 213.6C231.74 213.577 231.776 213.538 231.796 213.491C231.816 213.443 231.819 213.391 231.805 213.341C231.797 213.315 231.784 213.291 231.766 213.271C231.748 213.252 231.726 213.236 231.701 213.225C231.677 213.215 231.65 213.21 231.623 213.21C231.596 213.211 231.57 213.218 231.546 213.23L230.954 213.489L230.732 212.896C230.712 212.847 230.674 212.808 230.625 212.786C230.577 212.766 230.522 212.765 230.473 212.785C230.424 212.804 230.385 212.843 230.364 212.891C230.343 212.94 230.342 212.995 230.362 213.044L230.621 213.6L230.029 213.86C230.005 213.863 229.981 213.872 229.961 213.886C229.941 213.9 229.924 213.919 229.913 213.941C229.902 213.963 229.897 213.988 229.898 214.012C229.899 214.037 229.906 214.061 229.918 214.082C229.926 214.108 229.939 214.132 229.957 214.152C229.975 214.172 229.997 214.187 230.022 214.198C230.047 214.209 230.073 214.214 230.1 214.213C230.127 214.212 230.153 214.206 230.177 214.194L230.769 213.971L230.991 214.565C231.015 214.61 231.054 214.647 231.101 214.667C231.148 214.687 231.201 214.69 231.25 214.676C231.285 214.644 231.31 214.602 231.323 214.556C231.337 214.511 231.337 214.462 231.324 214.416L231.102 213.823Z" fill="white"/>
<path d="M226.218 223.502L226.81 223.279C226.859 223.26 226.898 223.221 226.919 223.172C226.94 223.124 226.941 223.069 226.921 223.02C226.901 222.97 226.863 222.931 226.814 222.91C226.766 222.889 226.711 222.889 226.662 222.908L226.07 223.168L225.848 222.575C225.84 222.549 225.827 222.525 225.809 222.505C225.791 222.485 225.769 222.47 225.744 222.459C225.72 222.448 225.693 222.443 225.666 222.444C225.639 222.445 225.613 222.451 225.589 222.463C225.544 222.487 225.507 222.526 225.487 222.573C225.467 222.621 225.464 222.673 225.478 222.723L225.737 223.279L225.145 223.539C225.121 223.541 225.097 223.55 225.077 223.564C225.057 223.579 225.04 223.598 225.029 223.62C225.018 223.642 225.013 223.666 225.014 223.691C225.014 223.716 225.021 223.74 225.034 223.761C225.042 223.787 225.055 223.811 225.073 223.831C225.091 223.85 225.113 223.866 225.138 223.877C225.162 223.887 225.189 223.893 225.216 223.892C225.243 223.891 225.269 223.884 225.293 223.872L225.885 223.65L226.107 224.243C226.131 224.289 226.17 224.325 226.217 224.345C226.264 224.366 226.317 224.369 226.366 224.355C226.44 224.28 226.514 224.169 226.44 224.095L226.218 223.502Z" fill="white"/>
<path d="M236.763 222.537L237.355 222.315C237.401 222.291 237.437 222.252 237.457 222.205C237.477 222.158 237.48 222.105 237.466 222.055C237.458 222.03 237.445 222.006 237.427 221.986C237.409 221.966 237.387 221.95 237.362 221.94C237.338 221.929 237.311 221.924 237.284 221.925C237.257 221.926 237.231 221.932 237.207 221.944L236.615 222.167L236.393 221.573C236.364 221.534 236.323 221.506 236.276 221.492C236.229 221.479 236.18 221.481 236.134 221.499C236.091 221.516 236.056 221.548 236.036 221.589C236.015 221.63 236.011 221.678 236.023 221.722L236.282 222.315L235.69 222.537C235.664 222.546 235.641 222.559 235.621 222.577C235.601 222.595 235.585 222.617 235.575 222.642C235.564 222.666 235.559 222.693 235.56 222.72C235.561 222.747 235.567 222.773 235.579 222.797C235.616 222.871 235.727 222.945 235.801 222.908L236.393 222.686L236.615 223.279C236.644 223.318 236.685 223.347 236.732 223.36C236.779 223.374 236.829 223.371 236.874 223.353C236.898 223.351 236.922 223.342 236.942 223.328C236.962 223.313 236.979 223.294 236.99 223.272C237.001 223.25 237.006 223.226 237.005 223.201C237.005 223.176 236.998 223.152 236.985 223.131L236.763 222.537Z" fill="white"/>
<path d="M247.604 223.65L248.196 223.39C248.232 223.368 248.259 223.333 248.273 223.292C248.286 223.252 248.285 223.208 248.27 223.168C248.267 223.143 248.259 223.12 248.244 223.1C248.23 223.079 248.211 223.063 248.189 223.052C248.167 223.041 248.143 223.035 248.118 223.036C248.094 223.037 248.069 223.044 248.048 223.057L247.456 223.279L247.197 222.686C247.174 222.65 247.14 222.623 247.099 222.609C247.059 222.596 247.015 222.596 246.975 222.612C246.951 222.615 246.927 222.624 246.907 222.638C246.887 222.652 246.87 222.671 246.859 222.693C246.848 222.715 246.843 222.739 246.844 222.764C246.844 222.789 246.851 222.813 246.864 222.834L247.086 223.427L246.531 223.687C246.5 223.71 246.477 223.743 246.465 223.78C246.454 223.817 246.454 223.857 246.467 223.894C246.479 223.931 246.502 223.963 246.534 223.986C246.565 224.009 246.603 224.021 246.642 224.021L247.234 223.798L247.493 224.355C247.516 224.386 247.549 224.409 247.586 224.42C247.623 224.432 247.663 224.432 247.699 224.419C247.736 224.407 247.768 224.383 247.791 224.352C247.814 224.32 247.826 224.282 247.826 224.243L247.604 223.65Z" fill="white"/>
<path d="M256.484 200.25L257.076 199.991C257.15 199.954 257.224 199.842 257.15 199.768C257.147 199.743 257.139 199.72 257.125 199.7C257.11 199.68 257.091 199.663 257.069 199.652C257.047 199.641 257.023 199.636 256.998 199.637C256.974 199.637 256.949 199.644 256.928 199.657L256.336 199.88L256.114 199.286C256.085 199.247 256.044 199.218 255.997 199.205C255.95 199.192 255.901 199.194 255.855 199.212C255.831 199.215 255.807 199.224 255.787 199.238C255.767 199.252 255.75 199.271 255.739 199.293C255.728 199.315 255.723 199.34 255.724 199.364C255.725 199.389 255.732 199.413 255.744 199.435L256.003 200.028L255.411 200.287C255.382 200.287 255.353 200.294 255.327 200.307C255.301 200.321 255.278 200.34 255.261 200.364C255.244 200.388 255.233 200.416 255.228 200.445C255.224 200.474 255.226 200.504 255.236 200.531C255.245 200.559 255.261 200.584 255.282 200.605C255.303 200.626 255.328 200.641 255.356 200.65C255.384 200.658 255.414 200.66 255.442 200.655C255.471 200.65 255.499 200.639 255.522 200.621L256.114 200.399L256.373 200.955C256.373 200.984 256.38 201.013 256.393 201.039C256.407 201.065 256.426 201.088 256.45 201.105C256.474 201.122 256.501 201.134 256.53 201.138C256.559 201.143 256.589 201.14 256.616 201.131C256.645 201.121 256.67 201.105 256.69 201.085C256.711 201.064 256.726 201.038 256.735 201.01C256.743 200.982 256.745 200.952 256.74 200.923C256.736 200.894 256.724 200.867 256.706 200.844L256.484 200.25Z" fill="white"/>
<path d="M245.606 196.32L246.198 196.097C246.222 196.087 246.245 196.073 246.263 196.054C246.282 196.036 246.297 196.014 246.307 195.99C246.318 195.966 246.323 195.94 246.323 195.914C246.323 195.888 246.319 195.862 246.309 195.837C246.299 195.813 246.285 195.791 246.266 195.772C246.248 195.753 246.226 195.738 246.202 195.728C246.178 195.718 246.152 195.712 246.127 195.712C246.1 195.712 246.074 195.717 246.05 195.726L245.458 195.986L245.236 195.392C245.216 195.343 245.178 195.304 245.129 195.283C245.081 195.262 245.026 195.262 244.977 195.281C244.928 195.301 244.889 195.339 244.868 195.388C244.847 195.437 244.846 195.491 244.866 195.541L245.125 196.134L244.533 196.357C244.507 196.364 244.484 196.378 244.464 196.396C244.444 196.414 244.428 196.436 244.418 196.461C244.407 196.485 244.402 196.512 244.403 196.539C244.403 196.566 244.41 196.592 244.422 196.616C244.446 196.662 244.485 196.698 244.532 196.718C244.579 196.739 244.632 196.742 244.681 196.727L245.236 196.468L245.495 197.061C245.503 197.087 245.516 197.111 245.534 197.131C245.552 197.151 245.574 197.166 245.599 197.177C245.623 197.187 245.65 197.193 245.677 197.192C245.704 197.191 245.73 197.184 245.754 197.172C245.793 197.143 245.821 197.102 245.835 197.055C245.848 197.008 245.846 196.958 245.828 196.913L245.606 196.32Z" fill="white"/>
<path d="M254.153 204.404L254.745 204.144C254.819 204.107 254.893 203.996 254.856 203.922C254.848 203.896 254.835 203.872 254.817 203.852C254.799 203.832 254.777 203.817 254.752 203.806C254.728 203.795 254.701 203.79 254.674 203.791C254.647 203.792 254.621 203.798 254.597 203.81L254.005 204.033L253.783 203.44C253.754 203.4 253.713 203.372 253.666 203.358C253.619 203.345 253.57 203.348 253.524 203.365C253.45 203.402 253.376 203.514 253.413 203.588L253.672 204.181L253.08 204.441C253.056 204.443 253.032 204.452 253.012 204.466C252.992 204.48 252.975 204.5 252.964 204.522C252.953 204.544 252.948 204.568 252.949 204.593C252.949 204.618 252.956 204.642 252.969 204.663C252.977 204.689 252.99 204.713 253.008 204.732C253.026 204.752 253.048 204.768 253.073 204.779C253.097 204.789 253.124 204.795 253.151 204.794C253.178 204.793 253.204 204.786 253.228 204.775L253.82 204.552L254.042 205.108C254.05 205.134 254.063 205.158 254.081 205.177C254.099 205.197 254.121 205.213 254.146 205.224C254.17 205.234 254.197 205.24 254.224 205.239C254.251 205.238 254.277 205.231 254.301 205.22C254.337 205.197 254.364 205.162 254.378 205.121C254.391 205.081 254.39 205.037 254.375 204.997L254.153 204.404Z" fill="white"/>
<path d="M231.953 188.458L232.545 188.235C232.571 188.227 232.594 188.214 232.614 188.196C232.634 188.178 232.65 188.156 232.66 188.131C232.671 188.107 232.676 188.08 232.675 188.053C232.675 188.026 232.668 188 232.656 187.976C232.632 187.93 232.594 187.894 232.547 187.874C232.499 187.853 232.446 187.85 232.397 187.865L231.805 188.124L231.583 187.531C231.575 187.505 231.562 187.481 231.544 187.461C231.526 187.441 231.504 187.426 231.479 187.415C231.455 187.405 231.428 187.4 231.401 187.4C231.374 187.401 231.348 187.408 231.324 187.42C231.278 187.443 231.243 187.482 231.222 187.529C231.202 187.577 231.199 187.629 231.213 187.679L231.472 188.272L230.88 188.495C230.854 188.503 230.831 188.516 230.811 188.534C230.791 188.552 230.775 188.574 230.765 188.599C230.754 188.624 230.749 188.65 230.75 188.677C230.751 188.704 230.757 188.73 230.769 188.755C230.793 188.8 230.832 188.836 230.879 188.857C230.926 188.877 230.979 188.88 231.028 188.866L231.62 188.606L231.842 189.2C231.85 189.225 231.863 189.249 231.881 189.269C231.899 189.289 231.921 189.305 231.946 189.315C231.97 189.326 231.997 189.331 232.024 189.33C232.051 189.329 232.077 189.323 232.101 189.311C232.124 189.299 232.143 189.283 232.159 189.263C232.175 189.244 232.187 189.221 232.194 189.197C232.201 189.172 232.203 189.147 232.199 189.122C232.196 189.097 232.188 189.073 232.175 189.051L231.953 188.458Z" fill="white"/>
<path d="M244.348 163.723L244.977 163.464C245.03 163.447 245.074 163.41 245.101 163.362C245.128 163.315 245.137 163.258 245.125 163.204C245.095 163.155 245.05 163.118 244.996 163.098C244.943 163.078 244.884 163.076 244.829 163.093L244.2 163.352L243.941 162.685C243.917 162.639 243.879 162.603 243.831 162.583C243.784 162.563 243.732 162.559 243.682 162.574C243.634 162.604 243.596 162.649 243.576 162.703C243.556 162.757 243.554 162.815 243.571 162.87L243.83 163.501L243.164 163.76C243.118 163.784 243.083 163.823 243.062 163.87C243.042 163.918 243.039 163.97 243.053 164.02C243.065 164.047 243.082 164.071 243.104 164.091C243.125 164.112 243.15 164.127 243.178 164.138C243.205 164.148 243.235 164.153 243.264 164.152C243.293 164.15 243.322 164.143 243.349 164.131L243.978 163.872L244.237 164.539C244.261 164.585 244.3 164.621 244.347 164.641C244.394 164.661 244.447 164.664 244.496 164.65C244.523 164.638 244.547 164.621 244.567 164.6C244.587 164.578 244.603 164.553 244.614 164.525C244.624 164.498 244.628 164.468 244.627 164.439C244.626 164.409 244.62 164.38 244.607 164.354L244.348 163.723Z" fill="white"/>
<path opacity="0.15" d="M256.04 227.692L259.74 203.217L259 227.692H256.04Z" fill="black"/>
<path d="M268.953 209.743L275.095 209.855C275.408 209.858 275.714 209.946 275.981 210.109C276.248 210.272 276.466 210.505 276.612 210.782L277.315 212.005L274.466 212.71L268.953 209.743Z" fill="#F39494"/>
<path d="M285.603 217.345L277.315 211.783C276.597 211.333 275.809 211.008 274.984 210.819C274.984 210.819 266.807 209.298 266.696 209.224L254.819 203.81L255.485 215.899L260.924 217.827L279.276 224.02C279.448 224.099 279.645 224.108 279.824 224.046C280.002 223.983 280.151 223.855 280.238 223.687C280.284 223.606 280.315 223.518 280.326 223.426C280.339 223.334 280.332 223.24 280.308 223.15C280.284 223.061 280.243 222.977 280.186 222.903C280.13 222.83 280.059 222.768 279.979 222.722L273.726 219.237L280.978 223.242C281.074 223.299 281.181 223.337 281.292 223.351C281.403 223.366 281.517 223.357 281.624 223.326C281.732 223.294 281.832 223.241 281.918 223.169C282.004 223.097 282.075 223.008 282.125 222.908C282.216 222.738 282.254 222.545 282.234 222.353C282.214 222.161 282.138 221.98 282.014 221.832L282.643 222.315C282.824 222.441 283.045 222.497 283.263 222.469C283.483 222.442 283.683 222.334 283.827 222.166C283.904 222.082 283.964 221.983 284.002 221.875C284.04 221.767 284.056 221.653 284.049 221.538C284.042 221.424 284.012 221.313 283.961 221.21C283.911 221.108 283.84 221.017 283.753 220.942L276.575 214.379L284.752 218.792C284.847 218.844 284.951 218.876 285.058 218.887C285.165 218.898 285.273 218.888 285.377 218.857C285.48 218.826 285.576 218.775 285.659 218.706C285.743 218.638 285.812 218.553 285.862 218.458C285.973 218.275 286.008 218.057 285.959 217.849C285.911 217.641 285.783 217.46 285.603 217.345Z" fill="#F39494"/>
<g opacity="0.15">
<path opacity="0.15" d="M281.385 221.647C281.44 221.659 281.497 221.654 281.549 221.634C281.601 221.615 281.647 221.581 281.681 221.536C281.724 221.472 281.741 221.393 281.727 221.317C281.713 221.241 281.67 221.173 281.607 221.128L275.206 216.604C275.058 216.53 274.873 216.53 274.799 216.678C274.756 216.742 274.739 216.821 274.753 216.897C274.767 216.973 274.81 217.041 274.873 217.086L281.311 221.61L281.385 221.647Z" fill="black"/>
</g>
<g opacity="0.15">
<path opacity="0.15" d="M279.461 222.574C279.525 222.59 279.593 222.584 279.653 222.558C279.713 222.53 279.763 222.484 279.794 222.426C279.814 222.392 279.827 222.354 279.832 222.315C279.837 222.276 279.834 222.236 279.824 222.199C279.814 222.161 279.796 222.125 279.771 222.094C279.747 222.063 279.717 222.037 279.683 222.018L273.467 218.532C273.397 218.501 273.318 218.495 273.244 218.515C273.17 218.535 273.105 218.58 273.06 218.643C273.04 218.677 273.027 218.715 273.022 218.754C273.017 218.793 273.02 218.832 273.03 218.871C273.041 218.908 273.059 218.944 273.083 218.975C273.107 219.006 273.137 219.032 273.171 219.051L279.387 222.5L279.461 222.574Z" fill="black"/>
</g>
<path opacity="0.15" d="M279.868 223.205L263.033 217.012L255.67 215.454V216.196L261.22 218.05L278.906 224.02C279.276 224.206 280.053 223.872 279.868 223.205Z" fill="black"/>
<path opacity="0.15" d="M220.668 198.322L204.166 168.136L203.87 167.987C203.87 168.321 204.24 168.803 204.388 169.1C205.72 172.289 213.527 190.682 217.967 198.804C219.854 202.252 221.26 204.218 223.554 205.812C224.803 206.689 226.175 207.376 227.624 207.852L259.37 218.792V217.308L227.254 204.774C225.763 204.228 224.405 203.369 223.269 202.257C222.134 201.145 221.247 199.803 220.668 198.322Z" fill="black"/>
<path d="M234.21 192.351L222.037 169.211L203.87 167.987L221.593 199.879C222.814 202.772 226.995 204.218 229.918 205.293L258.297 217.049L258.667 205.33L234.21 192.351Z" fill="#4D61FC"/>
<path opacity="0.15" d="M235.986 192.314L222.407 169.582L234.062 192.463L259.037 205.701L235.986 192.314Z" fill="black"/>
<path d="M260.221 206.035L258.26 217.345L255.337 216.27L257.631 204.589L260.221 206.035Z" fill="#21252B"/>
<path d="M227.217 131.757L225.922 123.376C225.145 119.038 229.622 116.738 232.323 116.738H241.684C244.57 116.738 247.974 119 246.531 123.895L245.68 131.312L227.217 131.757Z" fill="#1A1A1A"/>
<path opacity="0.2" d="M249.158 151.411C248.27 152.524 245.976 155.379 244.57 156.863C243.867 157.604 242.609 157.567 241.758 156.751L239.353 154.452C238.317 153.451 236.652 153.562 236.06 154.712L234.321 157.901C233.84 158.865 232.508 159.199 231.361 158.605L222.111 153.228C221.559 152.898 221.07 152.471 220.668 151.968C220.52 152.895 221.112 153.859 222.111 154.341L231.361 159.681C232.508 160.237 233.84 159.903 234.358 158.939L236.06 155.713C236.689 154.563 238.354 154.452 239.39 155.453L241.795 157.753C242.609 158.531 243.904 158.568 244.607 157.827C245.976 156.306 248.418 153.303 249.343 152.19C249.565 151.856 249.75 151.263 249.491 150.929L249.158 151.411Z" fill="#231F20"/>
<path d="M226.625 145.626L223.147 146.924C222.74 147.073 221.26 147.592 221.149 148.482L220.89 150.225C220.742 151.152 220.668 152.709 220.668 152.709L231.361 158.976C232.508 159.533 233.84 159.199 234.358 158.235L236.06 155.045C236.652 153.896 238.354 153.785 239.39 154.786L241.758 157.085C242.609 157.901 243.867 157.938 244.57 157.196C245.976 155.676 249.565 151.04 249.565 151.04C249.565 151.04 247.049 147.073 245.717 146.331L240.463 144.885C236.171 143.661 231.324 143.883 226.625 145.626Z" fill="#21252B"/>
<path d="M243.793 128.086C243.793 128.086 228.549 118.481 228.031 130.2L227.809 133.277L226.736 148.593C226.736 149.149 230.806 151.893 230.806 151.893C231.892 152.528 233.094 152.938 234.342 153.098C235.589 153.258 236.855 153.167 238.066 152.828C239.277 152.489 240.408 151.91 241.392 151.125C242.376 150.34 243.192 149.366 243.793 148.259C243.864 148.159 243.914 148.045 243.941 147.925L242.868 139.359C243.083 138.46 243.195 137.539 243.201 136.615C243.349 132.128 243.793 128.086 243.793 128.086Z" fill="#FC9D9D"/>
<path d="M245.495 119.742C245.495 119.742 250.86 142.512 239.279 144.032C229.178 145.367 228.068 129.644 228.068 129.644L228.475 119.446L245.495 119.742Z" fill="#FC9D9D"/>
<path opacity="0.15" d="M227.698 133.945C227.698 133.945 228.697 134.019 229.215 133.574L227.587 136.096L227.698 133.945Z" fill="black"/>
<path d="M228.29 127.863C228.29 127.863 227.55 125.713 225.33 126.714C223.11 127.715 223.258 133.648 227.587 133.945C229.844 134.13 229.4 132.833 229.03 131.09L228.29 127.863Z" fill="#FC9D9D"/>
<path opacity="0.3" d="M225.145 128.308C225.316 128.174 225.512 128.075 225.722 128.018C225.932 127.96 226.151 127.946 226.366 127.975C226.773 128.102 227.125 128.363 227.365 128.716C227.617 129.227 227.768 129.781 227.809 130.348L227.883 130.867C227.883 131.052 227.809 131.164 227.661 131.164C227.513 131.164 227.365 131.09 227.365 130.941L227.291 130.422C227.263 129.963 227.123 129.517 226.884 129.124C226.662 128.828 226.477 128.605 226.292 128.605C226.143 128.565 225.986 128.564 225.837 128.604C225.688 128.642 225.551 128.72 225.441 128.827C225.293 128.865 225.145 128.865 225.071 128.716C224.997 128.568 225.071 128.345 225.145 128.308Z" fill="black"/>
<path opacity="0.15" d="M243.645 145.849L243.275 142.177C242.276 143.179 239.501 144.625 236.356 143.92C234.783 143.495 233.369 142.618 232.286 141.399C232.237 141.365 232.179 141.347 232.119 141.347C232.06 141.347 232.002 141.365 231.953 141.399C231.917 141.439 231.897 141.492 231.897 141.547C231.897 141.602 231.917 141.655 231.953 141.695C233.351 143.276 235.267 144.302 237.355 144.588C238.266 145.208 239.293 145.639 240.373 145.856C241.453 146.072 242.566 146.07 243.645 145.849Z" fill="black"/>
<g opacity="0.3">
<path opacity="0.3" d="M240.093 139.433L238.65 139.582C238.577 139.568 238.509 139.532 238.456 139.479C238.403 139.426 238.368 139.359 238.354 139.285C238.361 139.205 238.393 139.129 238.447 139.068C238.5 139.008 238.571 138.967 238.65 138.951L240.019 138.84C240.059 138.834 240.101 138.837 240.139 138.85C240.178 138.862 240.214 138.884 240.242 138.913C240.271 138.942 240.293 138.977 240.305 139.016C240.318 139.055 240.321 139.096 240.315 139.137C240.389 139.174 240.241 139.359 240.093 139.433Z" fill="black"/>
</g>
<g opacity="0.3">
<path opacity="0.3" d="M240.574 138.061C238.021 138.432 236.874 137.097 236.504 136.393C236.471 136.332 236.461 136.262 236.474 136.194C236.488 136.126 236.525 136.065 236.578 136.022C236.645 135.992 236.72 135.983 236.793 135.996C236.866 136.01 236.932 136.044 236.985 136.096C237.355 136.8 238.613 138.21 241.647 137.208C241.683 137.19 241.723 137.179 241.763 137.176C241.804 137.174 241.845 137.18 241.883 137.194C241.921 137.208 241.956 137.229 241.985 137.257C242.015 137.285 242.038 137.319 242.054 137.357C242.128 137.542 242.054 137.653 241.906 137.765C241.758 137.876 241.018 137.95 240.574 138.061Z" fill="black"/>
</g>
<path d="M236.504 131.312C237.015 131.312 237.429 130.897 237.429 130.385C237.429 129.873 237.015 129.458 236.504 129.458C235.993 129.458 235.579 129.873 235.579 130.385C235.579 130.897 235.993 131.312 236.504 131.312Z" fill="#21252B"/>
<path d="M236.874 130.311C236.997 130.311 237.096 130.211 237.096 130.088C237.096 129.966 236.997 129.866 236.874 129.866C236.752 129.866 236.652 129.966 236.652 130.088C236.652 130.211 236.752 130.311 236.874 130.311Z" fill="white"/>
<path d="M243.645 131.757C244.156 131.757 244.57 131.342 244.57 130.83C244.57 130.318 244.156 129.903 243.645 129.903C243.134 129.903 242.72 130.318 242.72 130.83C242.72 131.342 243.134 131.757 243.645 131.757Z" fill="#21252B"/>
<path d="M244.052 130.755C244.174 130.755 244.274 130.656 244.274 130.533C244.274 130.41 244.174 130.31 244.052 130.31C243.93 130.31 243.83 130.41 243.83 130.533C243.83 130.656 243.93 130.755 244.052 130.755Z" fill="white"/>
<g opacity="0.3">
<path opacity="0.3" d="M241.314 135.725L240.093 135.837C239.908 135.837 239.797 135.725 239.797 135.614C239.797 135.503 239.871 135.317 240.019 135.317L241.24 135.206C241.313 135.201 241.384 135.182 241.45 135.15C241.515 135.118 241.574 135.072 241.622 135.017C241.67 134.962 241.707 134.898 241.73 134.829C241.754 134.759 241.763 134.686 241.758 134.613C241.739 134.462 241.664 134.324 241.547 134.228C241.43 134.131 241.28 134.083 241.129 134.094C240.981 134.094 240.833 134.019 240.833 133.871C240.833 133.723 240.907 133.574 241.055 133.574C241.348 133.553 241.637 133.645 241.865 133.831C242.092 134.017 242.239 134.284 242.276 134.576C242.291 134.715 242.278 134.856 242.238 134.99C242.197 135.124 242.13 135.249 242.04 135.356C241.95 135.464 241.839 135.552 241.715 135.615C241.59 135.679 241.453 135.716 241.314 135.725Z" fill="black"/>
</g>
<path d="M247.049 112.956C243.756 110.62 237.207 112.251 233.655 113.883C233.729 112.845 233.063 112.956 233.063 112.956C226.81 114.625 228.438 119.594 228.438 119.594H228.512C227.846 121.003 226.995 124.044 227.809 129.532C227.809 129.532 230.066 124.971 230.103 121.411C232.878 122.672 240.87 124.452 245.865 122.783C246.346 125.787 246.679 129.532 246.679 129.532C247.11 126.941 247.097 124.295 246.642 121.708C246.951 121.491 247.237 121.243 247.493 120.966C247.493 120.966 251.748 116.293 247.049 112.956Z" fill="#1A1A1A"/>
<path opacity="0.19" d="M248.677 130.57C248.677 131.35 248.446 132.111 248.014 132.758C247.581 133.405 246.966 133.909 246.247 134.206C245.529 134.502 244.738 134.578 243.976 134.423C243.214 134.268 242.516 133.89 241.969 133.337C241.422 132.783 241.051 132.079 240.904 131.314C240.757 130.55 240.84 129.758 241.142 129.04C241.445 128.323 241.953 127.712 242.603 127.284C243.253 126.857 244.015 126.633 244.792 126.64C245.826 126.65 246.814 127.068 247.541 127.804C248.269 128.54 248.677 129.534 248.677 130.57Z" fill="white"/>
<path opacity="0.19" d="M239.094 130.57C239.094 131.35 238.863 132.111 238.431 132.758C237.998 133.405 237.383 133.909 236.664 134.206C235.946 134.502 235.155 134.578 234.393 134.423C233.632 134.268 232.933 133.89 232.386 133.337C231.839 132.783 231.468 132.079 231.321 131.314C231.174 130.55 231.257 129.758 231.559 129.04C231.862 128.323 232.37 127.712 233.02 127.284C233.67 126.857 234.432 126.633 235.209 126.64C236.243 126.65 237.231 127.068 237.959 127.804C238.686 128.54 239.094 129.534 239.094 130.57Z" fill="white"/>
<path d="M239.094 130.57C239.094 131.35 238.863 132.111 238.431 132.758C237.998 133.405 237.383 133.909 236.664 134.206C235.946 134.502 235.155 134.578 234.393 134.423C233.632 134.268 232.933 133.89 232.386 133.337C231.839 132.783 231.468 132.079 231.321 131.314C231.174 130.55 231.257 129.758 231.559 129.04C231.862 128.323 232.37 127.712 233.02 127.284C233.67 126.857 234.432 126.633 235.209 126.64C236.243 126.65 237.231 127.068 237.959 127.804C238.686 128.54 239.094 129.534 239.094 130.57Z" stroke="#1A1A1A" stroke-width="0.428208" stroke-linecap="round" stroke-linejoin="round"/>
<path d="M248.677 130.57C248.677 131.35 248.446 132.111 248.014 132.758C247.581 133.405 246.966 133.909 246.247 134.206C245.529 134.502 244.738 134.578 243.976 134.423C243.214 134.268 242.516 133.89 241.969 133.337C241.422 132.783 241.051 132.079 240.904 131.314C240.757 130.55 240.84 129.758 241.142 129.04C241.445 128.323 241.953 127.712 242.603 127.284C243.253 126.857 244.015 126.633 244.792 126.64C245.826 126.65 246.814 127.068 247.541 127.804C248.269 128.54 248.677 129.534 248.677 130.57Z" stroke="#1A1A1A" stroke-width="0.428208" stroke-linecap="round" stroke-linejoin="round"/>
<path d="M239.094 130.57C239.094 130.57 240.019 129.718 240.87 130.57" stroke="#1A1A1A" stroke-width="0.428208" stroke-linecap="round" stroke-linejoin="round"/>
<path d="M231.287 130.571L227.883 129.273" stroke="#1A1A1A" stroke-width="0.428208" stroke-miterlimit="10"/>
<path d="M250.342 365.938H262.7L262.996 373.021C263.036 373.941 263.283 374.838 263.719 375.647C264.154 376.455 264.768 377.156 265.512 377.694L274.577 384.183L251.933 383.627L250.342 365.938Z" fill="#FB9C9C"/>
<path opacity="0.15" d="M255.226 380.698L251.97 382.033L263.81 376.396C263.161 374.705 262.859 372.903 262.922 371.093H250.823V372.688L258.223 373.058C259 373.133 259.259 374.356 259.185 375.172V375.321C259.082 376.496 258.658 377.62 257.959 378.565C257.261 379.515 256.315 380.253 255.226 380.698Z" fill="black"/>
<path d="M211.122 365.901L223.184 365.864L221.297 383.145H211.122V365.901Z" fill="#FB9C9C"/>
<path opacity="0.15" d="M221.26 383.071L222.629 371.056L211.159 370.982L211.344 372.465L218.67 373.615C219.004 373.648 219.315 373.804 219.546 374.048C219.777 374.293 219.912 374.612 219.928 374.95L220.187 380.29L221.26 383.071Z" fill="black"/>
<path d="M210.419 229.694L259.037 230.473L263.625 371.056H250.342L238.095 255.764C238.058 255.407 237.89 255.076 237.624 254.836C237.357 254.596 237.011 254.464 236.652 254.466C236.287 254.455 235.932 254.582 235.657 254.823C235.383 255.064 235.209 255.4 235.172 255.764L223.665 371.056H210.419V229.694Z" fill="#3F4249"/>
<path d="M210.123 368.164H224.442L224.183 371.056H210.049L210.123 368.164Z" fill="#3F4249"/>
<path opacity="0.15" d="M219.04 368.164H224.442L224.183 371.056L218.633 370.982L219.04 368.164Z" fill="black"/>
<path d="M249.713 368.164H263.884L264.032 371.056H250.009L249.713 368.164Z" fill="#3F4249"/>
<path opacity="0.15" d="M263.884 368.163L262.182 368.126L262.33 371.056H264.032L263.884 368.163Z" fill="black"/>
<path opacity="0.2" d="M219.04 368.163L228.586 260.622C229.03 257.099 232.138 254.466 235.801 254.466H236.763C236.395 254.464 236.039 254.6 235.765 254.847C235.492 255.094 235.32 255.434 235.283 255.801L223.887 368.163H219.04Z" fill="black"/>
<path d="M255.67 233.069L262.552 368.126H263.884L259.148 233.069H255.67Z" fill="#32353A"/>
<path d="M210.049 389.486H222.407C222.683 389.486 222.952 389.401 223.177 389.241C223.403 389.082 223.573 388.856 223.665 388.596C223.697 388.841 223.709 389.089 223.702 389.338V389.746C223.697 389.913 223.66 390.076 223.592 390.224C223.524 390.376 223.428 390.513 223.308 390.625C223.187 390.74 223.046 390.829 222.891 390.888C222.737 390.947 222.572 390.973 222.407 390.97H210.049C209.884 390.973 209.719 390.947 209.565 390.888C209.41 390.829 209.269 390.74 209.148 390.625C209.028 390.513 208.932 390.376 208.864 390.224C208.796 390.076 208.759 389.913 208.754 389.746V389.597C208.748 389.275 208.76 388.952 208.791 388.633C208.879 388.893 209.05 389.119 209.277 389.271C209.504 389.427 209.775 389.501 210.049 389.486Z" fill="black"/>
<path d="M211.862 376.359L212.158 376.062C213.337 374.957 214.896 374.353 216.509 374.371C218.123 374.393 219.666 375.039 220.816 376.173L220.964 376.359C221.536 376.93 221.868 377.701 221.889 378.51V379.808C221.87 380.549 221.982 381.291 222.222 381.995L223.295 385.518C223.562 386.356 223.699 387.232 223.702 388.114V388.559C223.683 388.897 223.533 389.216 223.284 389.442C223.035 389.672 222.707 389.794 222.37 389.783H210.049C209.881 389.794 209.712 389.768 209.554 389.712C209.394 389.657 209.249 389.568 209.124 389.453C209 389.338 208.9 389.201 208.83 389.049C208.76 388.893 208.722 388.73 208.717 388.559V388.374C208.727 387.339 208.902 386.312 209.235 385.333L210.493 381.921C210.754 381.131 210.891 380.304 210.9 379.474V378.473C210.937 377.672 211.281 376.911 211.862 376.359Z" fill="#3F4249"/>
<path opacity="0.4" d="M219.891 379.177C220.157 379.177 220.372 378.962 220.372 378.695C220.372 378.428 220.157 378.213 219.891 378.213C219.625 378.213 219.41 378.428 219.41 378.695C219.41 378.962 219.625 379.177 219.891 379.177Z" fill="#231F20"/>
<path opacity="0.4" d="M219.669 381.031C219.935 381.031 220.15 380.816 220.15 380.549C220.15 380.282 219.935 380.067 219.669 380.067C219.403 380.067 219.188 380.282 219.188 380.549C219.188 380.816 219.403 381.031 219.669 381.031Z" fill="#231F20"/>
<path opacity="0.4" d="M219.521 382.403C219.787 382.403 220.002 382.188 220.002 381.921C220.002 381.654 219.787 381.439 219.521 381.439C219.255 381.439 219.04 381.654 219.04 381.921C219.04 382.188 219.255 382.403 219.521 382.403Z" fill="#231F20"/>
<path opacity="0.4" d="M219.743 384.591C220.009 384.591 220.224 384.376 220.224 384.109C220.224 383.842 220.009 383.627 219.743 383.627C219.477 383.627 219.262 383.842 219.262 384.109C219.262 384.376 219.477 384.591 219.743 384.591Z" fill="#231F20"/>
<path opacity="0.4" d="M219.743 386.482C220.009 386.482 220.224 386.267 220.224 386C220.224 385.733 220.009 385.518 219.743 385.518C219.477 385.518 219.262 385.733 219.262 386C219.262 386.267 219.477 386.482 219.743 386.482Z" fill="#231F20"/>
<path opacity="0.4" d="M213.934 386.89C214.2 386.89 214.415 386.675 214.415 386.408C214.415 386.141 214.2 385.926 213.934 385.926C213.668 385.926 213.453 386.141 213.453 386.408C213.453 386.675 213.668 386.89 213.934 386.89Z" fill="#231F20"/>
<path opacity="0.4" d="M213.86 385.11C214.126 385.11 214.341 384.895 214.341 384.628C214.341 384.361 214.126 384.146 213.86 384.146C213.594 384.146 213.379 384.361 213.379 384.628C213.379 384.895 213.594 385.11 213.86 385.11Z" fill="#231F20"/>
<path opacity="0.4" d="M213.786 382.774C214.052 382.774 214.267 382.559 214.267 382.292C214.267 382.025 214.052 381.81 213.786 381.81C213.52 381.81 213.305 382.025 213.305 382.292C213.305 382.559 213.52 382.774 213.786 382.774Z" fill="#231F20"/>
<path opacity="0.4" d="M213.934 380.549C214.2 380.549 214.415 380.334 214.415 380.067C214.415 379.8 214.2 379.585 213.934 379.585C213.668 379.585 213.453 379.8 213.453 380.067C213.453 380.334 213.668 380.549 213.934 380.549Z" fill="#231F20"/>
<path opacity="0.4" d="M214.008 378.806C214.274 378.806 214.489 378.591 214.489 378.324C214.489 378.057 214.274 377.842 214.008 377.842C213.742 377.842 213.527 378.057 213.527 378.324C213.527 378.591 213.742 378.806 214.008 378.806Z" fill="#231F20"/>
<path d="M219.743 378.584C219.743 378.584 217.634 376.359 214.008 378.213" stroke="white" stroke-miterlimit="10" stroke-linecap="round"/>
<path d="M219.669 380.438C219.669 380.438 217.56 378.176 213.934 380.067" stroke="white" stroke-miterlimit="10" stroke-linecap="round"/>
<path d="M219.521 381.847C218.966 381.439 216.228 380.549 213.786 382.255" stroke="white" stroke-miterlimit="10" stroke-linecap="round"/>
<path d="M219.558 384.072C219.558 384.072 217.19 382.144 213.86 384.48" stroke="white" stroke-miterlimit="10" stroke-linecap="round"/>
<path d="M219.743 385.926C219.743 385.926 217.375 383.961 214.045 386.334" stroke="white" stroke-miterlimit="10" stroke-linecap="round"/>
<path d="M250.527 389.597L283.605 389.672C283.671 389.516 283.721 389.356 283.753 389.19C283.827 389.583 283.839 389.979 283.79 390.376C283.781 390.673 283.663 390.955 283.457 391.166C283.252 391.381 282.975 391.507 282.68 391.526L251.6 391.452C251.299 391.441 251.012 391.318 250.799 391.103C250.586 390.892 250.462 390.602 250.453 390.302L250.527 389.597Z" fill="black"/>
<path d="M281.792 385.852C275.909 383.219 271.099 381.031 266.696 377.063C265.697 376.173 264.92 375.506 263.625 375.395L258.63 378.472C258.334 378.673 257.983 378.777 257.625 378.769C257.268 378.762 256.921 378.647 256.632 378.435L251.304 375.617C250.416 375.543 249.676 376.692 249.75 377.62L250.527 389.597L283.605 389.672C284.308 388.225 282.828 386.297 281.792 385.852Z" fill="#3F4249"/>
<path opacity="0.4" d="M276.02 386.445C276.367 386.445 276.649 386.178 276.649 385.852C276.649 385.526 276.367 385.259 276.02 385.259C275.673 385.259 275.391 385.526 275.391 385.852C275.391 386.178 275.673 386.445 276.02 386.445Z" fill="#231F20"/>
<path opacity="0.4" d="M272.394 385.444C272.741 385.444 273.023 385.177 273.023 384.851C273.023 384.524 272.741 384.257 272.394 384.257C272.047 384.257 271.765 384.524 271.765 384.851C271.765 385.177 272.047 385.444 272.394 385.444Z" fill="#231F20"/>
<path opacity="0.4" d="M269.36 383.367C269.707 383.367 269.989 383.1 269.989 382.774C269.989 382.448 269.707 382.181 269.36 382.181C269.013 382.181 268.731 382.448 268.731 382.774C268.731 383.1 269.013 383.367 269.36 383.367Z" fill="#231F20"/>
<path opacity="0.4" d="M266.474 381.217C266.821 381.217 267.103 380.95 267.103 380.623C267.103 380.297 266.821 380.03 266.474 380.03C266.127 380.03 265.845 380.297 265.845 380.623C265.845 380.95 266.127 381.217 266.474 381.217Z" fill="#231F20"/>
<path opacity="0.4" d="M263.884 378.621C264.231 378.621 264.513 378.354 264.513 378.027C264.513 377.701 264.231 377.434 263.884 377.434C263.537 377.434 263.255 377.701 263.255 378.027C263.255 378.354 263.537 378.621 263.884 378.621Z" fill="#231F20"/>
<path d="M277.167 384.443L276.76 385.555C276.732 385.63 276.689 385.696 276.634 385.752C276.579 385.808 276.514 385.856 276.441 385.885C276.369 385.915 276.291 385.934 276.212 385.934C276.134 385.934 276.056 385.919 275.983 385.889C275.909 385.86 275.843 385.819 275.787 385.763C275.731 385.707 275.688 385.641 275.66 385.567C275.632 385.492 275.62 385.415 275.625 385.337C275.629 385.255 275.65 385.181 275.687 385.11L276.279 384.035L277.167 384.443Z" fill="white"/>
<path d="M273.948 382.923L273.171 384.591C273.136 384.662 273.087 384.729 273.026 384.78C272.966 384.832 272.895 384.869 272.819 384.895C272.743 384.918 272.663 384.929 272.584 384.921C272.504 384.914 272.427 384.888 272.357 384.851C272.29 384.818 272.23 384.769 272.182 384.71C272.135 384.651 272.099 384.584 272.078 384.51C272.058 384.436 272.052 384.361 272.062 384.284C272.071 384.209 272.097 384.139 272.135 384.072L272.986 382.478L273.948 382.923Z" fill="white"/>
<path d="M271.247 381.217L270.211 382.626C270.16 382.693 270.097 382.748 270.025 382.789C269.952 382.83 269.873 382.856 269.79 382.867C269.707 382.878 269.624 382.871 269.544 382.848C269.463 382.826 269.388 382.789 269.323 382.737H269.286C269.196 382.637 269.141 382.511 269.128 382.377C269.115 382.244 269.144 382.11 269.212 381.995L270.211 380.66L271.247 381.217Z" fill="white"/>
<path d="M268.583 379.437L267.251 380.697C267.147 380.798 267.008 380.857 266.862 380.857C266.717 380.857 266.578 380.798 266.474 380.697C266.414 380.642 266.367 380.575 266.336 380.501C266.305 380.423 266.29 380.345 266.293 380.264C266.297 380.182 266.318 380.1 266.356 380.03C266.394 379.956 266.447 379.893 266.511 379.845L267.843 378.843L268.583 379.437Z" fill="white"/>
<path d="M265.993 377.1C265.993 377.137 265.216 377.731 264.698 378.139C264.581 378.224 264.439 378.261 264.295 378.246C264.153 378.235 264.019 378.168 263.921 378.065C263.875 378.001 263.843 377.927 263.827 377.849C263.811 377.772 263.811 377.69 263.829 377.616C263.847 377.538 263.88 377.464 263.928 377.401C263.976 377.338 264.036 377.286 264.106 377.249L265.66 376.507L265.993 377.1Z" fill="white"/>
<path d="M210.234 227.506H259.111L259.148 233.069H210.456L210.419 229.842L210.234 227.506Z" fill="#21252B"/>
<path d="M210.049 227.506H259.111L259.148 233.069H210.308L210.234 229.842L210.049 227.506Z" fill="#1A1A1A"/>
<path d="M243.83 227.506H233.47V233.054H243.83V227.506Z" fill="#61656D"/>
<path d="M243.238 227.506H233.988V233.054H243.238V227.506Z" fill="#DADDDF"/>
</svg>
