<svg width="592" height="445" viewBox="0 0 592 445" fill="none" xmlns="http://www.w3.org/2000/svg">
<path d="M516.675 375.157H77.7518L50.3644 205.779C49.3728 199.646 50.9601 193.375 54.7489 188.458L133.019 86.9011C137.118 81.5797 143.382 78.3831 150.087 78.1828L439.134 69.5647C448.17 69.2939 456.484 74.493 460.213 82.7478L539.996 259.283C542.065 263.859 542.542 268.995 541.354 273.875L516.675 375.157Z" fill="#F2F2F2"/>
<path d="M500.233 256.783H316.228V354.557H500.233V256.783Z" fill="white"/>
<path d="M495.774 350.081V261.252H320.694V350.081H495.774Z" fill="#F2F2F2"/>
<path d="M495.522 350.081V261.252H320.694V350.081H495.522Z" fill="#F2F2F2"/>
<path d="M511.34 354.557V256.783H500.236V354.557H511.34Z" fill="#E8E8E8"/>
<path d="M495.774 308.055V303.286H320.694V308.055H495.774Z" fill="white"/>
<path d="M360.724 264.504H351.404V303.286H360.724V264.504Z" fill="#E8E8E8"/>
<path d="M360.724 303.286H385.636V264.504H360.724V303.286Z" fill="white"/>
<path d="M368.997 268.939H363.747V303.283H368.997V268.939Z" fill="#E8E8E8"/>
<path d="M368.997 303.286H383.031V268.943H368.997V303.286Z" fill="white"/>
<path d="M384.97 303.286H377.193L372.708 270.92H380.486L384.97 303.286Z" fill="#E8E8E8"/>
<path d="M384.97 303.286H405.76L401.276 270.92H380.486L384.97 303.286Z" fill="white"/>
<path d="M353.709 350.085H345.932L341.447 317.722H349.224L353.709 350.085Z" fill="#E8E8E8"/>
<path d="M353.709 350.085H374.499L370.015 317.722H349.224L353.709 350.085Z" fill="white"/>
<path d="M465.401 350.089V340.028H417.626V350.089H465.401Z" fill="white"/>
<path d="M451.322 332.181V324.049H417.626V332.181H451.322Z" fill="white"/>
<path d="M459.303 340.024V332.181H417.63V340.024H459.303Z" fill="white"/>
<path d="M457.031 271.865H449.48V303.286H457.031V271.865Z" fill="#E8E8E8"/>
<path d="M457.031 303.286H477.215V271.865H457.031V303.286Z" fill="white"/>
<path d="M473.722 275.459H466.474V303.286H473.722V275.459Z" fill="#E8E8E8"/>
<path d="M473.722 303.286H486.117V275.459H473.722V303.286Z" fill="white"/>
<path d="M451.322 330.828H417.626V332.185H451.322V330.828Z" fill="#E8E8E8"/>
<path d="M459.299 338.671H417.626V340.028H459.299V338.671Z" fill="#E8E8E8"/>
<path d="M465.401 348.732H417.626V350.089H465.401V348.732Z" fill="#E8E8E8"/>
<path d="M508.683 354.557L510.397 373.615C510.53 374.308 510.001 374.968 509.309 374.968C508.846 374.968 508.421 374.672 508.254 374.208L503.278 354.557H508.683Z" fill="white"/>
<path d="M508.054 365.652L505.979 365.156L503.311 354.587H508.717L510.43 373.644C510.53 374.171 510.234 374.701 509.771 374.898L508.054 365.652Z" fill="#E8E8E8"/>
<path d="M489.273 354.557L490.986 373.615C491.119 374.308 490.59 374.968 489.899 374.968C489.436 374.968 489.01 374.672 488.844 374.208L483.868 354.557H489.273Z" fill="white"/>
<path d="M487.46 356.671L484.363 356.078L483.834 354.557H489.24L490.953 373.615C491.053 374.141 490.757 374.672 490.294 374.868L487.46 356.671Z" fill="#E8E8E8"/>
<path d="M345.332 354.557L343.619 373.615C343.486 374.308 344.015 374.968 344.707 374.968C345.169 374.968 345.595 374.672 345.761 374.208L350.738 354.557H345.332Z" fill="white"/>
<path d="M346.287 364.696L344.44 364.232L345.328 354.554H350.734L345.758 374.204C345.591 374.668 345.166 374.964 344.703 374.964C344.67 374.964 344.67 374.964 344.636 374.964L346.287 364.696Z" fill="#E8E8E8"/>
<path d="M325.393 354.557L323.68 373.615C323.546 374.308 324.076 374.968 324.767 374.968C325.23 374.968 325.655 374.672 325.822 374.208L330.799 354.557H325.393Z" fill="white"/>
<path d="M327.502 356.208L325.13 355.777L325.393 354.554H330.798L325.822 374.204C325.656 374.668 325.23 374.964 324.768 374.964C324.734 374.964 324.734 374.964 324.701 374.964L327.502 356.208Z" fill="#E8E8E8"/>
<path d="M229.293 204.445L238.561 176.298L223.021 173.973L214.789 202.353L215.514 204.671C217.652 211.52 227.376 211.357 229.293 204.445Z" fill="#F99A9A"/>
<path d="M207.718 171.967L196.903 156.31C196.688 155.88 196.821 155.361 197.21 155.079L197.251 155.049C197.706 154.719 198.235 154.738 198.646 155.316C199.737 156.844 202.538 160.2 202.538 160.2C202.538 160.2 199.141 154.916 198.231 153.021C198.039 152.617 198.142 152.138 198.483 151.849L198.486 151.845C198.956 151.449 199.667 151.575 199.97 152.109C201.199 154.271 204.11 158.517 204.11 158.517C202.112 154.467 200.581 152.183 200.17 151.015C200.026 150.603 200.174 150.147 200.529 149.891C201.01 149.55 201.68 149.706 201.961 150.221L205.753 157.215L207.085 154.156L212.783 155.405C213.335 155.546 213.649 156.132 213.453 156.67C213.305 157.085 212.891 157.349 212.45 157.304L209.202 156.981L208.769 159.9C208.735 160.119 208.776 160.345 208.88 160.541C208.88 160.541 210.452 162.281 211.477 162.399C212.036 162.385 212.225 161.958 212.228 161.398L212.232 160.801C212.154 156.381 214.94 157.389 214.94 157.389L215.214 162.143C215.214 162.143 216.898 165.844 215.011 168.322L228.708 194.291C230.858 198.366 229.304 203.417 225.234 205.572C222.666 206.933 219.643 206.825 217.22 205.442C215.999 204.745 215.129 203.558 214.807 202.19L209.324 178.82L207.718 171.967Z" fill="#F99A9A"/>
<path opacity="0.15" d="M206.257 158.105L205.757 157.215L207.089 154.16L206.257 158.105Z" fill="black"/>
<path opacity="0.15" d="M204.603 158.03L204.114 158.516L200.285 151.3C200.122 150.996 200.055 150.61 200.203 150.298L200.274 150.165L204.603 158.03Z" fill="black"/>
<path opacity="0.15" d="M202.542 160.2C202.542 160.2 199.115 154.797 198.179 152.876C198.068 152.647 198.202 152.25 198.202 152.25L203.034 159.707L202.542 160.2Z" fill="black"/>
<path opacity="0.15" d="M213.457 157.489C213.457 157.489 213.057 157.619 212.676 158.305C211.94 159.628 212.469 161.653 212.036 162.146C211.603 162.636 210.959 162.228 210.752 162.12C210.123 161.783 209.265 160.938 209.265 160.938L210.759 162.525C211.329 163.133 212.35 163.014 212.728 162.269C212.732 162.265 212.732 162.261 212.735 162.254C212.954 161.816 212.595 160.366 212.632 159.988C212.669 159.606 212.643 158.338 213.457 157.489Z" fill="black"/>
<path opacity="0.15" d="M228.649 195.581L221.208 180.069L222.47 175.864L229.374 195.281C229.433 195.448 229.374 195.637 229.226 195.737C229.026 195.874 228.756 195.8 228.649 195.581Z" fill="black"/>
<path d="M330.836 211.179L296.455 200.269C295.012 199.779 293.784 198.8 292.984 197.499L282.921 180.9L297.691 175.549L305.583 192.86L332.404 205.78" fill="#F99A9A"/>
<path opacity="0.15" d="M327.032 212.024L327.905 209.895C322.429 207.97 305.502 200.09 299.027 197.528C297.251 196.827 295.774 195.533 294.835 193.868L286.724 179.713L283.942 182.583L292.233 196.649C293.24 198.332 294.805 199.608 296.655 200.25L327.032 212.024Z" fill="black"/>
<path d="M268.583 135.102L268.476 149.668C268.476 150.021 268.368 150.377 268.157 150.658L268.368 151.211C264.842 156.48 257.22 157.2 252.351 153.169C251.859 152.746 251.611 152.108 251.715 151.471L254.36 133.934L268.583 135.102Z" fill="#F99A9A"/>
<path d="M252.814 127.889C252.814 127.889 249.92 147.054 260.469 147.829C270.77 148.608 271.088 129.232 271.088 129.232L271.369 123.68L258.105 121.348L254.752 123.08L252.814 127.889Z" fill="#F99A9A"/>
<path opacity="0.15" d="M252.566 146.242L253.343 140.972C254.294 144.365 256.269 147.195 259.729 147.762H259.692C259.94 147.799 260.184 147.833 260.432 147.87C263.185 148.081 265.475 146.809 267.207 144.087C267.277 143.98 267.417 143.946 267.525 144.017C267.632 144.087 267.665 144.228 267.595 144.336C265.76 147.236 263.325 148.578 260.399 148.367C259.762 148.33 259.163 148.189 258.6 148.014C256.728 148.218 254.575 147.759 252.566 146.242Z" fill="black"/>
<path d="M255.318 123.61C255.318 123.61 251.966 121.382 250.379 125.201C249.04 128.42 251.297 131.921 251.297 131.921L253.235 131.709C254.046 131.672 254.612 131.286 254.682 130.508L255.318 123.61Z" fill="#21252B"/>
<path d="M252.917 121.278C252.636 124.919 255.74 125.872 257.009 125.98L267.418 126.863C268.265 126.933 268.897 127.675 268.864 128.524L268.687 131.846C268.65 132.306 268.968 132.696 269.427 132.766L270.063 132.837L270.77 133.719C274.862 132.729 276.557 121.096 269.042 118.763C268.265 118.515 267.525 117.914 267.173 117.173C266.078 114.911 261.601 114.31 259.34 116.854C258.848 117.421 258.282 117.632 257.542 117.632C254.823 117.566 253.058 119.264 252.917 121.278Z" fill="#21252B"/>
<path d="M270.03 133.971C270.17 132.629 271.758 131.92 272.816 132.803L272.853 132.84C274.651 134.397 273.489 139.274 269.538 138.851L270.03 133.971Z" fill="#F99A9A"/>
<path d="M250.379 131.39L250.416 131.353C251.581 130.645 253.028 131.564 252.991 132.91L252.777 137.579C248.792 137.434 248.403 132.662 250.379 131.39Z" fill="#F99A9A"/>
<path d="M269.534 134.571C269.497 134.82 269.712 135.031 269.956 135.064C270.204 135.102 270.448 134.924 270.485 134.712L270.944 131.564L269.638 131.601L269.534 134.571Z" fill="#21252B"/>
<path d="M252.177 133.3C252.14 133.548 252.355 133.76 252.599 133.793C252.847 133.83 253.091 133.652 253.128 133.441L253.587 130.292L252.281 130.329L252.177 133.3Z" fill="#21252B"/>
<path d="M256.939 126.439C257.257 126.476 257.431 126.439 257.468 126.439C257.575 126.439 257.679 126.332 257.679 126.191C257.679 126.083 257.572 125.979 257.431 125.979C257.394 125.979 255.315 126.087 254.434 124.708C254.364 124.6 254.223 124.567 254.116 124.637C254.009 124.708 253.975 124.848 254.046 124.956C254.823 126.12 256.199 126.406 256.939 126.439Z" fill="#F99A9A"/>
<path d="M264.772 136.693C265.279 136.693 265.69 136.281 265.69 135.773C265.69 135.265 265.279 134.854 264.772 134.854C264.265 134.854 263.854 135.265 263.854 135.773C263.854 136.281 264.265 136.693 264.772 136.693Z" fill="#21252B"/>
<path d="M265.194 135.88C265.312 135.88 265.405 135.784 265.405 135.669C265.405 135.55 265.308 135.458 265.194 135.458C265.079 135.458 264.983 135.554 264.983 135.669C264.983 135.788 265.075 135.88 265.194 135.88Z" fill="white"/>
<path d="M257.716 136.163C258.223 136.163 258.634 135.751 258.634 135.243C258.634 134.735 258.223 134.324 257.716 134.324C257.209 134.324 256.799 134.735 256.799 135.243C256.799 135.751 257.209 136.163 257.716 136.163Z" fill="#21252B"/>
<path d="M258.138 135.383C258.256 135.383 258.349 135.287 258.349 135.172C258.349 135.057 258.253 134.961 258.138 134.961C258.023 134.961 257.927 135.057 257.927 135.172C257.927 135.291 258.019 135.383 258.138 135.383Z" fill="white"/>
<g opacity="0.45">
<path opacity="0.3" d="M260.783 140.123L260.043 140.052C259.903 140.052 259.796 139.911 259.796 139.77C259.796 139.63 259.936 139.522 260.077 139.522L260.817 139.592C261.135 139.63 261.383 139.381 261.416 139.062C261.449 138.743 261.205 138.495 260.887 138.461C260.746 138.461 260.639 138.321 260.639 138.18C260.639 138.039 260.78 137.931 260.92 137.931C261.52 137.968 261.978 138.499 261.908 139.099C261.916 139.733 261.386 140.16 260.783 140.123Z" fill="black"/>
</g>
<path d="M253.765 134.112L253.694 135.135C253.587 137.116 255.104 138.814 257.08 138.918C259.056 139.025 260.75 137.505 260.854 135.525L260.924 134.501C260.961 134.182 260.854 133.934 260.713 133.689L262.089 133.76C261.912 133.971 261.771 134.253 261.771 134.538L261.701 135.562C261.594 137.542 263.111 139.24 265.087 139.344C267.062 139.452 268.757 137.931 268.861 135.951L268.931 134.928C268.968 134.186 268.439 133.548 267.695 133.515L263.214 133.266H263.177L259.684 133.055L259.155 133.018L255.171 132.807C254.434 132.769 253.802 133.3 253.765 134.112ZM263.114 133.793H263.151L267.632 134.041C268.054 134.078 268.409 134.464 268.372 134.891L268.302 135.914C268.232 137.575 266.785 138.884 265.09 138.777C263.433 138.706 262.126 137.257 262.234 135.558L262.304 134.535C262.3 134.078 262.689 133.76 263.114 133.793ZM254.26 134.078C254.297 133.656 254.682 133.3 255.108 133.337L259.093 133.548L259.622 133.585C260.043 133.622 260.399 134.008 260.362 134.434L260.291 135.458C260.221 137.119 258.774 138.428 257.08 138.321C255.422 138.25 254.116 136.8 254.223 135.102L254.26 134.078Z" fill="#21252B"/>
<g opacity="0.45">
<path opacity="0.3" d="M271.014 136.519C271.154 136.519 271.262 136.411 271.295 136.271L271.365 135.703C271.436 135.102 271.613 134.68 271.858 134.465C272.068 134.287 272.279 134.324 272.279 134.324C272.42 134.361 272.561 134.253 272.598 134.112C272.635 133.971 272.527 133.83 272.387 133.793C272.35 133.793 271.965 133.723 271.539 134.005C271.151 134.287 270.903 134.854 270.833 135.596L270.762 136.163C270.77 136.341 270.873 136.482 271.014 136.519Z" fill="black"/>
</g>
<g opacity="0.45">
<path opacity="0.3" d="M251.615 135.069C251.474 135.069 251.367 134.928 251.367 134.787V134.219C251.404 133.619 251.297 133.196 251.049 132.947C250.871 132.736 250.66 132.736 250.627 132.736C250.486 132.736 250.379 132.629 250.346 132.488C250.346 132.347 250.453 132.239 250.594 132.206C250.631 132.206 251.052 132.206 251.371 132.558C251.722 132.91 251.863 133.478 251.829 134.257V134.824C251.896 134.961 251.789 135.069 251.615 135.069Z" fill="black"/>
</g>
<g opacity="0.45">
<path opacity="0.3" d="M259.059 143.045C259.048 143.075 259.081 143.086 259.059 143.045C259.866 143.379 260.239 143.538 260.239 143.538C260.399 143.59 260.524 143.527 260.609 143.375C260.661 143.216 260.606 143.056 260.447 143.004C260.447 143.004 260.073 142.849 259.3 142.522C259.141 142.47 258.982 142.526 258.941 142.652C258.878 142.845 258.93 143.004 259.059 143.045Z" fill="black"/>
</g>
<g opacity="0.45">
<path opacity="0.3" d="M258.985 141.747C261.05 142.775 262.422 141.918 262.959 141.458C263.063 141.351 263.074 141.213 262.977 141.076C262.87 140.972 262.733 140.961 262.596 141.058C262.089 141.529 260.602 142.419 258.267 140.702C258.149 140.627 258.001 140.65 257.897 140.757C257.823 140.876 257.846 141.024 257.953 141.128C258.327 141.391 258.678 141.614 258.985 141.747Z" fill="black"/>
</g>
<path d="M281.107 228.419L277.182 356.694H265.364L258.771 247.087C258.7 245.815 257.642 244.825 256.373 244.825C255.104 244.825 254.046 245.815 253.975 247.124L247.974 356.69H236.156L232.523 229.739L281.107 228.419Z" fill="#3F4249"/>
<path d="M275.95 364.118L276.268 353.794H266.248L266.707 364.433L275.95 364.118Z" fill="#F99A9A"/>
<path opacity="0.15" d="M266.356 356.69L266.674 364.433L269.071 364.362L269.001 359.801C269.001 359.059 269.493 358.422 270.2 358.244L276.198 356.686L266.356 356.69Z" fill="black"/>
<path d="M237.496 364.118L237.181 353.794H247.234L246.775 364.433L237.496 364.118Z" fill="#F99A9A"/>
<path d="M266.707 373.451V364.436C266.707 361.715 268.931 359.486 271.647 359.486H271.857C274.081 359.486 276.02 361.043 276.442 363.235C276.69 364.544 277.289 365.745 278.136 366.736L279.546 368.397C280.745 369.81 281.415 371.616 281.415 373.451H266.707Z" fill="#242830"/>
<path d="M275.21 364.292C275.28 364.292 275.35 364.255 275.387 364.184C275.424 364.077 275.424 363.973 275.317 363.936C272.424 362.308 269.885 363.936 269.885 363.936C269.815 364.006 269.778 364.114 269.848 364.184C269.919 364.255 270.026 364.292 270.096 364.221C270.133 364.221 272.461 362.701 275.139 364.221C275.139 364.292 275.173 364.292 275.21 364.292Z" fill="white"/>
<path d="M275.809 365.568C275.879 365.568 275.95 365.53 275.987 365.46C276.024 365.352 276.024 365.249 275.916 365.212C273.023 363.584 270.485 365.212 270.485 365.212C270.414 365.282 270.377 365.39 270.448 365.46C270.518 365.53 270.625 365.568 270.696 365.497C270.733 365.497 273.06 363.977 275.739 365.497C275.739 365.568 275.772 365.568 275.809 365.568Z" fill="white"/>
<path d="M276.442 366.91C276.512 366.91 276.582 366.873 276.619 366.803C276.656 366.695 276.656 366.591 276.549 366.554C273.656 364.926 271.118 366.554 271.118 366.554C271.047 366.625 271.01 366.732 271.081 366.803C271.151 366.873 271.258 366.91 271.328 366.84C271.365 366.84 273.693 365.319 276.371 366.84C276.408 366.91 276.442 366.91 276.442 366.91Z" fill="white"/>
<path opacity="0.5" d="M280.782 375.324H267.34C266.988 375.324 266.703 375.042 266.703 374.686V373.485H281.415V374.686C281.418 375.042 281.137 375.324 280.782 375.324Z" fill="black"/>
<path d="M277.43 356.69L277.537 352.589H264.839L265.083 356.69H277.43Z" fill="#4D61FC"/>
<path d="M264.839 352.589L265.083 356.69H277.43L277.537 352.589H264.839Z" fill="#21252B"/>
<path opacity="0.15" d="M256.369 244.82C257.638 244.82 258.697 245.81 258.767 247.082L265.116 352.588H268.89L267.373 251.821C267.303 247.931 264.161 244.82 260.284 244.82H256.369Z" fill="black"/>
<path opacity="0.2" d="M265.083 356.69L264.839 352.589H268.894L268.964 356.69H265.083Z" fill="black"/>
<path opacity="0.15" d="M237.285 356.69L237.496 364.114L241.695 364.255L241.625 359.234C241.625 358.774 241.906 358.314 242.365 358.173L247.093 356.653H237.285V356.69Z" fill="black"/>
<path opacity="0.15" d="M232.552 230.681L236.156 356.69H237.285L237.181 353.794H241.554L239.704 230.262L232.552 230.681Z" fill="black"/>
<path d="M246.775 373.451V364.436C246.775 361.715 244.551 359.486 241.836 359.486H241.625C239.401 359.486 237.462 361.043 237.041 363.235C236.793 364.544 236.193 365.745 235.346 366.736L233.936 368.397C232.737 369.81 232.068 371.616 232.068 373.451H246.775Z" fill="#242830"/>
<path d="M238.239 364.291C238.276 364.291 238.31 364.291 238.347 364.254C241.062 362.734 243.39 364.217 243.39 364.254C243.46 364.325 243.601 364.291 243.638 364.217C243.708 364.147 243.675 364.006 243.601 363.969C243.564 363.969 241.062 362.307 238.169 363.969C238.062 364.006 238.062 364.147 238.099 364.217C238.132 364.258 238.202 364.291 238.239 364.291Z" fill="white"/>
<path d="M237.673 365.568C237.71 365.568 237.743 365.568 237.78 365.531C240.496 364.01 242.824 365.494 242.824 365.531C242.894 365.601 243.035 365.568 243.072 365.494C243.142 365.423 243.108 365.282 243.034 365.245C242.997 365.245 240.496 363.584 237.603 365.245C237.496 365.282 237.496 365.423 237.533 365.494C237.533 365.531 237.603 365.568 237.673 365.568Z" fill="white"/>
<path d="M237.003 366.91C237.04 366.91 237.074 366.91 237.111 366.873C239.827 365.352 242.154 366.836 242.154 366.873C242.224 366.943 242.365 366.91 242.402 366.836C242.472 366.765 242.439 366.624 242.365 366.587C242.328 366.587 239.827 364.926 236.933 366.587C236.826 366.624 236.826 366.765 236.863 366.836C236.896 366.873 236.933 366.91 237.003 366.91Z" fill="white"/>
<path d="M232.7 375.324H246.142C246.494 375.324 246.779 375.042 246.779 374.686V373.485H232.034V374.686C232.031 375.042 232.345 375.324 232.7 375.324Z" fill="#3F4249"/>
<path opacity="0.5" d="M280.782 375.324H267.34C266.988 375.324 266.703 375.042 266.703 374.686V373.485H281.415V374.686C281.418 375.042 281.137 375.324 280.782 375.324Z" fill="black"/>
<path opacity="0.8" d="M280.782 375.324H267.34C266.988 375.324 266.703 375.042 266.703 374.686V373.485H281.415V374.686C281.418 375.042 281.137 375.324 280.782 375.324Z" fill="black"/>
<path opacity="0.8" d="M232.7 375.324H246.142C246.494 375.324 246.779 375.042 246.779 374.686V373.485H232.034V374.686C232.031 375.042 232.345 375.324 232.7 375.324Z" fill="black"/>
<path d="M248.503 352.589L248.255 356.69H235.908L235.838 352.589H248.503Z" fill="#21252B"/>
<path opacity="0.2" d="M241.555 352.589V356.69H235.908L235.838 352.589H241.555Z" fill="black"/>
<path d="M268.453 149.939L279.128 152.791C279.369 152.846 279.605 152.909 279.846 152.972C285.47 154.5 290.054 158.591 292.452 163.916L297.691 175.552L284.056 182.528L280.168 177.021" fill="white"/>
<path d="M229.814 202.857L230.617 228.088C230.658 229.479 231.757 230.61 233.144 230.677L280.208 229.861C281.637 229.931 282.869 228.86 282.994 227.432L281.141 175.378L295.893 177.93L303.252 166.23L291.434 157.945C288.345 155.78 284.893 154.189 281.244 153.243L268.457 149.935C268.457 149.935 266.145 155.631 260.099 155.387C252.14 155.068 252.003 149.602 252.003 149.602L237.159 152.127C231.431 153.102 226.843 157.422 225.519 163.096L221.293 179.795L236.245 183.881L238.924 175.248L229.814 202.857Z" fill="#4D61FC"/>
<path opacity="0.2" d="M283.942 182.583L280.208 177.017L280.519 169.634L287.364 180.833L283.942 182.583Z" fill="black"/>
<path d="M277.544 192.9L285.851 205.538L315.68 181.46" stroke="white" stroke-width="23" stroke-miterlimit="10" stroke-linecap="round" stroke-linejoin="round"/>
<path d="M411.248 122.809C411.248 108.825 400.71 97.303 387.116 95.8011V95.6194H384.123C369.153 95.6194 356.994 107.801 356.994 122.809C356.994 137.817 369.149 149.998 384.123 149.998L387.116 149.817C400.71 148.315 411.248 136.793 411.248 122.809Z" fill="#B0B4B9"/>
<path d="M381.936 149.998C396.917 149.998 409.065 137.824 409.065 122.809C409.065 107.794 396.917 95.6194 381.936 95.6194C366.955 95.6194 354.808 107.794 354.808 122.809C354.808 137.824 366.955 149.998 381.936 149.998Z" fill="#84888F"/>
<path d="M381.936 146.994C395.264 146.994 406.068 136.166 406.068 122.809C406.068 109.451 395.264 98.6228 381.936 98.6228C368.609 98.6228 357.805 109.451 357.805 122.809C357.805 136.166 368.609 146.994 381.936 146.994Z" fill="white"/>
<path d="M381.936 146.994C395.264 146.994 406.068 136.166 406.068 122.809C406.068 109.451 395.264 98.6228 381.936 98.6228C368.609 98.6228 357.805 109.451 357.805 122.809C357.805 136.166 368.609 146.994 381.936 146.994Z" fill="#84888F"/>
<path opacity="0.9" d="M381.936 146.994C395.264 146.994 406.068 136.166 406.068 122.809C406.068 109.451 395.264 98.6228 381.936 98.6228C368.609 98.6228 357.805 109.451 357.805 122.809C357.805 136.166 368.609 146.994 381.936 146.994Z" fill="white"/>
<path d="M381.944 98.619C382.362 98.619 382.783 98.619 383.261 98.6784C370.566 99.3384 360.447 109.903 360.447 122.805C360.447 135.706 370.566 146.271 383.261 146.931C382.843 146.931 382.421 146.991 381.944 146.991C368.59 146.991 357.812 136.188 357.812 122.805C357.812 109.425 368.59 98.619 381.944 98.619Z" fill="#B0B4B9"/>
<path d="M382.621 124.782L381.94 106.919C381.918 106.248 382.458 105.64 383.128 105.614C383.797 105.591 384.404 106.133 384.43 106.804L384.996 122.175L395.197 121.893C395.867 121.871 396.473 122.412 396.473 123.136C396.496 123.807 395.955 124.415 395.234 124.415L382.621 124.782Z" fill="#4D61FC"/>
<path opacity="0.7" fill-rule="evenodd" clip-rule="evenodd" d="M368.202 105.039L403.219 134.212C403.219 134.212 404.158 132.261 404.421 131.609C404.647 131.053 405.168 129.384 405.168 129.384L384.06 98.6676C384.06 98.6676 376.334 97.6552 368.202 105.039Z" fill="white"/>
<path opacity="0.7" fill-rule="evenodd" clip-rule="evenodd" d="M363.255 134.212L387.919 146.246C387.919 146.246 385.736 147.102 382.391 146.872C377.012 146.505 368.816 143.846 363.255 134.212Z" fill="white"/>
<path d="M116.657 274.491H91.4344C90.7203 274.491 90.1579 273.927 90.1579 273.212C90.1579 272.496 90.7203 271.932 91.4344 271.932H116.657V274.491Z" fill="#B0B4B9"/>
<path d="M120.15 273.249H94.7015V351.802H120.15V273.249Z" fill="#B0B4B9"/>
<path d="M197.214 273.249H119.362V351.802H197.214V273.249Z" fill="#D8DBDD"/>
<path d="M123.31 284.248L193.569 284.174V345.81H123.31V284.248ZM193.003 284.815H123.872V345.246H193.003V284.815Z" fill="#B0B4B9"/>
<path d="M200.107 274.491H116.617C115.902 274.491 115.34 273.927 115.34 273.212C115.34 272.496 115.902 271.932 116.617 271.932H200.107C200.821 271.932 201.384 272.496 201.384 273.212C201.347 273.927 200.784 274.491 200.107 274.491Z" fill="#D8DBDD"/>
<path d="M193.569 314.615H123.31V315.179H193.569V314.615Z" fill="#B0B4B9"/>
<path d="M161.464 294.082C162.545 294.082 163.418 293.207 163.418 292.124C163.418 291.041 162.545 290.166 161.464 290.166C160.384 290.166 159.511 291.041 159.511 292.124C159.511 293.207 160.384 294.082 161.464 294.082Z" fill="#B0B4B9"/>
<path opacity="0.15" d="M160.75 292.124C160.75 291.257 161.313 290.541 162.067 290.278C161.879 290.203 161.653 290.166 161.427 290.166C160.336 290.166 159.474 291.034 159.474 292.124C159.474 293.215 160.34 294.082 161.427 294.082C161.653 294.082 161.842 294.045 162.067 293.971C161.313 293.708 160.75 292.992 160.75 292.124Z" fill="black"/>
<path d="M161.464 324.409C162.545 324.409 163.418 323.534 163.418 322.451C163.418 321.368 162.545 320.493 161.464 320.493C160.384 320.493 159.511 321.368 159.511 322.451C159.511 323.534 160.384 324.409 161.464 324.409Z" fill="#B0B4B9"/>
<path opacity="0.15" d="M160.75 322.451C160.75 321.583 161.313 320.867 162.067 320.604C161.879 320.53 161.653 320.493 161.427 320.493C160.336 320.493 159.474 321.36 159.474 322.451C159.474 323.541 160.34 324.409 161.427 324.409C161.653 324.409 161.842 324.372 162.067 324.297C161.313 324.034 160.75 323.318 160.75 322.451Z" fill="black"/>
<path d="M115.34 277.127L119.362 274.49H197.214V275.696L115.34 277.127Z" fill="#B0B4B9"/>
<path d="M99.7002 351.802L97.7466 373.54C97.5949 374.33 98.198 375.087 98.9861 375.087C99.5115 375.087 99.9999 374.749 100.189 374.219L105.864 351.802H99.7002Z" fill="#D8DBDD"/>
<path d="M100.418 364.462L102.786 363.898L105.831 351.843H99.6669L97.7133 373.581C97.6023 374.186 97.939 374.786 98.4644 375.013L100.418 364.462Z" fill="#B0B4B9"/>
<path d="M121.845 351.802L119.891 373.54C119.739 374.33 120.342 375.087 121.131 375.087C121.656 375.087 122.144 374.749 122.333 374.219L128.009 351.802H121.845Z" fill="#D8DBDD"/>
<path d="M123.909 354.213L127.443 353.534L128.046 351.802H121.882L119.928 373.54C119.817 374.145 120.154 374.746 120.679 374.972L123.909 354.213Z" fill="#B0B4B9"/>
<path d="M170.637 351.802L172.59 373.54C172.742 374.33 172.139 375.087 171.351 375.087C170.825 375.087 170.337 374.749 170.148 374.219L164.472 351.802H170.637Z" fill="#D8DBDD"/>
<path d="M169.545 363.369L171.65 362.842L170.637 351.802H164.472L170.148 374.219C170.337 374.746 170.825 375.087 171.351 375.087C171.388 375.087 171.388 375.087 171.425 375.087L169.545 363.369Z" fill="#B0B4B9"/>
<path d="M193.381 351.802L195.334 373.54C195.486 374.33 194.883 375.087 194.095 375.087C193.569 375.087 193.081 374.749 192.892 374.219L187.216 351.802H193.381Z" fill="#D8DBDD"/>
<path d="M190.972 353.686L193.68 353.197L193.381 351.802H187.216L192.892 374.219C193.081 374.746 193.569 375.087 194.095 375.087C194.132 375.087 194.132 375.087 194.169 375.087L190.972 353.686Z" fill="#B0B4B9"/>
<path d="M143.393 263.192H130.78V271.928H143.393V263.192Z" fill="#D8DBDD"/>
<path d="M143.393 263.192H130.78H109.764V265.52V271.928H130.78V265.52H143.393V263.192Z" fill="#B0B4B9"/>
<path d="M159.259 271.928H151.367C150.165 271.928 149.188 270.949 149.188 269.744C149.188 268.539 150.165 267.56 151.367 267.56H159.263V271.928H159.259Z" fill="#B0B4B9"/>
<path d="M183.021 271.928H159.263V267.56H183.021C184.223 267.56 185.2 268.539 185.2 269.744C185.2 270.953 184.223 271.928 183.021 271.928Z" fill="#D8DBDD"/>
<path d="M167.44 268.632H156.758V267.564H167.44C167.736 267.564 167.973 267.805 167.973 268.098C167.976 268.391 167.736 268.632 167.44 268.632Z" fill="#B0B4B9"/>
<path d="M124.157 103.121H181.681C182.395 103.121 182.976 103.704 182.976 104.419V237.033C182.976 237.749 182.395 238.331 181.681 238.331H124.157C123.443 238.331 122.862 237.749 122.862 237.033V104.416C122.862 103.7 123.443 103.121 124.157 103.121Z" fill="#B0B4B9"/>
<path d="M126.766 103.121H184.29C185.004 103.121 185.585 103.704 185.585 104.419V237.033C185.585 237.749 185.004 238.331 184.29 238.331H126.766C126.052 238.331 125.471 237.749 125.471 237.033V104.416C125.471 103.7 126.048 103.121 126.766 103.121Z" fill="#D8DBDD"/>
<path d="M138.169 127.493H135.723V190.472H138.169V127.493Z" fill="#B0B4B9"/>
<path d="M180.357 136.819V134.368H129.689V136.819H180.357Z" fill="#B0B4B9"/>
<path d="M152.129 140.99H141.366V151.778H152.129V140.99Z" fill="#B0B4B9"/>
<path d="M168.339 154.797H157.576V165.585H168.339V154.797Z" fill="#B0B4B9"/>
<path d="M181.448 142.396H170.685V153.184H181.448V142.396Z" fill="#B0B4B9"/>
<path d="M177.693 171.095H166.929V181.883H177.693V171.095Z" fill="#B0B4B9"/>
<path d="M329.444 164.68C329.444 163.627 329.651 162.622 330.014 161.698C321.437 156.203 310.4 154.041 300.233 154.041C290.065 154.041 279.028 156.203 270.452 161.698C270.814 162.622 271.021 163.627 271.021 164.68C271.021 169.163 267.403 172.798 262.937 172.816C263.137 185.955 264.421 201.611 270.714 213.623C277.507 226.587 291.101 235.583 300.233 239.722C309.364 235.583 322.958 226.587 329.751 213.623C336.045 201.611 337.329 185.955 337.529 172.816C333.059 172.798 329.444 169.163 329.444 164.68Z" fill="#4D61FC"/>
<path opacity="0.5" d="M329.444 164.68C329.444 163.627 329.651 162.622 330.014 161.698C321.437 156.203 310.4 154.041 300.233 154.041C290.065 154.041 279.028 156.203 270.452 161.698C270.814 162.622 271.021 163.627 271.021 164.68C271.021 169.163 267.403 172.798 262.937 172.816C263.137 185.955 264.421 201.611 270.714 213.623C277.507 226.587 291.101 235.583 300.233 239.722C309.364 235.583 322.958 226.587 329.751 213.623C336.045 201.611 337.329 185.955 337.529 172.816C333.059 172.798 329.444 169.163 329.444 164.68Z" fill="white"/>
<path d="M300.229 232.939C291.556 228.508 281.322 220.727 276.109 210.778C270.936 200.914 269.545 187.842 269.153 177.466C273.785 175.178 277.012 170.431 277.112 164.947C283.461 161.835 291.512 160.144 300.229 160.144C308.946 160.144 316.997 161.832 323.347 164.947C323.45 170.431 326.673 175.178 331.305 177.466C330.913 187.838 329.518 200.91 324.349 210.778C319.136 220.727 308.902 228.508 300.229 232.939Z" fill="#4D61FC"/>
<path d="M300.229 232.939C291.556 228.508 281.322 220.727 276.109 210.778C270.936 200.914 269.545 187.842 269.153 177.466C273.785 175.178 277.012 170.431 277.112 164.947C283.461 161.835 291.512 160.144 300.229 160.144C308.946 160.144 316.997 161.832 323.347 164.947C323.45 170.431 326.673 175.178 331.305 177.466C330.913 187.838 329.518 200.91 324.349 210.778C319.136 220.727 308.902 228.508 300.229 232.939Z" fill="#4D61FC"/>
<path opacity="0.7" d="M300.229 230.617C292.111 226.468 282.528 219.184 277.648 209.869C272.808 200.632 271.502 188.398 271.136 178.686C275.476 176.542 278.492 172.1 278.588 166.964C284.534 164.049 292.071 162.469 300.229 162.469C308.388 162.469 315.928 164.049 321.87 166.964C321.967 172.096 324.986 176.542 329.322 178.686C328.956 188.398 327.65 200.635 322.81 209.869C317.93 219.184 308.351 226.468 300.229 230.617Z" fill="white"/>
<path d="M321.456 183.296L318.378 180.21C318.037 179.91 317.608 179.761 317.19 179.761H314.692L315.118 181.171L297.95 198.459L290.428 190.92C289.743 190.319 288.718 190.319 288.119 190.92L285.041 194.005C284.441 194.691 284.441 195.718 285.041 196.319L296.037 207.34L295.397 208.572H297.865C298.283 208.575 298.716 208.405 299.06 208.06L321.456 185.613C322.055 184.923 322.055 183.896 321.456 183.296Z" fill="#4D61FC"/>
<path opacity="0.5" d="M321.456 183.296L318.378 180.21C318.037 179.91 317.608 179.761 317.19 179.761H314.692L315.118 181.171L297.95 198.459L290.428 190.92C289.743 190.319 288.718 190.319 288.119 190.92L285.041 194.005C284.441 194.691 284.441 195.718 285.041 196.319L296.037 207.34L295.397 208.572H297.865C298.283 208.575 298.716 208.405 299.06 208.06L321.456 185.613C322.055 184.923 322.055 183.896 321.456 183.296Z" fill="white"/>
<path d="M331.309 177.478C331.309 177.474 331.309 177.47 331.309 177.47C331.191 177.411 331.076 177.344 330.958 177.281C331.072 177.348 331.191 177.411 331.309 177.478Z" fill="#FFD16E"/>
<path d="M294.335 208.052L282.624 196.315C282.025 195.714 282.025 194.687 282.624 194.001L285.703 190.916C286.302 190.315 287.327 190.315 288.012 190.916L295.534 198.455L313.653 180.206C314.252 179.605 315.277 179.605 315.961 180.206L319.04 183.291C319.639 183.892 319.639 184.919 319.04 185.605L296.644 208.052C295.959 208.738 294.934 208.738 294.335 208.052Z" fill="white"/>
<path d="M335.424 179.313C335.098 178.693 335.427 177.93 336.101 177.744L340.3 176.587C340.715 176.472 341.147 176.698 341.292 177.103L341.747 178.386C341.928 178.894 341.58 179.435 341.048 179.48L336.485 179.888C336.049 179.932 335.631 179.702 335.424 179.313Z" fill="#F99A9A"/>
<path d="M334.043 184.067C334.036 183.325 334.639 182.724 335.379 182.739L335.893 182.75C335.919 182.802 335.967 182.843 336.03 182.854L338.698 183.292C339.22 183.396 339.889 183.507 340.415 183.455L341.588 183.303C341.595 183.303 341.599 183.299 341.606 183.299C341.636 183.292 341.658 183.277 341.68 183.262C341.725 183.333 341.762 183.414 341.784 183.499L342.117 184.768C342.254 185.283 341.895 185.802 341.362 185.854L340.123 185.977C339.675 186.021 339.223 186.006 338.779 185.936L335.146 185.354C334.517 185.25 334.051 184.705 334.043 184.067Z" fill="#F99A9A"/>
<path d="M341.588 183.303L340.415 183.455C339.889 183.507 339.216 183.392 338.698 183.292L335.646 182.747L338.076 182.795L338.765 182.91C339.264 183.01 339.9 183.114 340.37 183.07L341.325 182.943C341.469 183.014 341.591 183.125 341.676 183.262C341.654 183.281 341.628 183.292 341.602 183.3C341.602 183.3 341.595 183.303 341.588 183.303Z" fill="#F99A9A"/>
<path d="M338.768 182.906L338.08 182.791L340.966 182.85C341.096 182.854 341.218 182.888 341.332 182.943L340.378 183.069C339.904 183.114 339.271 183.006 338.768 182.906Z" fill="#F99A9A"/>
<path d="M339.368 186.418L335.024 185.72C335.179 185.542 335.409 185.431 335.66 185.427L339.408 186.028L340.611 185.921C340.755 186.01 340.866 186.132 340.94 186.284L339.419 186.418C339.401 186.421 339.386 186.421 339.368 186.418Z" fill="#F99A9A"/>
<path d="M334.809 186.221C334.824 186.028 334.905 185.854 335.024 185.721L339.368 186.418C339.383 186.422 339.401 186.422 339.416 186.418L340.937 186.284C341.003 186.425 341.04 186.585 341.022 186.752L340.929 187.619C340.874 188.153 340.348 188.509 339.834 188.365L335.442 187.126C335.042 187.015 334.776 186.637 334.809 186.221Z" fill="#F99A9A"/>
<path opacity="0.15" d="M341.588 183.303L340.415 183.455C339.889 183.507 339.216 183.392 338.698 183.292L335.646 182.747L338.076 182.795L338.765 182.91C339.264 183.01 339.9 183.114 340.37 183.07L341.325 182.943C341.469 183.014 341.591 183.125 341.676 183.262C341.654 183.281 341.628 183.292 341.602 183.3C341.602 183.3 341.595 183.303 341.588 183.303Z" fill="black"/>
<path opacity="0.15" d="M339.368 186.418L335.024 185.72C335.179 185.542 335.409 185.431 335.66 185.427L339.408 186.028L340.611 185.921C340.755 186.01 340.866 186.132 340.94 186.284L339.419 186.418C339.401 186.421 339.386 186.421 339.368 186.418Z" fill="black"/>
<path d="M335.435 180.006C335.383 179.988 335.346 179.951 335.324 179.906C335.475 179.817 335.653 179.761 335.845 179.754L336.726 179.91L337.151 179.869C337.192 179.865 337.233 179.869 337.273 179.865L341.133 179.517C341.377 179.539 341.599 179.665 341.743 179.854L337.307 180.255C336.678 180.307 336.03 180.221 335.435 180.006Z" fill="#F99A9A"/>
<path d="M337.155 179.869L339.186 179.684L341.022 179.513C341.062 179.513 341.099 179.513 341.136 179.517L337.277 179.865C337.236 179.869 337.196 179.869 337.155 179.869Z" fill="#F99A9A"/>
<path d="M335.324 179.906C335.346 179.951 335.383 179.988 335.435 180.006C336.03 180.221 336.678 180.307 337.311 180.255L341.747 179.854C341.821 179.951 341.88 180.066 341.906 180.192L342.269 181.845C342.376 182.342 342.039 182.824 341.54 182.891L340.507 183.032C340 183.103 339.486 183.069 338.99 182.939L336.189 182.48C335.557 182.376 335.028 181.934 334.813 181.326C334.598 180.77 334.85 180.177 335.324 179.906Z" fill="#F99A9A"/>
<path opacity="0.15" d="M335.435 180.006C335.383 179.988 335.346 179.951 335.324 179.906C335.475 179.817 335.653 179.761 335.845 179.754L336.726 179.91L337.151 179.869C337.192 179.865 337.233 179.869 337.273 179.865L341.133 179.517C341.377 179.539 341.599 179.665 341.743 179.854L337.307 180.255C336.678 180.307 336.03 180.221 335.435 180.006Z" fill="black"/>
<path d="M425.6 294.69H416.931L428.915 374.938H433.773L425.6 294.69Z" fill="#B0B4B9"/>
<path d="M433.773 374.938H430.306L422.377 309.546L419.158 309.575L418.873 307.666L420.99 298.469C420.864 297.549 420.135 296.819 419.214 296.752L417.186 296.563L416.931 294.72H425.596L433.773 374.938Z" fill="#84888F"/>
<path d="M458.286 294.69H449.62L460.761 374.938H465.623L458.286 294.69Z" fill="#B0B4B9"/>
<path d="M377.074 374.938H382.051L393.24 294.69H384.452L377.074 374.938Z" fill="#B0B4B9"/>
<path d="M465.623 374.938H462.123L455.866 327.22C455.866 327.22 455.866 327.22 453.931 326.107L449.872 296.533L449.617 294.69H458.315L465.623 374.938Z" fill="#84888F"/>
<path d="M378.902 374.938L384.989 327.602C382.802 326.077 382.802 326.077 382.802 326.077L384.785 308.322L383.202 308.3L383.376 306.412H385L386.313 294.664H393.24L382.055 374.942H378.902V374.938Z" fill="#84888F"/>
<path d="M459.418 221.584H416.835C413.838 221.584 411.407 224.02 411.407 227.024V302.585C411.407 305.588 413.838 308.025 416.835 308.025H459.418V221.584Z" fill="#B0B4B9"/>
<path d="M459.329 299.726H381.936C379.642 299.726 377.781 301.591 377.781 303.891C377.781 306.19 379.642 308.055 381.936 308.055H459.329V299.726Z" fill="#B0B4B9"/>
<path d="M464.905 299.726H424.15C421.856 299.726 419.994 301.591 419.994 303.891C419.994 306.19 421.856 308.055 424.15 308.055H464.905V299.726Z" fill="#84888F"/>
<path d="M460.75 221.584C458.456 221.584 456.595 223.449 456.595 225.748V305.603C456.595 306.92 457.66 307.988 458.974 307.988H462.522C463.836 307.988 464.901 306.92 464.901 305.603V225.748C464.905 223.449 463.044 221.584 460.75 221.584Z" fill="#84888F"/>
<path d="M381.078 277.09L387.357 233.743C388.015 229.275 391.312 225.659 395.674 224.621L412.465 220.627L429.381 220.783L445.01 224.524C450.564 225.845 454.175 231.225 453.328 236.888L451.507 248.903L448.433 255.571C448.277 255.949 448.181 256.327 448.089 256.702L445.232 272.336C444.729 275.102 442.313 276.652 439.519 276.652L381.078 277.09Z" fill="#21252B"/>
<path d="M449.494 231.203C449.424 231.203 449.358 231.178 449.302 231.126L447.582 229.509C447.467 229.401 447.463 229.223 447.571 229.108C447.678 228.993 447.855 228.99 447.97 229.097L449.691 230.714C449.805 230.822 449.809 230.999 449.702 231.114C449.646 231.174 449.572 231.203 449.494 231.203Z" fill="white"/>
<path d="M447.829 231.259C447.759 231.259 447.693 231.233 447.637 231.181C447.522 231.074 447.519 230.896 447.626 230.781L449.239 229.056C449.347 228.941 449.524 228.938 449.639 229.045C449.753 229.153 449.757 229.331 449.65 229.446L448.037 231.17C447.981 231.229 447.903 231.259 447.829 231.259Z" fill="white"/>
<path d="M429.337 238.706C429.267 238.706 429.2 238.68 429.144 238.628L427.424 237.011C427.309 236.904 427.306 236.726 427.413 236.611C427.52 236.496 427.698 236.492 427.812 236.599L429.533 238.216C429.648 238.324 429.651 238.502 429.544 238.617C429.489 238.676 429.415 238.706 429.337 238.706Z" fill="white"/>
<path d="M427.672 238.757C427.602 238.757 427.535 238.731 427.479 238.679C427.365 238.572 427.361 238.394 427.468 238.279L429.082 236.555C429.189 236.44 429.367 236.436 429.481 236.543C429.596 236.651 429.6 236.829 429.492 236.944L427.879 238.668C427.824 238.728 427.746 238.757 427.672 238.757Z" fill="white"/>
<path d="M412.165 231.222C411.022 231.222 410.09 230.288 410.09 229.142C410.09 227.996 411.022 227.062 412.165 227.062C413.308 227.062 414.241 227.996 414.241 229.142C414.241 230.288 413.308 231.222 412.165 231.222ZM412.165 227.625C411.333 227.625 410.652 228.304 410.652 229.142C410.652 229.98 411.329 230.659 412.165 230.659C413.001 230.659 413.679 229.98 413.679 229.142C413.679 228.304 412.998 227.625 412.165 227.625Z" fill="white"/>
<path d="M417.649 261.218C417.493 261.218 417.367 261.092 417.367 260.937C417.367 260.102 416.69 259.42 415.854 259.42C415.022 259.42 414.341 260.098 414.341 260.937C414.341 261.092 414.215 261.218 414.06 261.218C413.904 261.218 413.778 261.092 413.778 260.937C413.778 259.791 414.711 258.856 415.854 258.856C416.997 258.856 417.93 259.791 417.93 260.937C417.93 261.089 417.804 261.218 417.649 261.218Z" fill="white"/>
<path d="M392.211 233.444C392.056 233.444 391.93 233.318 391.93 233.162C391.93 232.327 391.256 231.645 390.428 231.645C389.599 231.645 388.926 232.324 388.926 233.162C388.926 233.318 388.8 233.444 388.644 233.444C388.489 233.444 388.363 233.318 388.363 233.162C388.363 232.016 389.292 231.081 390.431 231.081C391.571 231.081 392.5 232.016 392.5 233.162C392.492 233.318 392.367 233.444 392.211 233.444Z" fill="white"/>
<path d="M389.765 261.218C388.622 261.218 387.69 260.284 387.69 259.138C387.69 257.992 388.622 257.058 389.765 257.058C390.909 257.058 391.841 257.992 391.841 259.138C391.837 260.288 390.909 261.218 389.765 261.218ZM389.765 257.625C388.933 257.625 388.252 258.304 388.252 259.142C388.252 259.976 388.929 260.658 389.765 260.658C390.598 260.658 391.279 259.98 391.279 259.142C391.275 258.304 390.598 257.625 389.765 257.625Z" fill="white"/>
<path d="M406.815 245.518C406.66 245.518 406.534 245.392 406.534 245.236C406.534 244.539 407.056 244.257 407.437 244.053C407.777 243.868 407.918 243.775 407.918 243.597C407.918 243.441 408.043 243.315 408.199 243.315C408.354 243.315 408.48 243.441 408.48 243.597C408.48 244.131 408.051 244.365 407.703 244.55C407.315 244.758 407.096 244.895 407.096 245.236C407.096 245.392 406.97 245.518 406.815 245.518Z" fill="white"/>
<path d="M406.815 242.232C406.66 242.232 406.534 242.106 406.534 241.95C406.534 241.253 407.056 240.971 407.437 240.767C407.777 240.582 407.918 240.489 407.918 240.311C407.918 240.155 408.043 240.029 408.199 240.029C408.354 240.029 408.48 240.155 408.48 240.311C408.48 240.845 408.051 241.078 407.703 241.264C407.315 241.471 407.096 241.609 407.096 241.95C407.096 242.106 406.97 242.232 406.815 242.232Z" fill="white"/>
<path d="M408.195 243.874C408.04 243.874 407.914 243.748 407.914 243.593C407.914 243.411 407.773 243.318 407.433 243.136C407.052 242.929 406.53 242.647 406.53 241.953C406.53 241.798 406.656 241.672 406.811 241.672C406.967 241.672 407.092 241.798 407.092 241.953C407.092 242.295 407.322 242.439 407.699 242.64C408.043 242.825 408.476 243.059 408.476 243.593C408.476 243.748 408.35 243.874 408.195 243.874Z" fill="white"/>
<path d="M408.195 240.589C408.04 240.589 407.914 240.463 407.914 240.307C407.914 240.126 407.773 240.033 407.433 239.851C407.052 239.644 406.53 239.362 406.53 238.668C406.53 238.513 406.656 238.386 406.811 238.386C406.967 238.386 407.092 238.513 407.092 238.668C407.092 239.009 407.322 239.154 407.699 239.354C408.043 239.54 408.476 239.773 408.476 240.307C408.476 240.463 408.35 240.589 408.195 240.589Z" fill="white"/>
<path d="M393.998 245.847H389.954C389.799 245.847 389.673 245.721 389.673 245.565C389.673 245.41 389.799 245.284 389.954 245.284H393.998C394.154 245.284 394.279 245.41 394.279 245.565C394.279 245.721 394.154 245.847 393.998 245.847Z" fill="white"/>
<path d="M430.251 227.08H426.207C426.051 227.08 425.926 226.954 425.926 226.798C425.926 226.642 426.051 226.516 426.207 226.516H430.251C430.406 226.516 430.532 226.642 430.532 226.798C430.536 226.954 430.406 227.08 430.251 227.08Z" fill="white"/>
<path d="M445.054 241.672C444.984 241.672 444.91 241.646 444.855 241.59C444.744 241.479 444.744 241.301 444.855 241.19L447.715 238.323C447.826 238.212 448.003 238.212 448.114 238.323C448.225 238.435 448.225 238.613 448.114 238.724L445.254 241.59C445.199 241.642 445.125 241.672 445.054 241.672Z" fill="white"/>
<path d="M414.737 232.505C413.716 232.505 412.887 231.674 412.887 230.651C412.887 229.627 413.716 228.797 414.737 228.797C415.758 228.797 416.587 229.627 416.587 230.651C416.587 231.674 415.758 232.505 414.737 232.505ZM414.737 228.908C413.778 228.908 412.998 229.69 412.998 230.651C412.998 231.611 413.778 232.394 414.737 232.394C415.695 232.394 416.476 231.611 416.476 230.651C416.476 229.69 415.695 228.908 414.737 228.908Z" fill="white"/>
<path d="M420.276 262.443H420.165C420.165 261.482 419.384 260.7 418.426 260.7C417.467 260.7 416.687 261.482 416.687 262.443H416.576C416.576 261.419 417.404 260.589 418.426 260.589C419.447 260.589 420.276 261.423 420.276 262.443Z" fill="white"/>
<path d="M394.838 234.671H394.727C394.727 233.71 393.95 232.928 392.999 232.928C392.045 232.928 391.271 233.71 391.271 234.671H391.16C391.16 233.647 391.985 232.817 393.003 232.817C394.013 232.817 394.838 233.647 394.838 234.671Z" fill="white"/>
<path d="M392.337 262.501C391.316 262.501 390.487 261.671 390.487 260.647C390.487 259.624 391.316 258.793 392.337 258.793C393.358 258.793 394.187 259.624 394.187 260.647C394.187 261.671 393.354 262.501 392.337 262.501ZM392.337 258.908C391.379 258.908 390.598 259.691 390.598 260.651C390.598 261.611 391.379 262.394 392.337 262.394C393.295 262.394 394.076 261.611 394.076 260.651C394.072 259.687 393.295 258.908 392.337 258.908Z" fill="white"/>
<path d="M409.442 246.745H409.331C409.331 246.181 409.745 245.959 410.115 245.758C410.437 245.584 410.715 245.436 410.715 245.102H410.826C410.826 245.502 410.493 245.684 410.167 245.858C409.808 246.048 409.442 246.248 409.442 246.745Z" fill="white"/>
<path d="M409.442 243.459H409.331C409.331 242.896 409.745 242.673 410.115 242.473C410.437 242.299 410.715 242.15 410.715 241.817H410.826C410.826 242.217 410.493 242.399 410.167 242.573C409.808 242.766 409.442 242.963 409.442 243.459Z" fill="white"/>
<path d="M410.822 245.102H410.711C410.711 244.769 410.434 244.62 410.112 244.446C409.745 244.246 409.327 244.023 409.327 243.459H409.438C409.438 243.953 409.805 244.153 410.164 244.345C410.489 244.52 410.822 244.702 410.822 245.102Z" fill="white"/>
<path d="M410.822 241.817H410.711C410.711 241.483 410.434 241.335 410.112 241.16C409.745 240.96 409.327 240.738 409.327 240.174H409.438C409.438 240.667 409.805 240.867 410.164 241.06C410.489 241.235 410.822 241.416 410.822 241.817Z" fill="white"/>
<path d="M396.573 247.019H392.529V247.13H396.573V247.019Z" fill="white"/>
<path d="M432.826 228.248H428.782V228.359H432.826V228.248Z" fill="white"/>
<path d="M450.442 239.992L447.582 242.859L447.659 242.937L450.519 240.07L450.442 239.992Z" fill="white"/>
<path d="M422.499 249.779C422.425 249.779 422.351 249.771 422.277 249.753C422.018 249.693 421.8 249.537 421.659 249.315C421.519 249.092 421.474 248.825 421.534 248.57C421.593 248.31 421.748 248.091 421.97 247.95C422.192 247.809 422.459 247.765 422.714 247.824C422.973 247.884 423.191 248.039 423.332 248.262C423.472 248.484 423.517 248.751 423.458 249.007C423.398 249.267 423.243 249.486 423.021 249.626C422.866 249.727 422.684 249.779 422.499 249.779ZM422.496 248.362C422.418 248.362 422.34 248.384 422.27 248.429C422.174 248.488 422.107 248.584 422.081 248.696C422.055 248.807 422.074 248.922 422.137 249.018C422.196 249.115 422.292 249.181 422.403 249.207C422.514 249.233 422.629 249.215 422.725 249.152C422.821 249.092 422.888 248.996 422.914 248.885C422.94 248.774 422.921 248.659 422.858 248.562C422.799 248.466 422.703 248.399 422.592 248.373C422.562 248.366 422.529 248.362 422.496 248.362Z" fill="white"/>
<path d="M406.534 253.824C406.46 253.824 406.386 253.817 406.312 253.798C406.053 253.739 405.834 253.583 405.694 253.361C405.405 252.897 405.542 252.285 406.005 251.996C406.227 251.855 406.493 251.811 406.748 251.87C407.007 251.929 407.226 252.085 407.366 252.308C407.507 252.53 407.551 252.797 407.492 253.053C407.433 253.313 407.278 253.531 407.056 253.672C406.896 253.772 406.719 253.824 406.534 253.824ZM406.53 252.408C406.452 252.408 406.375 252.43 406.304 252.474C406.108 252.601 406.045 252.864 406.171 253.06C406.23 253.157 406.327 253.224 406.438 253.249C406.549 253.275 406.663 253.257 406.759 253.194C406.856 253.135 406.922 253.038 406.948 252.927C406.974 252.816 406.956 252.701 406.893 252.604C406.833 252.508 406.737 252.441 406.626 252.415C406.593 252.411 406.563 252.408 406.53 252.408Z" fill="white"/>
<path d="M402.66 231.2C402.586 231.2 402.512 231.192 402.438 231.174C402.179 231.114 401.961 230.959 401.82 230.736C401.679 230.514 401.635 230.247 401.694 229.991C401.753 229.731 401.909 229.512 402.131 229.372C402.353 229.231 402.619 229.186 402.874 229.245C403.133 229.305 403.352 229.461 403.492 229.683C403.633 229.906 403.677 230.173 403.618 230.428C403.559 230.688 403.404 230.907 403.182 231.048C403.022 231.148 402.841 231.2 402.66 231.2ZM402.656 229.783C402.578 229.783 402.501 229.805 402.43 229.85C402.334 229.909 402.268 230.006 402.242 230.117C402.216 230.228 402.234 230.343 402.297 230.44C402.356 230.536 402.453 230.603 402.564 230.629C402.675 230.655 402.789 230.636 402.886 230.573C402.982 230.514 403.048 230.417 403.074 230.306C403.1 230.195 403.082 230.08 403.019 229.983C402.96 229.887 402.863 229.82 402.752 229.794C402.719 229.787 402.686 229.783 402.656 229.783Z" fill="white"/>
<path d="M437.669 231.2C437.34 231.2 437.018 231.037 436.833 230.736C436.692 230.514 436.648 230.247 436.707 229.991C436.767 229.731 436.922 229.512 437.144 229.372C437.366 229.231 437.632 229.186 437.888 229.245C438.147 229.305 438.365 229.461 438.506 229.683C438.646 229.906 438.691 230.173 438.631 230.428C438.572 230.688 438.417 230.907 438.195 231.048C438.032 231.152 437.847 231.2 437.669 231.2ZM437.666 229.783C437.588 229.783 437.51 229.805 437.44 229.85C437.344 229.909 437.277 230.006 437.251 230.117C437.225 230.228 437.244 230.343 437.307 230.44C437.433 230.64 437.695 230.699 437.891 230.573C437.988 230.514 438.054 230.417 438.08 230.306C438.106 230.195 438.087 230.08 438.025 229.983C437.965 229.887 437.869 229.82 437.758 229.794C437.729 229.787 437.699 229.783 437.666 229.783Z" fill="white"/>
<path opacity="0.15" d="M433.307 262.936L435.819 237.99C435.849 237.674 435.412 237.582 435.316 237.897L427.531 263.755L433.307 262.936Z" fill="black"/>
<path d="M387.231 273.723C387.545 274.102 388.112 274.194 388.519 273.879L394.072 269.789L387.009 273.03C386.979 273.286 387.076 273.534 387.231 273.723Z" fill="#84888F"/>
<path opacity="0.15" d="M397.054 237.864L394.072 267.338L391.467 269.919L389.081 268.346L394.291 240.033C394.827 237.705 397.054 237.519 397.054 237.864Z" fill="black"/>
<path d="M428.993 184.479C433.588 184.601 434.994 189.804 434.831 196.038C434.669 202.271 433.196 205.887 428.601 205.768C424.005 205.65 420.375 201.897 420.538 195.663C420.701 189.426 424.397 184.356 428.993 184.479Z" fill="#3F4249"/>
<path d="M413.394 197.95C413.394 197.95 428.567 188.958 428.852 200.45L428.834 203.424L429.418 220.749C429.407 221.19 412.309 221.617 412.395 221.072L412.761 218.075L413.945 209.19C413.782 208.415 413.697 207.533 413.723 206.543C413.69 202.03 413.394 197.95 413.394 197.95Z" fill="#F69797"/>
<path d="M412.191 198.614C414.981 198.614 417.242 196.348 417.242 193.552C417.242 190.756 414.981 188.49 412.191 188.49C409.401 188.49 407.141 190.756 407.141 193.552C407.141 196.348 409.401 198.614 412.191 198.614Z" fill="#3F4249"/>
<path d="M411.921 189.804C411.921 189.804 406.034 211.957 417.408 213.76C427.25 215.339 428.752 199.931 428.752 199.931L428.538 189.908L411.921 189.804Z" fill="#F69797"/>
<path d="M427.102 197.25C427.076 202.638 424.875 205.646 424.875 205.646C412.691 203.669 410.733 205.868 410.733 205.868C410.733 205.868 411.318 212.002 416.32 213.459C421.326 214.916 429.019 211.994 429.174 205.078C429.211 203.369 426.662 194.064 426.662 194.064L427.102 197.25Z" fill="#3F4249"/>
<path d="M417.556 208.075C420.209 208.516 421.5 205.932 421.349 205.809C421.193 205.728 416.058 206.773 415.976 206.929C415.932 207.085 416.798 208.008 417.556 208.075Z" fill="white"/>
<path d="M425.814 186.778C425.907 183.222 422.355 180.244 417.882 180.125C413.408 180.007 409.705 182.795 409.612 186.352C409.52 189.908 413.072 192.886 417.545 193.004C422.018 193.119 425.722 190.334 425.814 186.778Z" fill="#3F4249"/>
<path d="M428.282 184.568C431.083 184.642 433.281 187.572 433.189 191.117C433.096 194.662 430.728 198.24 427.927 198.166C425.126 198.092 422.947 194.395 423.043 190.85C423.132 187.305 425.478 184.494 428.282 184.568Z" fill="#3F4249"/>
<path opacity="0.15" d="M428.974 204.154C428.974 204.154 428.02 204.203 427.52 203.787L429.063 206.324L428.974 204.154Z" fill="black"/>
<path d="M427.727 198.125C427.727 198.125 429.367 196.13 431.535 197.142C433.995 198.307 433.333 203.94 429.119 204.159C426.917 204.285 427.391 203.013 427.801 201.299C427.898 199.245 427.727 198.125 427.727 198.125Z" fill="#F69797"/>
<path opacity="0.3" d="M431.609 198.611C431.176 198.307 430.776 198.184 430.41 198.248C430.044 198.311 429.707 198.559 429.437 198.993C429.17 199.427 429.008 199.935 428.993 200.521L428.945 200.995C428.941 201.144 429.048 201.255 429.193 201.259C429.337 201.262 429.452 201.155 429.455 201.01L429.503 200.536C429.507 200.387 429.6 199.657 429.866 199.26C430.058 198.971 430.28 198.793 430.502 198.726C430.724 198.696 431.013 198.778 431.302 198.967C431.409 199.045 431.594 199.011 431.668 198.904C431.746 198.874 431.716 198.726 431.609 198.611Z" fill="black"/>
<path d="M411.799 191.598C412.232 191.939 413.183 192.41 413.183 192.41C413.286 192.451 413.449 192.44 413.501 192.303C413.556 192.166 413.53 192.036 413.394 191.984C413.394 191.984 412.084 191.161 411.962 191.072C411.732 190.86 411.359 190.575 410.959 190.089C410.885 189.981 410.737 189.959 410.626 190.033C410.515 190.107 410.497 190.259 410.571 190.367C410.948 190.908 411.655 191.483 411.799 191.598Z" fill="#F69797"/>
<path opacity="0.15" d="M413.164 215.273L413.575 211.861C414.766 213.07 416.761 214.03 419.913 213.786C419.913 213.786 422.052 213.686 424.357 212.517C424.523 212.417 424.623 212.41 424.723 212.495C424.797 212.603 424.76 212.703 424.667 212.784C424.209 213.155 422.488 213.96 419.806 214.279C416.028 216.574 413.164 215.273 413.164 215.273Z" fill="black"/>
<path d="M408.713 199.112L408.687 200.139C408.635 202.119 410.204 203.773 412.18 203.825C414.156 203.877 415.806 202.304 415.858 200.324L415.884 199.297C415.891 199.004 415.824 198.707 415.647 198.485L417.038 198.522C416.849 198.737 416.731 199.026 416.724 199.319L416.698 200.346C416.646 202.327 418.215 203.981 420.191 204.033C422.166 204.084 423.816 202.512 423.868 200.532L423.894 199.505C423.913 198.77 423.343 198.17 422.61 198.151L418.111 198.032H418.074L414.6 197.94L414.052 197.925L410.064 197.821C409.335 197.806 408.732 198.377 408.713 199.112ZM418.026 198.585H418.063L422.562 198.704C423.003 198.715 423.358 199.093 423.347 199.531L423.321 200.558C423.276 202.245 421.852 203.565 420.168 203.521C418.485 203.476 417.168 202.049 417.212 200.361L417.238 199.334C417.249 198.897 417.623 198.574 418.026 198.585ZM409.187 199.16C409.198 198.718 409.575 198.362 410.012 198.374L414 198.477L414.548 198.492C414.988 198.503 415.344 198.882 415.332 199.319L415.306 200.346C415.262 202.034 413.838 203.354 412.154 203.309C410.471 203.265 409.153 201.837 409.198 200.15L409.187 199.16Z" fill="#21252B"/>
<path d="M412.38 220.746C412.45 218.083 416.357 216.029 421.108 216.155C425.859 216.281 428.545 218.235 429.415 220.75C430.214 223.056 425.607 225.915 420.856 225.789C416.106 225.667 412.31 223.409 412.38 220.746Z" fill="#F69797"/>
<path d="M405.742 266.603L401.165 267.089L391.656 266.239C390.653 266.332 390.213 266.521 389.458 267.181L383.59 272.436C383.213 272.781 383.183 273.348 383.498 273.727C383.812 274.105 384.378 274.197 384.785 273.882L390.339 269.792L386.728 274.071C386.321 274.542 386.509 275.299 387.105 275.518C387.449 275.644 387.797 275.547 388.045 275.329L392.877 270.578L389.203 274.197C388.763 274.639 388.922 275.362 389.484 275.581C389.765 275.707 390.08 275.644 390.302 275.488L395.449 271.713L391.963 274.294C391.556 274.576 391.556 275.206 391.963 275.488C392.182 275.644 392.466 275.677 392.685 275.581L397.362 273.63C397.802 273.441 398.335 273.441 398.775 273.66L400.566 274.542C402.009 275.265 403.64 275.644 405.243 275.644H408.162C412.339 275.644 405.742 266.603 405.742 266.603Z" fill="#FA9B9B"/>
<path opacity="0.15" d="M433.307 262.936L434.876 262.81C435.346 262.78 435.597 262.276 435.409 261.868L433.744 258.5L433.307 262.936Z" fill="black"/>
<g opacity="0.15">
<path opacity="0.15" d="M406.345 266.867L433.307 262.903L435.065 245.789L451.888 246.638L448.466 268.502C447.807 272.622 444.292 275.645 440.148 275.645H409.483L406.345 266.867Z" fill="black"/>
</g>
<path d="M402.675 266.866L433.655 264.145L435.105 245.306L451.888 246.415L448.814 269.418C448.155 273.538 444.64 276.56 440.496 276.56L405.72 275.674L402.675 266.866Z" fill="#21252B"/>
<path d="M431.953 274.658C431.883 274.658 431.816 274.632 431.76 274.58L430.04 272.963C429.925 272.855 429.922 272.677 430.029 272.562C430.136 272.448 430.314 272.444 430.428 272.551L432.149 274.168C432.264 274.276 432.267 274.454 432.16 274.569C432.105 274.628 432.031 274.658 431.953 274.658Z" fill="white"/>
<path d="M430.288 274.713C430.217 274.713 430.151 274.687 430.095 274.635C429.981 274.528 429.977 274.35 430.084 274.235L431.698 272.51C431.805 272.395 431.982 272.392 432.097 272.499C432.212 272.607 432.216 272.785 432.108 272.9L430.495 274.624C430.44 274.683 430.362 274.713 430.288 274.713Z" fill="white"/>
<path d="M439.915 249.422C439.841 249.422 439.771 249.392 439.715 249.341L436.371 245.992C436.3 245.921 436.271 245.818 436.297 245.717C436.323 245.621 436.4 245.543 436.496 245.517L441.062 244.286C441.158 244.26 441.262 244.286 441.336 244.36C441.406 244.431 441.436 244.535 441.41 244.635L440.189 249.214C440.163 249.311 440.085 249.389 439.989 249.415C439.963 249.422 439.937 249.422 439.915 249.422ZM437.111 245.936L439.767 248.595L440.252 246.778L440.737 244.961L437.111 245.936Z" fill="white"/>
<path d="M439.697 266.273C439.541 266.273 439.416 266.147 439.416 265.991C439.416 265.294 439.937 265.012 440.319 264.808C440.659 264.623 440.799 264.53 440.799 264.352C440.799 264.197 440.925 264.07 441.081 264.07C441.236 264.07 441.362 264.197 441.362 264.352C441.362 264.886 440.933 265.12 440.585 265.305C440.211 265.509 439.978 265.65 439.978 265.991C439.978 266.147 439.852 266.273 439.697 266.273Z" fill="white"/>
<path d="M439.697 262.988C439.541 262.988 439.416 262.861 439.416 262.706C439.416 262.009 439.937 261.727 440.319 261.523C440.659 261.337 440.799 261.245 440.799 261.067C440.799 260.911 440.925 260.785 441.081 260.785C441.236 260.785 441.362 260.911 441.362 261.067C441.362 261.601 440.933 261.834 440.585 262.02C440.196 262.227 439.978 262.365 439.978 262.706C439.978 262.861 439.852 262.988 439.697 262.988Z" fill="white"/>
<path d="M441.077 264.63C440.922 264.63 440.796 264.504 440.796 264.349C440.796 264.167 440.655 264.074 440.315 263.892C439.934 263.685 439.412 263.403 439.412 262.709C439.412 262.554 439.538 262.428 439.693 262.428C439.849 262.428 439.974 262.554 439.974 262.709C439.974 263.051 440.204 263.195 440.581 263.395C440.925 263.581 441.358 263.815 441.358 264.349C441.358 264.504 441.232 264.63 441.077 264.63Z" fill="white"/>
<path d="M441.077 261.349C440.922 261.349 440.796 261.222 440.796 261.067C440.796 260.885 440.655 260.792 440.315 260.611C439.934 260.407 439.412 260.121 439.412 259.428C439.412 259.272 439.538 259.146 439.693 259.146C439.849 259.146 439.974 259.272 439.974 259.428C439.974 259.769 440.204 259.913 440.581 260.114C440.925 260.299 441.358 260.533 441.358 261.067C441.358 261.219 441.232 261.349 441.077 261.349Z" fill="white"/>
<path d="M412.661 270.501C412.591 270.501 412.517 270.475 412.461 270.419C412.35 270.308 412.35 270.13 412.461 270.019L415.321 267.152C415.432 267.041 415.61 267.041 415.721 267.152C415.832 267.264 415.832 267.442 415.721 267.553L412.861 270.419C412.805 270.475 412.731 270.501 412.661 270.501Z" fill="white"/>
<path d="M442.516 250.761L439.031 247.275L443.785 245.996L442.516 250.761ZM439.249 247.331L442.457 250.542L443.626 246.151L439.249 247.331Z" fill="white"/>
<path d="M442.324 267.501H442.213C442.213 266.937 442.627 266.714 442.997 266.514C443.319 266.34 443.597 266.192 443.597 265.858H443.708C443.708 266.258 443.375 266.44 443.049 266.614C442.694 266.807 442.324 267.004 442.324 267.501Z" fill="white"/>
<path d="M442.324 264.215H442.213C442.213 263.652 442.627 263.429 442.997 263.229C443.319 263.055 443.597 262.906 443.597 262.573H443.708C443.708 262.973 443.375 263.155 443.049 263.329C442.694 263.522 442.324 263.722 442.324 264.215Z" fill="white"/>
<path d="M443.704 265.858H443.593C443.593 265.524 443.316 265.376 442.994 265.202C442.627 265.001 442.209 264.779 442.209 264.215H442.32C442.32 264.708 442.687 264.909 443.045 265.101C443.371 265.276 443.704 265.457 443.704 265.858Z" fill="white"/>
<path d="M443.704 262.573H443.593C443.593 262.239 443.316 262.091 442.994 261.916C442.627 261.716 442.209 261.493 442.209 260.93H442.32C442.32 261.423 442.687 261.623 443.045 261.816C443.371 261.994 443.704 262.172 443.704 262.573Z" fill="white"/>
<path d="M418.048 268.824L415.188 271.691L415.266 271.769L418.126 268.902L418.048 268.824Z" fill="white"/>
<path d="M448.196 254.815C447.866 254.815 447.545 254.652 447.36 254.351C447.071 253.888 447.208 253.276 447.67 252.987C448.133 252.697 448.743 252.834 449.032 253.298C449.173 253.521 449.217 253.788 449.158 254.043C449.099 254.303 448.943 254.522 448.721 254.663C448.558 254.767 448.377 254.815 448.196 254.815ZM448.192 253.398C448.114 253.398 448.037 253.42 447.966 253.465C447.77 253.591 447.707 253.854 447.833 254.051C447.959 254.251 448.222 254.31 448.418 254.184C448.514 254.125 448.581 254.029 448.606 253.917C448.632 253.806 448.614 253.691 448.551 253.595C448.473 253.469 448.333 253.398 448.192 253.398Z" fill="white"/>
<path opacity="0.6" d="M405.716 266.488L402.675 266.874L405.687 275.644H409.453L405.716 266.488Z" fill="black"/>
<path opacity="0.15" d="M405.398 275.277L405.901 276.82L440.333 276.605C444.477 276.605 448.022 273.586 448.651 269.462L453.335 236.951C454.182 231.289 450.575 225.912 445.018 224.588L442.098 223.894C446.557 225.875 449.254 230.625 448.503 235.598L444.196 265.839C443.538 269.959 440.023 272.981 435.879 272.981L405.398 275.277Z" fill="black"/>
<path opacity="0.15" d="M402.138 274.102C402.86 274.102 403.426 273.442 403.363 272.719L402.671 266.867L405.716 275.644H405.276C403.644 275.644 402.042 275.266 400.599 274.543L398.464 273.538C398.971 273.597 400.288 274.102 402.138 274.102Z" fill="black"/>
<path d="M409.893 275.392H378.947C378.695 275.392 378.477 275.611 378.477 275.863V276.649C378.477 276.902 378.695 277.12 378.947 277.12H409.893C410.145 277.12 410.363 276.902 410.363 276.649V275.863C410.363 275.611 410.175 275.392 409.893 275.392Z" fill="#21252B"/>
<path opacity="0.6" d="M409.893 275.392H378.947C378.695 275.392 378.477 275.611 378.477 275.863V276.649C378.477 276.902 378.695 277.12 378.947 277.12H409.893C410.145 277.12 410.363 276.902 410.363 276.649V275.863C410.363 275.611 410.175 275.392 409.893 275.392Z" fill="black"/>
<path d="M389.022 275.392H335.068C334.817 275.392 334.598 275.611 334.598 275.863V276.649C334.598 276.902 334.817 277.12 335.068 277.12H389.022C389.273 277.12 389.492 276.902 389.492 276.649V275.863C389.458 275.611 389.27 275.392 389.022 275.392Z" fill="#21252B"/>
<g opacity="0.6">
<path opacity="0.6" d="M335.756 275.708H390.683C390.776 275.708 390.838 275.645 390.838 275.552C390.838 275.459 390.776 275.396 390.683 275.396H335.756C335.664 275.396 335.601 275.459 335.601 275.552C335.601 275.645 335.694 275.708 335.756 275.708Z" fill="black"/>
</g>
<path d="M389.144 275.392H381.015C380.386 275.392 379.853 274.951 379.727 274.324L372.916 238.431C372.76 237.612 373.385 236.889 374.203 236.889H382.332C382.961 236.889 383.494 237.33 383.62 237.957L390.431 273.85C390.557 274.669 389.961 275.392 389.144 275.392Z" fill="#21252B"/>
<path opacity="0.6" d="M389.144 275.392H381.015C380.386 275.392 379.853 274.951 379.727 274.324L372.916 238.431C372.76 237.612 373.385 236.889 374.203 236.889H382.332C382.961 236.889 383.494 237.33 383.62 237.957L390.431 273.85C390.557 274.669 389.961 275.392 389.144 275.392Z" fill="black"/>
<path d="M387.986 275.392H335.79C335.161 275.392 334.628 274.951 334.502 274.324L327.691 238.431C327.535 237.612 328.16 236.889 328.978 236.889H381.144C381.773 236.889 382.306 237.33 382.432 237.957L389.244 273.85C389.395 274.669 388.8 275.392 387.986 275.392Z" fill="#21252B"/>
<path opacity="0.6" d="M358.167 255.133C358.482 255.856 358.138 256.487 357.413 256.487C357.383 256.487 357.32 256.487 357.287 256.487C358.134 257.429 359.422 258.093 360.55 258.059C362.089 258.03 362.811 256.769 362.119 255.23C361.46 253.687 359.64 252.493 358.101 252.523C357.128 252.552 356.469 253.057 356.31 253.843C357.039 253.876 357.853 254.41 358.167 255.133Z" fill="black"/>
<path d="M313.601 352.38L310.064 362.474L315.932 367.848L323.214 364.533L326.947 357.531L319.214 348.716L313.601 352.38Z" fill="#FB9C9C"/>
<path d="M313.272 353.323L326.595 358.537L358.045 299.626H413.871V277.091H349.717C345.75 277.091 342.172 279.501 340.666 283.176L313.272 353.323Z" fill="#4D61FC"/>
<path opacity="0.2" d="M313.272 353.323L326.595 358.537L358.045 299.626H413.871V277.091H349.717C345.75 277.091 342.172 279.501 340.666 283.176L313.272 353.323Z" fill="white"/>
<path opacity="0.2" d="M315.314 365.234H322.818L358.042 299.63H413.867V277.094H360.78C356.813 277.094 353.235 279.505 351.729 283.18L315.314 365.234Z" fill="black"/>
<path d="M347.264 352.38L343.66 362.656L349.595 367.848L356.584 365.033L360.609 357.531L352.876 348.716L347.264 352.38Z" fill="#FB9C9C"/>
<path d="M347.263 352.381L360.609 357.532L391.652 299.626H431.172C435.616 299.626 439.22 296.014 439.22 291.56V276.605L383.324 277.09C379.357 277.09 375.779 279.501 374.273 283.176L347.263 352.381Z" fill="#4D61FC"/>
<path opacity="0.2" d="M347.263 352.381L360.609 357.532L391.652 299.626H431.172C435.616 299.626 439.22 296.014 439.22 291.56V276.605L383.324 277.09C379.357 277.09 375.779 279.501 374.273 283.176L347.263 352.381Z" fill="white"/>
<path opacity="0.2" d="M383.024 294.838C385.277 290.44 387.775 289.142 392.703 289.142H431.154L429.862 276.656H439.223V291.415C439.223 295.951 435.557 299.626 431.031 299.626H426.148H391.686L355.078 367.848L349.228 365.971L383.024 294.838Z" fill="black"/>
<path d="M321.822 363.12C319.78 364.036 317.379 364.451 314.563 363.064C314.563 363.064 313.445 359.619 310.326 361.622C310.326 361.622 306.726 365.657 301.376 366.743C293.958 368.249 293.625 371.712 293.625 371.712H324.068C324.068 371.712 323.957 367.014 323.461 364.043C323.339 363.279 322.529 362.801 321.822 363.12Z" fill="black"/>
<path d="M301.335 365.72C301.335 365.72 304.71 367.277 306.267 373.437L293.632 372.918C293.632 372.918 293.288 367.281 301.335 365.72Z" fill="#3F4249"/>
<path d="M293.628 375.157H324.072V371.712H293.628V375.157Z" fill="#3F4249"/>
<path d="M306.848 367.133C306.893 367.211 306.974 367.255 307.059 367.255C307.1 367.255 307.141 367.244 307.178 367.222C307.292 367.155 307.333 367.007 307.266 366.892C306.663 365.839 305.96 365.423 305.483 365.26C305.265 365.375 305.039 365.486 304.81 365.594C304.847 365.616 304.887 365.635 304.936 365.635C304.976 365.635 306.005 365.657 306.848 367.133Z" fill="white"/>
<path d="M308.362 366.321C308.406 366.399 308.488 366.443 308.573 366.443C308.613 366.443 308.654 366.432 308.691 366.41C308.806 366.343 308.846 366.195 308.78 366.08C308.143 364.967 307.392 364.567 306.915 364.422C306.726 364.544 306.53 364.663 306.327 364.785C306.364 364.808 306.401 364.822 306.445 364.822C306.489 364.826 307.518 364.845 308.362 366.321Z" fill="white"/>
<path d="M309.908 365.36C309.953 365.438 310.034 365.482 310.119 365.482C310.16 365.482 310.201 365.471 310.238 365.448C310.352 365.382 310.393 365.234 310.326 365.119C309.627 363.895 308.787 363.532 308.328 363.424C308.173 363.546 308.007 363.669 307.836 363.795C307.881 363.832 307.936 363.858 307.995 363.858C308.036 363.862 309.065 363.884 309.908 365.36Z" fill="white"/>
<path d="M305.335 371.709H293.628C293.628 371.709 293.639 371.638 293.662 371.545C293.68 371.456 293.71 371.382 293.71 371.382H305.335C305.424 371.382 305.498 371.456 305.498 371.545C305.498 371.634 305.424 371.709 305.335 371.709Z" fill="black"/>
<path d="M355.141 363.12C353.098 364.036 350.697 364.451 347.881 363.064C347.881 363.064 346.764 359.619 343.645 361.622C343.645 361.622 340.045 365.657 334.695 366.743C327.276 368.249 326.943 371.712 326.943 371.712H357.387C357.387 371.712 357.276 367.014 356.78 364.043C356.658 363.279 355.848 362.801 355.141 363.12Z" fill="black"/>
<path d="M334.654 365.72C334.654 365.72 338.028 367.277 339.586 373.437L326.951 372.918C326.954 372.918 326.606 367.281 334.654 365.72Z" fill="#3F4249"/>
<path d="M326.951 375.157H357.394V371.712H326.951V375.157Z" fill="#3F4249"/>
<path d="M340.167 367.133C340.211 367.211 340.293 367.255 340.378 367.255C340.419 367.255 340.459 367.244 340.496 367.222C340.611 367.155 340.652 367.007 340.585 366.892C339.982 365.839 339.279 365.423 338.802 365.26C338.583 365.375 338.358 365.486 338.128 365.594C338.165 365.616 338.206 365.635 338.254 365.635C338.298 365.635 339.327 365.657 340.167 367.133Z" fill="white"/>
<path d="M341.68 366.321C341.725 366.399 341.806 366.443 341.891 366.443C341.932 366.443 341.972 366.432 342.009 366.41C342.124 366.343 342.165 366.195 342.098 366.08C341.462 364.967 340.711 364.567 340.234 364.422C340.045 364.544 339.849 364.663 339.645 364.785C339.682 364.808 339.719 364.822 339.764 364.822C339.808 364.826 340.837 364.845 341.68 366.321Z" fill="white"/>
<path d="M343.227 365.36C343.271 365.438 343.353 365.482 343.438 365.482C343.478 365.482 343.519 365.471 343.556 365.448C343.671 365.382 343.712 365.234 343.645 365.119C342.946 363.895 342.106 363.532 341.647 363.424C341.491 363.546 341.325 363.669 341.155 363.795C341.199 363.832 341.255 363.858 341.314 363.858C341.355 363.862 342.383 363.884 343.227 365.36Z" fill="white"/>
<path d="M338.654 371.709H326.947C326.947 371.709 326.958 371.638 326.98 371.545C326.999 371.456 327.028 371.382 327.028 371.382H338.654C338.742 371.382 338.816 371.456 338.816 371.545C338.816 371.634 338.742 371.709 338.654 371.709Z" fill="black"/>
<path d="M429.415 220.749C429.415 220.749 429.729 222.04 428.723 222.667C427.594 223.327 423.228 226.253 417.079 224.398C417.079 224.398 415.133 223.864 413.283 222.511C412.876 222.196 412.561 221.754 412.498 221.22C412.498 221.157 412.498 221.128 412.498 221.065V220.623C412.498 220.623 412.498 220.623 410.77 221.031C410.77 221.565 410.926 222.574 411.806 223.453C412.309 223.957 419.746 229.712 429.226 224.395C429.226 224.395 431.298 223.575 431.076 221.154C429.415 220.749 429.415 220.749 429.415 220.749Z" fill="white"/>
<path d="M411.921 202.546C412.461 202.542 412.898 202.097 412.89 201.552C412.887 201.011 412.443 200.573 411.899 200.58C411.359 200.588 410.926 201.029 410.929 201.574C410.937 202.116 411.381 202.553 411.921 202.546Z" fill="#21252B"/>
<path d="M411.462 201.908C411.584 201.908 411.688 201.804 411.684 201.678C411.684 201.552 411.581 201.451 411.459 201.455C411.333 201.455 411.233 201.559 411.233 201.685C411.236 201.807 411.336 201.908 411.462 201.908Z" fill="white"/>
<path d="M419.476 203.035C420.017 203.031 420.453 202.586 420.446 202.041C420.442 201.499 419.998 201.062 419.454 201.069C418.914 201.077 418.481 201.518 418.485 202.063C418.492 202.604 418.932 203.038 419.476 203.035Z" fill="#21252B"/>
<path d="M419.018 202.36C419.14 202.36 419.24 202.256 419.24 202.13C419.24 202.004 419.136 201.903 419.01 201.907C418.888 201.907 418.788 202.011 418.788 202.137C418.788 202.259 418.892 202.36 419.018 202.36Z" fill="white"/>
<g opacity="0.3">
<path opacity="0.3" d="M416.42 204.477L417.208 204.37C417.36 204.362 417.467 204.206 417.46 204.054C417.453 203.902 417.297 203.795 417.145 203.802L416.357 203.91C416.021 203.962 415.743 203.709 415.691 203.368C415.639 203.031 415.891 202.753 416.231 202.701C416.383 202.693 416.491 202.538 416.483 202.386C416.476 202.234 416.32 202.126 416.169 202.133C415.528 202.196 415.062 202.786 415.166 203.424C415.195 204.114 415.78 204.544 416.42 204.477Z" fill="black"/>
</g>
<path opacity="0.15" d="M238.924 175.248L229.814 202.857L230.003 212.818L238.924 179.713V175.248Z" fill="black"/>
<path opacity="0.6" d="M221.29 179.795L236.241 183.878L237.1 181.397L221.963 177.136L221.29 179.795Z" fill="black"/>
<path opacity="0.15" d="M281.603 227.435C281.603 227.435 269.549 217.052 265.886 200.316C263.288 188.45 263.085 183.54 262.933 172.815C262.933 172.815 269.996 172.797 270.962 165.651C271.192 163.941 270.907 162.892 270.448 161.698C270.448 161.698 270.666 167.909 265.697 169.756C263.854 170.442 257.971 170.668 257.971 170.668C257.971 170.668 251.948 206.691 281.603 227.435Z" fill="black"/>
<path opacity="0.6" d="M268.453 149.939C268.453 149.939 266.141 155.635 260.095 155.39C252.137 155.071 252 149.605 252 149.605L249.905 149.961C249.905 149.961 250.867 156.996 260.095 157.237C268.579 157.456 270.526 150.477 270.526 150.477L268.453 149.939Z" fill="black"/>
<path d="M421.578 243.964L420.135 250.509L421.974 249.171L423.347 251.158L424.031 245.481L421.578 243.964Z" fill="#4D61FC"/>
<path d="M429.703 243.964L431.146 250.509L429.307 249.171L427.935 251.158L427.25 245.481L429.703 243.964Z" fill="#4D61FC"/>
<path d="M425.5 246.76C428.911 246.76 431.675 243.989 431.675 240.57C431.675 237.151 428.911 234.381 425.5 234.381C422.089 234.381 419.325 237.151 419.325 240.57C419.325 243.989 422.089 246.76 425.5 246.76Z" fill="#4D61FC"/>
<path opacity="0.5" d="M425.5 246.76C428.911 246.76 431.675 243.989 431.675 240.57C431.675 237.151 428.911 234.381 425.5 234.381C422.089 234.381 419.325 237.151 419.325 240.57C419.325 243.989 422.089 246.76 425.5 246.76Z" fill="white"/>
<path d="M425.5 245.028C427.957 245.028 429.947 243.033 429.947 240.571C429.947 238.109 427.957 236.114 425.5 236.114C423.043 236.114 421.053 238.109 421.053 240.571C421.053 243.033 423.043 245.028 425.5 245.028Z" fill="#4D61FC"/>
<path opacity="0.7" d="M425.5 245.028C427.957 245.028 429.947 243.033 429.947 240.571C429.947 238.109 427.957 236.114 425.5 236.114C423.043 236.114 421.053 238.109 421.053 240.571C421.053 243.033 423.043 245.028 425.5 245.028Z" fill="white"/>
<path d="M426.332 239.695L428.19 239.966L426.847 241.279L427.165 243.133L425.504 242.258L423.842 243.133L424.157 241.279L422.814 239.966L424.671 239.695L425.5 238.008L426.332 239.695Z" fill="#4D61FC"/>
<path d="M525.485 375.754H64.6834C64.5354 375.754 64.3874 375.643 64.3874 375.458C64.3874 375.272 64.5354 375.161 64.6834 375.161H525.518C525.666 375.161 525.814 375.272 525.814 375.458C525.814 375.643 525.67 375.754 525.485 375.754Z" fill="#ABAFB4"/>
</svg>
