<svg width="682" height="369" viewBox="0 0 682 369" fill="none" xmlns="http://www.w3.org/2000/svg">
<path d="M648.331 331.621H28C23.0294 331.621 19 335.557 19 340.413C19 345.269 23.0294 349.205 28 349.205H648.331C653.302 349.205 657.331 345.269 657.331 340.413C657.331 335.557 653.302 331.621 648.331 331.621Z" fill="#C9C9C9"/>
<path d="M144.73 258.337C140.153 258.303 135.776 256.503 132.552 253.33C129.328 250.156 127.519 245.866 127.519 241.395C127.519 236.923 129.328 232.633 132.552 229.46C135.776 226.286 140.153 224.486 144.73 224.452H242.764V258.337H144.73Z" fill="#CECECE"/>
<path d="M144.73 218.587H248.439V264.195H144.73C138.539 264.195 132.602 261.793 128.225 257.516C123.847 253.24 121.388 247.439 121.388 241.392V241.392C121.388 238.397 121.992 235.432 123.165 232.665C124.338 229.898 126.057 227.384 128.224 225.267C130.392 223.149 132.965 221.469 135.797 220.323C138.629 219.177 141.665 218.587 144.73 218.587V218.587Z" fill="white"/>
<path d="M242.764 238.094H138.388C137.858 238.094 137.349 237.888 136.974 237.521C136.599 237.155 136.388 236.658 136.388 236.14C136.388 235.621 136.599 235.124 136.974 234.758C137.349 234.392 137.858 234.186 138.388 234.186H242.764C243.294 234.186 243.803 234.392 244.178 234.758C244.553 235.124 244.764 235.621 244.764 236.14C244.764 236.658 244.553 237.155 244.178 237.521C243.803 237.888 243.294 238.094 242.764 238.094Z" fill="#1F3969"/>
<path d="M242.764 248.44H138.388C137.858 248.44 137.349 248.234 136.974 247.868C136.599 247.501 136.388 247.004 136.388 246.486C136.388 245.968 136.599 245.471 136.974 245.105C137.349 244.739 137.858 244.533 138.388 244.533H242.764C243.294 244.533 243.803 244.739 244.178 245.105C244.553 245.471 244.764 245.968 244.764 246.486C244.764 247.004 244.553 247.501 244.178 247.868C243.803 248.234 243.294 248.44 242.764 248.44Z" fill="#1F3969"/>
<path d="M242.764 260.291H144.73C139.624 260.256 134.74 258.249 131.142 254.709C127.545 251.169 125.526 246.383 125.526 241.395C125.526 236.407 127.545 231.621 131.142 228.081C134.74 224.541 139.624 222.534 144.73 222.499H242.764C243.294 222.499 243.803 222.704 244.178 223.071C244.553 223.437 244.764 223.934 244.764 224.452V258.338C244.764 258.856 244.553 259.353 244.178 259.719C243.803 260.085 243.294 260.291 242.764 260.291ZM144.73 226.402C140.682 226.434 136.812 228.028 133.961 230.835C131.11 233.642 129.511 237.437 129.511 241.391C129.511 245.345 131.11 249.14 133.961 251.947C136.812 254.755 140.682 256.348 144.73 256.38H240.764V226.402H144.73Z" fill="#1F3969"/>
<path d="M144.73 258.337C140.153 258.303 135.776 256.503 132.552 253.33C129.328 250.156 127.519 245.866 127.519 241.395C127.519 236.924 129.328 232.634 132.552 229.46C135.776 226.286 140.153 224.486 144.73 224.452H244.439L248.439 218.591H144.73C138.539 218.591 132.602 220.993 128.225 225.27C123.847 229.546 121.388 235.346 121.388 241.394C121.388 244.389 121.992 247.354 123.165 250.121C124.338 252.888 126.057 255.402 128.224 257.519C130.392 259.637 132.965 261.317 135.797 262.463C138.629 263.609 141.665 264.199 144.73 264.199H248.439L244.439 258.337H144.73Z" fill="#FF3E3E"/>
<path d="M248.439 266.153H144.73C138.036 266.112 131.631 263.485 126.913 258.847C122.194 254.208 119.546 247.934 119.546 241.395C119.546 234.856 122.194 228.582 126.913 223.943C131.631 219.305 138.036 216.678 144.73 216.637H248.439C248.801 216.637 249.156 216.733 249.467 216.915C249.777 217.097 250.031 217.357 250.202 217.669C250.373 217.981 250.454 218.332 250.436 218.685C250.419 219.038 250.304 219.38 250.103 219.674L246.103 225.536C245.92 225.804 245.673 226.023 245.383 226.175C245.092 226.327 244.768 226.406 244.439 226.406H144.73C140.682 226.438 136.812 228.031 133.961 230.839C131.11 233.646 129.511 237.44 129.511 241.395C129.511 245.349 131.11 249.143 133.961 251.951C136.812 254.758 140.682 256.352 144.73 256.383H244.439C244.768 256.383 245.092 256.463 245.383 256.615C245.673 256.767 245.92 256.986 246.103 257.254L250.103 263.115C250.304 263.41 250.419 263.752 250.436 264.105C250.454 264.458 250.373 264.809 250.202 265.121C250.031 265.433 249.777 265.693 249.467 265.875C249.156 266.057 248.801 266.153 248.439 266.153ZM144.73 220.541C139.095 220.579 133.704 222.792 129.733 226.698C125.762 230.604 123.533 235.886 123.533 241.391C123.533 246.896 125.762 252.178 129.733 256.084C133.704 259.99 139.095 262.203 144.73 262.241H244.706L243.372 260.287H144.73C139.624 260.251 134.74 258.245 131.142 254.705C127.545 251.165 125.526 246.379 125.526 241.391C125.526 236.403 127.545 231.617 131.142 228.077C134.74 224.537 139.624 222.531 144.73 222.495H243.372L244.706 220.541H144.73Z" fill="#1F3969"/>
<g opacity="0.28">
<path opacity="0.28" d="M226.144 218.591H207.753V264.199H226.144V218.591Z" fill="#1F3969"/>
<path opacity="0.28" d="M226.144 266.153H207.753C207.223 266.153 206.714 265.947 206.339 265.58C205.964 265.214 205.753 264.717 205.753 264.199V218.587C205.753 218.069 205.964 217.572 206.339 217.206C206.714 216.839 207.223 216.633 207.753 216.633H226.144C226.674 216.633 227.183 216.839 227.558 217.206C227.933 217.572 228.144 218.069 228.144 218.587V264.195C228.145 264.452 228.093 264.706 227.993 264.944C227.893 265.181 227.745 265.397 227.56 265.579C227.374 265.761 227.153 265.905 226.91 266.004C226.667 266.102 226.407 266.153 226.144 266.153ZM209.753 262.245H224.144V220.541H209.753V262.245Z" fill="#1F3969"/>
</g>
<path d="M237.774 264.199H47.87C44.136 264.199 41.109 267.156 41.109 270.804V295.262C41.109 298.91 44.136 301.867 47.87 301.867H237.774C241.508 301.867 244.535 298.91 244.535 295.262V270.804C244.535 267.156 241.508 264.199 237.774 264.199Z" fill="#50B56F"/>
<path d="M237.774 303.82H47.874C45.5512 303.818 43.3242 302.915 41.6816 301.311C40.039 299.706 39.1149 297.531 39.112 295.261V270.804C39.1149 268.535 40.039 266.359 41.6816 264.755C43.3242 263.15 45.5512 262.248 47.874 262.245H237.774C240.097 262.248 242.324 263.151 243.966 264.755C245.609 266.36 246.532 268.535 246.535 270.804V295.261C246.532 297.531 245.609 299.706 243.966 301.311C242.324 302.915 240.097 303.818 237.774 303.82V303.82ZM47.874 266.153C46.6116 266.154 45.4013 266.645 44.5086 267.517C43.6158 268.389 43.1136 269.571 43.112 270.804V295.261C43.1136 296.495 43.6158 297.677 44.5086 298.549C45.4013 299.421 46.6116 299.911 47.874 299.913H237.774C239.036 299.911 240.246 299.421 241.139 298.549C242.031 297.677 242.533 296.495 242.535 295.261V270.804C242.533 269.571 242.031 268.389 241.139 267.517C240.246 266.645 239.036 266.155 237.774 266.153H47.874Z" fill="#1F3969"/>
<g opacity="0.28">
<path opacity="0.28" d="M237.774 264.199H207.753V278.853C207.753 281.042 208.194 283.209 209.051 285.231C209.909 287.254 211.165 289.091 212.75 290.639C214.334 292.187 216.215 293.414 218.285 294.252C220.355 295.089 222.573 295.52 224.814 295.52H244.522C244.522 295.435 244.535 295.351 244.535 295.265V270.804C244.535 269.052 243.823 267.372 242.555 266.133C241.287 264.895 239.567 264.199 237.774 264.199Z" fill="#1F3969"/>
<path opacity="0.28" d="M244.522 297.471H224.814C219.76 297.466 214.915 295.502 211.342 292.011C207.769 288.52 205.759 283.786 205.753 278.849V264.195C205.753 263.677 205.964 263.18 206.339 262.814C206.714 262.447 207.223 262.241 207.753 262.241H237.774C240.097 262.244 242.324 263.146 243.966 264.751C245.608 266.356 246.532 268.531 246.535 270.8V295.258C246.535 295.355 246.53 295.453 246.523 295.545C246.492 296.051 246.27 296.528 245.901 296.883C245.531 297.239 245.04 297.448 244.522 297.471ZM209.753 266.153V278.853C209.757 282.754 211.345 286.494 214.169 289.253C216.992 292.011 220.821 293.563 224.814 293.568H242.532V270.805C242.53 269.572 242.028 268.39 241.136 267.518C240.243 266.646 239.033 266.155 237.771 266.154L209.753 266.153Z" fill="#1F3969"/>
</g>
<path d="M291.229 309.429H71.281C73.989 316.59 73.989 324.46 71.281 331.621H291.229C288.522 324.46 288.522 316.59 291.229 309.429V309.429Z" fill="#CECECE"/>
<path d="M297.194 303.524H65.324V309.429H297.194V303.524Z" fill="#5F5AFF"/>
<path d="M297.194 311.383H65.324C64.7935 311.383 64.2848 311.177 63.9098 310.81C63.5347 310.444 63.324 309.947 63.324 309.429V303.524C63.324 303.006 63.5347 302.509 63.9098 302.143C64.2848 301.776 64.7935 301.571 65.324 301.571H297.194C297.725 301.571 298.233 301.776 298.608 302.143C298.983 302.509 299.194 303.006 299.194 303.524V309.429C299.194 309.947 298.983 310.444 298.608 310.81C298.233 311.177 297.725 311.383 297.194 311.383ZM67.324 307.475H295.194V305.478H67.324V307.475Z" fill="#1F3969"/>
<path d="M297.194 331.621H65.324V337.525H297.194V331.621Z" fill="#F6F9FD"/>
<path d="M297.194 331.621H65.324V337.525H297.194V331.621Z" fill="#5F5AFF"/>
<path d="M297.194 339.479H65.324C64.7935 339.479 64.2848 339.274 63.9098 338.907C63.5347 338.541 63.324 338.044 63.324 337.526V331.618C63.324 331.1 63.5347 330.603 63.9098 330.236C64.2848 329.87 64.7935 329.664 65.324 329.664H297.194C297.725 329.664 298.233 329.87 298.608 330.236C298.983 330.603 299.194 331.1 299.194 331.618V337.523C299.194 337.779 299.143 338.034 299.043 338.271C298.942 338.509 298.795 338.724 298.609 338.906C298.424 339.088 298.203 339.232 297.96 339.33C297.717 339.429 297.457 339.479 297.194 339.479ZM67.324 335.572H295.194V333.572H67.324V335.572Z" fill="#1F3969"/>
<path d="M412.47 316.671L409.457 283.795H360.049L357.039 316.671C356.339 324.307 351.639 331.618 344.262 337.456L344.253 337.527H425.26L425.251 337.456C417.874 331.618 413.17 324.305 412.47 316.671Z" fill="#BFCFE2"/>
<g opacity="0.28">
<path opacity="0.28" d="M360.049 283.793L358.24 303.524H411.265L409.457 283.793H360.049Z" fill="#1F3969"/>
<path opacity="0.28" d="M411.266 305.478H358.239C357.961 305.478 357.687 305.422 357.432 305.312C357.178 305.203 356.95 305.043 356.763 304.843C356.575 304.643 356.433 304.406 356.344 304.149C356.255 303.892 356.222 303.62 356.247 303.35L358.056 283.615C358.101 283.129 358.33 282.677 358.699 282.348C359.067 282.019 359.549 281.836 360.048 281.836H409.456C409.955 281.836 410.437 282.019 410.805 282.348C411.174 282.677 411.403 283.129 411.448 283.615L413.257 303.35C413.282 303.62 413.249 303.892 413.16 304.149C413.071 304.406 412.929 304.643 412.741 304.843C412.554 305.043 412.326 305.203 412.072 305.312C411.817 305.422 411.543 305.478 411.265 305.478H411.266ZM360.427 301.571H409.078L407.628 285.744H361.878L360.427 301.571Z" fill="#1F3969"/>
</g>
<path d="M425.256 339.479H344.249C343.966 339.479 343.686 339.421 343.428 339.307C343.17 339.194 342.939 339.028 342.752 338.821C342.564 338.614 342.424 338.37 342.34 338.106C342.256 337.842 342.23 337.564 342.264 337.289C342.329 336.765 342.591 336.282 342.999 335.936C350.134 330.291 354.411 323.386 355.043 316.495L358.057 283.62C358.102 283.134 358.331 282.682 358.7 282.353C359.068 282.024 359.55 281.841 360.049 281.841H409.456C409.955 281.841 410.437 282.024 410.805 282.353C411.174 282.682 411.403 283.134 411.448 283.62L414.463 316.495C415.094 323.386 419.371 330.29 426.506 335.936C426.909 336.255 427.17 336.715 427.233 337.218C427.267 337.497 427.242 337.78 427.159 338.049C427.075 338.318 426.936 338.567 426.749 338.781C426.564 338.993 426.336 339.165 426.079 339.286C425.821 339.406 425.541 339.472 425.256 339.479ZM349.362 335.572H420.139C414.465 329.94 411.076 323.424 410.474 316.843L407.622 285.748H361.878L359.027 316.844C358.424 323.425 355.039 329.941 349.362 335.572Z" fill="#1F3969"/>
<path d="M542.753 63.9834H226.753C220.126 63.9834 214.753 69.232 214.753 75.7066V276.955C214.753 283.429 220.126 288.678 226.753 288.678H542.753C549.38 288.678 554.753 283.429 554.753 276.955V75.7066C554.753 69.232 549.38 63.9834 542.753 63.9834Z" fill="white"/>
<path d="M542.753 63.9834H226.753C220.126 63.9834 214.753 69.232 214.753 75.7066V276.955C214.753 283.429 220.126 288.678 226.753 288.678H542.753C549.38 288.678 554.753 283.429 554.753 276.955V75.7066C554.753 69.232 549.38 63.9834 542.753 63.9834Z" fill="#BFCFE2"/>
<path d="M542.753 290.633H226.753C223.041 290.628 219.483 289.186 216.858 286.622C214.234 284.058 212.757 280.582 212.753 276.956V75.708C212.757 72.0818 214.233 68.6053 216.858 66.0412C219.483 63.4771 223.041 62.0349 226.753 62.031H542.753C546.465 62.0349 550.023 63.4771 552.648 66.0412C555.273 68.6053 556.749 72.0818 556.753 75.708V276.956C556.749 280.582 555.272 284.058 552.648 286.622C550.023 289.186 546.465 290.628 542.753 290.633V290.633ZM226.753 65.9387C224.102 65.9416 221.56 66.9718 219.685 68.8032C217.81 70.6347 216.756 73.1179 216.753 75.708V276.956C216.756 279.546 217.81 282.029 219.685 283.86C221.56 285.692 224.102 286.722 226.753 286.725H542.753C545.404 286.722 547.946 285.692 549.82 283.86C551.695 282.029 552.75 279.546 552.753 276.956V75.708C552.75 73.1179 551.696 70.6347 549.821 68.8032C547.946 66.9718 545.404 65.9416 542.753 65.9387H226.753Z" fill="#1F3969"/>
<path d="M537.753 251.155V80.5918L231.753 80.5918V251.155L537.753 251.155Z" fill="#F6F9FD"/>
<g opacity="0.28">
<path opacity="0.28" d="M242.767 63.9834V199.379C242.767 201.452 243.61 203.44 245.11 204.906C246.61 206.371 248.645 207.195 250.767 207.195H439.839C441.961 207.195 443.996 206.371 445.496 204.906C446.996 203.44 447.839 201.452 447.839 199.379V63.9834H242.767Z" fill="#1F3969"/>
<path opacity="0.28" d="M439.839 209.149H250.767C248.116 209.146 245.574 208.116 243.699 206.284C241.824 204.453 240.77 201.969 240.767 199.379V63.984C240.767 63.4658 240.978 62.9688 241.353 62.6024C241.728 62.236 242.237 62.0302 242.767 62.0302H447.839C448.369 62.0302 448.878 62.236 449.253 62.6024C449.628 62.9688 449.839 63.4658 449.839 63.984V199.379C449.836 201.969 448.782 204.453 446.907 206.284C445.032 208.116 442.49 209.146 439.839 209.149ZM244.767 65.9379V199.379C244.769 200.933 245.402 202.423 246.526 203.522C247.651 204.621 249.176 205.239 250.767 205.241H439.839C441.43 205.239 442.955 204.621 444.08 203.522C445.205 202.423 445.837 200.934 445.839 199.379V65.9379H244.767Z" fill="#1F3969"/>
</g>
<path d="M537.753 253.11H231.753C231.223 253.11 230.714 252.904 230.339 252.538C229.964 252.171 229.753 251.674 229.753 251.156V80.5916C229.753 80.0734 229.964 79.5764 230.339 79.21C230.714 78.8435 231.223 78.6377 231.753 78.6377H537.753C538.283 78.6377 538.792 78.8435 539.167 79.21C539.542 79.5764 539.753 80.0734 539.753 80.5916V251.156C539.753 251.674 539.542 252.171 539.167 252.538C538.792 252.904 538.283 253.11 537.753 253.11ZM233.753 249.202H535.753V82.5454H233.753V249.202Z" fill="#1F3969"/>
<path d="M398.198 271.779H371.307C370.777 271.779 370.268 271.573 369.893 271.207C369.518 270.84 369.307 270.343 369.307 269.825C369.307 269.307 369.518 268.81 369.893 268.443C370.268 268.077 370.777 267.871 371.307 267.871H398.198C398.728 267.871 399.237 268.077 399.612 268.443C399.987 268.81 400.198 269.307 400.198 269.825C400.198 270.343 399.987 270.84 399.612 271.207C399.237 271.573 398.728 271.779 398.198 271.779V271.779Z" fill="#1F3969"/>
<path d="M448.84 35.9535H259.767C255.349 35.9535 251.767 39.4526 251.767 43.769V188.634C251.767 192.951 255.349 196.45 259.767 196.45H448.84C453.258 196.45 456.84 192.951 456.84 188.634V43.769C456.84 39.4526 453.258 35.9535 448.84 35.9535Z" fill="#2D425E"/>
<path d="M456.839 56.9128H251.767C251.237 56.9128 250.728 56.707 250.353 56.3406C249.978 55.9742 249.767 55.4772 249.767 54.959V43.7693C249.77 41.1792 250.824 38.696 252.699 36.8645C254.574 35.033 257.116 34.0028 259.767 34H448.839C451.49 34.0028 454.032 35.033 455.907 36.8645C457.782 38.696 458.836 41.1792 458.839 43.7693V54.959C458.839 55.4772 458.628 55.9742 458.253 56.3406C457.878 56.707 457.369 56.9128 456.839 56.9128ZM253.766 53.0051H454.839V43.7693C454.837 42.2152 454.205 40.7252 453.08 39.6262C451.955 38.5273 450.43 37.9093 448.839 37.9077H259.767C258.176 37.9095 256.651 38.5276 255.526 39.6265C254.402 40.7254 253.769 42.2152 253.767 43.7693L253.766 53.0051Z" fill="#1F3969"/>
<path d="M259.767 35.9535H448.839C450.961 35.9535 452.996 36.7769 454.496 38.2426C455.996 39.7083 456.839 41.6962 456.839 43.769V58.6809H251.767V43.769C251.767 41.6962 252.61 39.7083 254.11 38.2426C255.61 36.7769 257.645 35.9535 259.767 35.9535Z" fill="#D0DDF0"/>
<path d="M456.839 60.6346H251.767C251.237 60.6346 250.728 60.4288 250.353 60.0624C249.978 59.696 249.767 59.199 249.767 58.6808V43.7692C249.77 41.1791 250.824 38.6959 252.699 36.8645C254.574 35.033 257.116 34.0028 259.767 34H448.839C451.49 34.0028 454.032 35.033 455.907 36.8645C457.782 38.6959 458.836 41.1791 458.839 43.7692V58.6808C458.839 59.199 458.628 59.696 458.253 60.0624C457.878 60.4288 457.369 60.6346 456.839 60.6346ZM253.766 56.727H454.839V43.7692C454.837 42.2151 454.205 40.7251 453.08 39.6262C451.955 38.5273 450.43 37.9092 448.839 37.9077H259.767C258.176 37.9095 256.651 38.5276 255.526 39.6264C254.402 40.7253 253.769 42.2151 253.767 43.7692L253.766 56.727Z" fill="#1F3969"/>
<path d="M456.839 60.6346H251.767C251.237 60.6346 250.728 60.4288 250.353 60.0624C249.978 59.696 249.767 59.199 249.767 58.6808V43.7692C249.77 41.1791 250.824 38.6959 252.699 36.8645C254.574 35.033 257.116 34.0028 259.767 34H448.839C451.49 34.0028 454.032 35.033 455.907 36.8645C457.782 38.6959 458.836 41.1791 458.839 43.7692V58.6808C458.839 59.199 458.628 59.696 458.253 60.0624C457.878 60.4288 457.369 60.6346 456.839 60.6346ZM253.766 56.727H454.839V43.7692C454.837 42.2151 454.205 40.7251 453.08 39.6262C451.955 38.5273 450.43 37.9092 448.839 37.9077H259.767C258.176 37.9095 256.651 38.5276 255.526 39.6264C254.402 40.7253 253.769 42.2151 253.767 43.7692L253.766 56.727Z" fill="#1F3969"/>
<path d="M448.839 198.403H259.767C257.116 198.4 254.574 197.37 252.699 195.538C250.824 193.707 249.77 191.223 249.767 188.633V43.7693C249.77 41.1792 250.824 38.696 252.699 36.8645C254.574 35.033 257.116 34.0028 259.767 34H448.839C451.49 34.0028 454.032 35.033 455.907 36.8645C457.782 38.696 458.836 41.1792 458.839 43.7693V188.633C458.836 191.223 457.782 193.707 455.907 195.538C454.032 197.37 451.49 198.4 448.839 198.403ZM259.767 37.9077C258.176 37.9095 256.651 38.5277 255.526 39.6265C254.402 40.7254 253.769 42.2153 253.767 43.7693V188.633C253.769 190.187 254.402 191.677 255.526 192.776C256.651 193.875 258.176 194.493 259.767 194.495H448.839C450.43 194.493 451.955 193.875 453.08 192.776C454.205 191.677 454.837 190.187 454.839 188.633V43.7693C454.837 42.2152 454.205 40.7252 453.08 39.6263C451.955 38.5273 450.43 37.9093 448.839 37.9077H259.767Z" fill="#1F3969"/>
<g opacity="0.28">
<path opacity="0.28" d="M547.528 95.2983H431.512C427.094 95.2983 423.512 98.7974 423.512 103.114V223.223C423.512 227.539 427.094 231.038 431.512 231.038H547.528C551.946 231.038 555.528 227.539 555.528 223.223V103.114C555.528 98.7974 551.946 95.2983 547.528 95.2983Z" fill="#1F3969"/>
<path opacity="0.28" d="M547.528 232.993H431.512C428.861 232.99 426.319 231.96 424.444 230.128C422.57 228.297 421.515 225.814 421.512 223.224V103.114C421.515 100.524 422.569 98.0406 424.444 96.2091C426.319 94.3776 428.861 93.3474 431.512 93.3446H547.528C550.179 93.3474 552.721 94.3776 554.596 96.2091C556.471 98.0406 557.525 100.524 557.528 103.114V223.224C557.525 225.814 556.47 228.297 554.596 230.128C552.721 231.96 550.179 232.99 547.528 232.993V232.993ZM431.512 97.2523C429.921 97.2539 428.396 97.8719 427.271 98.9709C426.146 100.07 425.514 101.56 425.512 103.114V223.224C425.514 224.778 426.147 226.268 427.271 227.367C428.396 228.465 429.921 229.084 431.512 229.085H547.528C549.119 229.084 550.644 228.465 551.769 227.367C552.893 226.268 553.526 224.778 553.528 223.224V103.114C553.526 101.56 552.894 100.07 551.769 98.9709C550.644 97.8719 549.119 97.2539 547.528 97.2523H431.512Z" fill="#1F3969"/>
</g>
<path d="M555.528 88.4597H439.512C435.094 88.4597 431.512 91.9588 431.512 96.2752V216.384C431.512 220.7 435.094 224.199 439.512 224.199H555.528C559.946 224.199 563.528 220.7 563.528 216.384V96.2752C563.528 91.9588 559.946 88.4597 555.528 88.4597Z" fill="#2AA1FF"/>
<path d="M555.528 226.154H439.512C436.861 226.151 434.319 225.121 432.444 223.289C430.57 221.458 429.515 218.975 429.512 216.385V96.2753C429.515 93.6852 430.569 91.202 432.444 89.3705C434.319 87.539 436.861 86.5088 439.512 86.506H555.528C558.179 86.5088 560.721 87.539 562.596 89.3705C564.471 91.202 565.525 93.6852 565.528 96.2753V216.385C565.525 218.975 564.47 221.458 562.596 223.289C560.721 225.121 558.179 226.151 555.528 226.154ZM439.512 90.4137C437.921 90.4153 436.396 91.0333 435.271 92.1322C434.146 93.2312 433.514 94.7212 433.512 96.2753V216.385C433.514 217.939 434.147 219.429 435.271 220.528C436.396 221.627 437.921 222.245 439.512 222.246H555.528C557.119 222.245 558.644 221.627 559.769 220.528C560.893 219.429 561.526 217.939 561.528 216.385V96.2753C561.526 94.7212 560.894 93.2312 559.769 92.1322C558.644 91.0333 557.119 90.4153 555.528 90.4137H439.512Z" fill="#1F3969"/>
<g style="mix-blend-mode:screen" opacity="0.34">
<path d="M538.265 107.939H456.696C453.842 107.939 451.529 110.199 451.529 112.987V120.607C451.529 123.395 453.842 125.655 456.696 125.655H538.265C541.119 125.655 543.432 123.395 543.432 120.607V112.987C543.432 110.199 541.119 107.939 538.265 107.939Z" stroke="white" stroke-width="2" stroke-linecap="round" stroke-linejoin="round"/>
</g>
<g style="mix-blend-mode:screen" opacity="0.34">
<g style="mix-blend-mode:screen" opacity="0.34">
<path d="M502.419 136.57H456.776C453.922 136.57 451.609 138.83 451.609 141.618V149.238C451.609 152.026 453.922 154.286 456.776 154.286H502.419C505.273 154.286 507.586 152.026 507.586 149.238V141.618C507.586 138.83 505.273 136.57 502.419 136.57Z" stroke="white" stroke-width="2" stroke-linecap="round" stroke-linejoin="round"/>
</g>
<g style="mix-blend-mode:screen" opacity="0.34">
<path d="M538.345 136.57H520.69C517.836 136.57 515.523 138.83 515.523 141.618V149.238C515.523 152.026 517.836 154.286 520.69 154.286H538.345C541.199 154.286 543.512 152.026 543.512 149.238V141.618C543.512 138.83 541.199 136.57 538.345 136.57Z" stroke="white" stroke-width="2" stroke-linecap="round" stroke-linejoin="round"/>
</g>
</g>
<path d="M451.529 184.033H543.432" stroke="white" stroke-width="2" stroke-linecap="round" stroke-linejoin="round"/>
<path d="M451.529 194.575H543.432" stroke="white" stroke-width="2" stroke-linecap="round" stroke-linejoin="round"/>
<path d="M451.529 205.116H507.506" stroke="white" stroke-width="2" stroke-linecap="round" stroke-linejoin="round"/>
<path d="M271.839 51.2251C274.048 51.2251 275.839 49.4756 275.839 47.3174C275.839 45.1592 274.048 43.4097 271.839 43.4097C269.63 43.4097 267.839 45.1592 267.839 47.3174C267.839 49.4756 269.63 51.2251 271.839 51.2251Z" fill="#1F3969"/>
<path d="M285.725 51.2251C287.934 51.2251 289.725 49.4756 289.725 47.3174C289.725 45.1592 287.934 43.4097 285.725 43.4097C283.516 43.4097 281.725 45.1592 281.725 47.3174C281.725 49.4756 283.516 51.2251 285.725 51.2251Z" fill="#1F3969"/>
<path d="M299.611 51.2251C301.82 51.2251 303.611 49.4756 303.611 47.3174C303.611 45.1592 301.82 43.4097 299.611 43.4097C297.402 43.4097 295.611 45.1592 295.611 47.3174C295.611 49.4756 297.402 51.2251 299.611 51.2251Z" fill="#1F3969"/>
<path d="M369.58 76.7161H382.508" stroke="white" stroke-width="4" stroke-linecap="round" stroke-linejoin="round"/>
<path d="M303.611 76.7161H359.987" stroke="#7BFFA0" stroke-width="4" stroke-linecap="round" stroke-linejoin="round"/>
<path d="M275.839 76.7161H295.611" stroke="#9169FF" stroke-width="4" stroke-linecap="round" stroke-linejoin="round"/>
<path d="M301.611 173.001H344.669" stroke="#9169FF" stroke-width="4" stroke-linecap="round" stroke-linejoin="round"/>
<path d="M275.839 173.001H289.724" stroke="#7BFFA0" stroke-width="4" stroke-linecap="round" stroke-linejoin="round"/>
<path d="M359.988 88.752H368.003" stroke="white" stroke-width="4" stroke-linecap="round" stroke-linejoin="round"/>
<path d="M323.118 88.752H350.345" stroke="#9169FF" stroke-width="4" stroke-linecap="round" stroke-linejoin="round"/>
<path d="M285.725 88.752H313.469" stroke="#FFC47D" stroke-width="4" stroke-linecap="round" stroke-linejoin="round"/>
<path d="M328.669 100.788H352.507" stroke="white" stroke-width="4" stroke-linecap="round" stroke-linejoin="round"/>
<path d="M298.608 100.788H321.09" stroke="#FF5757" stroke-width="4" stroke-linecap="round" stroke-linejoin="round"/>
<path d="M331.848 112.823H336.786" stroke="white" stroke-width="4" stroke-linecap="round" stroke-linejoin="round"/>
<path d="M312.028 112.823H323.118" stroke="#9169FF" stroke-width="4" stroke-linecap="round" stroke-linejoin="round"/>
<path d="M285.725 112.823H303.611" stroke="#7BFFA0" stroke-width="4" stroke-linecap="round" stroke-linejoin="round"/>
<path d="M324.127 124.859H356.021" stroke="#FFC47D" stroke-width="4" stroke-linecap="round" stroke-linejoin="round"/>
<path d="M285.725 124.859H314.352" stroke="#FF5757" stroke-width="4" stroke-linecap="round" stroke-linejoin="round"/>
<path d="M361.021 136.895H378.364" stroke="#9169FF" stroke-width="4" stroke-linecap="round" stroke-linejoin="round"/>
<path d="M324.127 136.895H351.876" stroke="#FF5757" stroke-width="4" stroke-linecap="round" stroke-linejoin="round"/>
<path d="M298.608 136.895H314.352" stroke="#7BFFA0" stroke-width="4" stroke-linecap="round" stroke-linejoin="round"/>
<path d="M336.732 148.931H351.876" stroke="white" stroke-width="4" stroke-linecap="round" stroke-linejoin="round"/>
<path d="M298.608 148.931H326.352" stroke="#9169FF" stroke-width="4" stroke-linecap="round" stroke-linejoin="round"/>
<path d="M376.044 160.967H393.336" stroke="white" stroke-width="4" stroke-linecap="round" stroke-linejoin="round"/>
<path d="M323.118 160.967H366.687" stroke="#FFC47D" stroke-width="4" stroke-linecap="round" stroke-linejoin="round"/>
<path d="M285.725 160.967H313.469" stroke="white" stroke-width="4" stroke-linecap="round" stroke-linejoin="round"/>
<path d="M289.198 318.157H73.739C73.2086 318.157 72.6999 317.952 72.3248 317.585C71.9497 317.219 71.739 316.722 71.739 316.204C71.739 315.686 71.9497 315.189 72.3248 314.822C72.6999 314.456 73.2086 314.25 73.739 314.25H289.198C289.728 314.25 290.237 314.456 290.612 314.822C290.987 315.189 291.198 315.686 291.198 316.204C291.198 316.722 290.987 317.219 290.612 317.585C290.237 317.952 289.728 318.157 289.198 318.157Z" fill="#1F3969"/>
<path d="M289.198 325.99H73.739C73.2086 325.99 72.6999 325.784 72.3248 325.418C71.9497 325.051 71.739 324.554 71.739 324.036C71.739 323.518 71.9497 323.021 72.3248 322.654C72.6999 322.288 73.2086 322.082 73.739 322.082H289.198C289.728 322.082 290.237 322.288 290.612 322.654C290.987 323.021 291.198 323.518 291.198 324.036C291.198 324.554 290.987 325.051 290.612 325.418C290.237 325.784 289.728 325.99 289.198 325.99Z" fill="#1F3969"/>
<path d="M291.229 333.572H71.281C70.9549 333.572 70.6337 333.494 70.3455 333.345C70.0572 333.196 69.8107 332.98 69.6273 332.717C69.4439 332.453 69.3292 332.15 69.2933 331.833C69.2573 331.517 69.3012 331.196 69.421 330.9C71.9423 324.2 71.9423 316.843 69.421 310.143C69.3014 309.847 69.2577 309.526 69.2937 309.21C69.3298 308.893 69.4445 308.59 69.6279 308.327C69.8112 308.064 70.0577 307.848 70.3458 307.699C70.634 307.55 70.955 307.472 71.281 307.472H291.229C291.555 307.472 291.876 307.55 292.164 307.699C292.452 307.848 292.698 308.063 292.882 308.327C293.065 308.59 293.18 308.893 293.216 309.209C293.252 309.526 293.208 309.846 293.089 310.142C290.568 316.842 290.568 324.2 293.089 330.901C293.209 331.197 293.252 331.517 293.216 331.834C293.18 332.151 293.065 332.454 292.882 332.717C292.699 332.98 292.452 333.196 292.164 333.345C291.876 333.494 291.555 333.572 291.229 333.572ZM74.061 329.664H288.45C286.781 323.678 286.781 317.365 288.45 311.38H74.061C75.729 317.366 75.729 323.678 74.061 329.664V329.664Z" fill="#1F3969"/>
<path d="M587.145 229.84L577.398 230.958L585.868 301.448L595.615 300.331L587.145 229.84Z" fill="#FFA364"/>
<path d="M587.145 229.84L577.398 230.958L578.259 238.128L588.006 237.011L587.145 229.84Z" fill="#2AA1FF"/>
<path d="M578.259 240.079C577.769 240.079 577.296 239.904 576.93 239.585C576.564 239.267 576.33 238.829 576.273 238.353L575.411 231.183C575.38 230.928 575.401 230.669 575.473 230.423C575.544 230.176 575.665 229.945 575.828 229.743C575.99 229.542 576.192 229.374 576.421 229.249C576.651 229.124 576.903 229.044 577.164 229.014L586.911 227.896C587.172 227.866 587.436 227.887 587.689 227.957C587.942 228.026 588.178 228.144 588.384 228.303C588.59 228.462 588.762 228.659 588.89 228.883C589.019 229.107 589.1 229.354 589.131 229.609L589.992 236.779C590.054 237.294 589.904 237.811 589.575 238.218C589.246 238.624 588.766 238.887 588.239 238.947L578.492 240.066C578.415 240.075 578.337 240.079 578.259 240.079V240.079ZM579.617 232.668L580.012 235.957L585.786 235.295L585.392 232.005L579.617 232.668Z" fill="#1F3969"/>
<path d="M585.867 303.402C585.377 303.402 584.904 303.226 584.538 302.908C584.172 302.59 583.938 302.152 583.881 301.676L575.411 231.186C575.38 230.931 575.401 230.673 575.473 230.426C575.544 230.179 575.665 229.949 575.828 229.747C575.99 229.546 576.192 229.378 576.421 229.252C576.651 229.127 576.903 229.047 577.164 229.017L586.911 227.9C587.172 227.87 587.436 227.89 587.689 227.96C587.942 228.03 588.178 228.148 588.384 228.307C588.59 228.466 588.762 228.663 588.89 228.887C589.019 229.111 589.1 229.358 589.131 229.612L597.601 300.102C597.632 300.357 597.611 300.615 597.539 300.862C597.468 301.109 597.347 301.34 597.184 301.541C597.022 301.743 596.82 301.911 596.59 302.036C596.361 302.161 596.109 302.241 595.848 302.271L586.101 303.389C586.023 303.398 585.945 303.402 585.867 303.402V303.402ZM579.617 232.672L587.617 299.281L593.392 298.619L585.392 232.01L579.617 232.672Z" fill="#1F3969"/>
<path d="M613.984 244.195L604.227 243.159L596.376 313.717L606.133 314.754L613.984 244.195Z" fill="#FF5252"/>
<path d="M606.139 316.702C606.066 316.702 605.993 316.702 605.92 316.691L596.163 315.655C595.637 315.599 595.154 315.341 594.822 314.938C594.49 314.535 594.335 314.02 594.391 313.506L602.241 242.948C602.298 242.433 602.562 241.962 602.975 241.638C603.387 241.313 603.914 241.162 604.441 241.217L614.198 242.252C614.725 242.308 615.207 242.566 615.54 242.969C615.872 243.371 616.027 243.887 615.971 244.401L608.12 314.959C608.067 315.437 607.836 315.879 607.47 316.2C607.105 316.522 606.631 316.7 606.139 316.702ZM598.583 311.981L604.363 312.595L611.782 245.922L606.002 245.308L598.583 311.981Z" fill="#1F3969"/>
<path d="M613.985 244.195L604.228 243.159L603.429 250.336L613.186 251.372L613.985 244.195Z" fill="#2D425E"/>
<path d="M613.193 253.322C613.121 253.322 613.048 253.322 612.975 253.311L603.218 252.274C602.691 252.219 602.209 251.961 601.877 251.558C601.544 251.155 601.389 250.64 601.445 250.125L602.245 242.948C602.302 242.433 602.566 241.962 602.979 241.638C603.391 241.313 603.918 241.162 604.445 241.217L614.202 242.252C614.729 242.308 615.211 242.566 615.543 242.969C615.876 243.371 616.031 243.887 615.975 244.401L615.175 251.579C615.122 252.057 614.89 252.499 614.525 252.82C614.159 253.142 613.685 253.32 613.193 253.322V253.322ZM605.638 248.6L611.418 249.215L611.785 245.922L606.005 245.308L605.638 248.6Z" fill="#1F3969"/>
<path d="M619.909 337.746H580.648L574.263 278.952H626.294L619.909 337.746Z" fill="#6567C3"/>
<g style="mix-blend-mode:overlay">
<path d="M574.263 278.952L574.38 280.031H614.022L607.754 337.746H619.909L626.294 278.952H574.263Z" fill="#6567C3"/>
</g>
<path d="M619.908 339.7H580.648C580.154 339.7 579.677 339.522 579.31 339.199C578.942 338.876 578.71 338.432 578.658 337.952L572.274 279.157C572.244 278.884 572.274 278.609 572.36 278.348C572.447 278.088 572.588 277.848 572.776 277.644C572.963 277.44 573.193 277.278 573.449 277.166C573.705 277.055 573.983 276.997 574.263 276.997H626.294C626.575 276.997 626.852 277.055 627.108 277.166C627.364 277.278 627.594 277.44 627.781 277.644C627.969 277.848 628.11 278.088 628.197 278.348C628.283 278.609 628.313 278.884 628.283 279.157L621.898 337.951C621.846 338.431 621.614 338.876 621.247 339.199C620.879 339.522 620.402 339.7 619.908 339.7ZM582.446 335.792H618.11L624.07 280.906H576.486L582.446 335.792Z" fill="#1F3969"/>
</svg>
