<svg width="546" height="369" viewBox="0 0 546 369" fill="none" xmlns="http://www.w3.org/2000/svg">
<g clip-path="url(#clip0)">
<g opacity="0.1">
<path opacity="0.1" d="M120.667 34.9893V407.009L99.1539 407.345C94.563 407.419 89.9915 406.479 85.5998 404.556V80.2489H85.6354C96.2012 61.5975 108.048 46.0341 120.667 34.9893Z" fill="#6C63FF"/>
<path opacity="0.1" d="M565.353 88.3373H81.2089C82.6488 85.5925 84.1125 82.9159 85.5998 80.3074V80.249H564.149C564.613 82.8915 565.014 85.5876 565.353 88.3373Z" fill="#6C63FF"/>
<path opacity="0.1" d="M526.515 16.3818V328.089H524.752C523.837 330.849 522.934 333.554 522.043 336.207C521.647 337.382 521.25 338.535 520.864 339.689V13.4326C522.819 14.3378 524.703 15.3209 526.515 16.3818Z" fill="#6C63FF"/>
<path opacity="0.1" d="M392.037 12.7829V402.782L386.386 402.87V14.4473C388.261 13.8779 390.142 13.3158 392.037 12.7829Z" fill="#6C63FF"/>
<path opacity="0.1" d="M256.349 48.9687V404.899L250.703 404.987V48.5818C252.589 48.757 254.474 48.8592 256.349 48.9687Z" fill="#6C63FF"/>
<path opacity="0.1" d="M524.752 328.096C523.837 330.856 522.934 333.562 522.043 336.214H45.2528C44.5989 333.542 43.989 330.836 43.4232 328.096H524.752Z" fill="#6C63FF"/>
</g>
<path d="M151.029 177.006H138.585V215.399H151.029V177.006Z" fill="#3F3D56"/>
<path d="M485.918 175.008H473.474V215.626H485.918V175.008Z" fill="#3F3D56"/>
<path d="M565.277 355.337V363.993L465.779 364.925L464.718 364.945L426.902 365.298L425.998 365.311L414.504 365.411H414.163L344.098 366.07L229.084 367.156H228.986L199.743 367.435L199.429 367.442L69.4889 368.654V358.666L100.042 340.022L161.344 339.502L162.654 339.496L163.086 339.489L164.396 339.469L193.829 339.223L195.145 339.216L195.564 339.209L196.874 339.203L206.312 339.123L206.561 339.116L229.844 338.916H230.034L411.714 337.358L416.161 337.325H416.606L419.999 337.292L444.657 337.085L445.967 337.065L447.179 337.052H447.807L455.477 336.992L456.996 336.972L459.033 336.959L465.419 336.899L475.551 336.812L476.86 336.799L479.14 336.786H479.565L528.496 336.359L565.277 355.337Z" fill="#65617D"/>
<path opacity="0.2" d="M565.277 355.337V363.993L465.779 364.925L464.718 364.945L426.902 365.298L425.998 365.311L414.504 365.411H414.163L344.098 366.07L229.084 367.156H228.986L199.743 367.435L199.429 367.442L69.4889 368.654V358.666L100.042 340.022L161.344 339.502L162.654 339.496L163.086 339.489L164.396 339.469L193.829 339.223L195.145 339.216L195.564 339.209L196.874 339.203L206.312 339.123L206.561 339.116L229.844 338.916H230.034L411.714 337.358L416.161 337.325H416.606L419.999 337.292L444.657 337.085L445.967 337.065L447.179 337.052H447.807L455.477 336.992L456.996 336.972L459.033 336.959L465.419 336.899L475.551 336.812L476.86 336.799L479.14 336.786H479.565L528.496 336.359L565.277 355.337Z" fill="black"/>
<path d="M193.927 322.05V338.357C193.928 339.129 193.712 339.886 193.307 340.539C192.901 341.192 192.321 341.715 191.635 342.046C191.124 342.298 190.565 342.434 189.998 342.445L167.14 342.938C166.53 342.953 165.924 342.823 165.372 342.559C164.674 342.233 164.082 341.711 163.667 341.053C163.253 340.396 163.033 339.631 163.034 338.85V322.05H193.927Z" fill="#3F3D56"/>
<path opacity="0.1" d="M193.927 322.05V338.357C193.928 339.129 193.712 339.886 193.307 340.539C192.901 341.192 192.321 341.715 191.635 342.046C191.124 342.298 190.565 342.434 189.998 342.445L167.14 342.938C166.53 342.953 165.924 342.823 165.372 342.559C164.674 342.233 164.082 341.711 163.667 341.053C163.253 340.396 163.033 339.631 163.034 338.85V322.05H193.927Z" fill="black"/>
<path d="M195.237 322.05V338.357C195.237 339.129 195.022 339.886 194.616 340.539C194.211 341.192 193.631 341.715 192.945 342.046C192.434 342.298 191.875 342.434 191.307 342.445L168.45 342.938C167.84 342.953 167.234 342.823 166.682 342.559C165.983 342.233 165.392 341.711 164.977 341.053C164.563 340.396 164.343 339.631 164.344 338.85V322.05H195.237Z" fill="#3F3D56"/>
<path d="M476.86 322.05H445.967V343.025H476.86V322.05Z" fill="#3F3D56"/>
<path opacity="0.1" d="M476.86 322.05H445.967V343.025H476.86V322.05Z" fill="black"/>
<path d="M475.551 322.05H444.657V343.025H475.551V322.05Z" fill="#3F3D56"/>
<path opacity="0.1" d="M151.029 176.999V180.814L138.585 180.488V176.999H151.029Z" fill="black"/>
<path d="M232.935 69.5159L217.983 178.717C217.888 179.415 217.544 180.052 217.016 180.508C216.488 180.964 215.813 181.205 215.121 181.187L95.3983 178.031L93.1256 177.971C92.7299 177.962 92.3407 177.867 91.9832 177.695C91.6257 177.522 91.3081 177.275 91.051 176.969C90.7939 176.663 90.6032 176.305 90.4912 175.919C90.3792 175.533 90.3485 175.127 90.4011 174.729L107.187 60.4136C107.295 59.7055 107.661 59.0644 108.211 58.6169C108.762 58.1694 109.457 57.948 110.161 57.9965L230.315 66.2665C230.703 66.2893 231.082 66.3936 231.428 66.5728C231.774 66.7519 232.08 67.0021 232.326 67.3074C232.572 67.6127 232.753 67.9666 232.858 68.3467C232.963 68.7268 232.989 69.1249 232.935 69.5159V69.5159Z" fill="#65617D"/>
<path d="M115.223 66.0267L102.563 166.791L212.593 170.34L226.124 73.1248L115.223 66.0267Z" fill="#6C63FF"/>
<path d="M382.444 64.4686H255.38C253.452 64.4686 251.889 66.0576 251.889 68.0177V176.333C251.889 178.293 253.452 179.882 255.38 179.882H382.444C384.372 179.882 385.935 178.293 385.935 176.333V68.0177C385.935 66.0576 384.372 64.4686 382.444 64.4686Z" fill="#65617D"/>
<path d="M380.034 72.2393H258.216V168.343H380.034V72.2393Z" fill="#6C63FF"/>
<path opacity="0.1" d="M485.918 175.001V177.525L473.474 177.785V175.001H485.918Z" fill="black"/>
<path d="M542.066 172.871C542.084 173.147 542.046 173.423 541.956 173.684C541.866 173.945 541.725 174.185 541.542 174.389C541.358 174.593 541.136 174.757 540.888 174.871C540.641 174.986 540.373 175.048 540.101 175.055L417.497 177.632C416.987 177.642 416.493 177.457 416.113 177.112C415.733 176.768 415.495 176.289 415.447 175.774L404.909 64.3887C404.883 64.1124 404.912 63.8335 404.995 63.5691C405.078 63.3047 405.214 63.0601 405.392 62.8503C405.571 62.6405 405.79 62.4698 406.036 62.3485C406.281 62.2272 406.549 62.1579 406.821 62.1448L528.496 55.9922L529.806 55.9256C530.326 55.8977 530.837 56.0766 531.231 56.4244C531.624 56.7723 531.869 57.2619 531.914 57.79L542.066 172.871Z" fill="#65617D"/>
<path d="M411.91 68.6902L523.033 63.1369L532.419 164.348L422.173 167.011L411.91 68.6902Z" fill="#6C63FF"/>
<path opacity="0.1" d="M542.066 172.871C542.084 173.147 542.046 173.423 541.956 173.684C541.866 173.945 541.725 174.185 541.542 174.389C541.358 174.593 541.136 174.757 540.888 174.871C540.641 174.986 540.373 175.048 540.101 175.055L528.496 55.9922L529.805 55.9256C530.326 55.8977 530.837 56.0766 531.231 56.4244C531.624 56.7723 531.869 57.2619 531.914 57.79L542.066 172.871Z" fill="black"/>
<path opacity="0.1" d="M110.18 57.9898L95.3983 178.031L93.1256 177.971C92.7299 177.962 92.3407 177.867 91.9832 177.695C91.6257 177.522 91.3081 177.274 91.051 176.968C90.7939 176.663 90.6032 176.305 90.4912 175.919C90.3792 175.533 90.3485 175.127 90.4011 174.728L107.187 60.4135C107.294 59.7005 107.662 59.0548 108.217 58.6055C108.772 58.1561 109.473 57.9362 110.18 57.9898V57.9898Z" fill="black"/>
<path opacity="0.1" d="M151.029 204.026H138.585V215.399H151.029V204.026Z" fill="black"/>
<path opacity="0.1" d="M195.237 322.043V325.353L164.344 326.192V322.043H195.237Z" fill="black"/>
<path d="M249.761 207.988V319.986C249.753 320.67 249.486 321.324 249.017 321.814C248.548 322.303 247.911 322.591 247.239 322.616L121.72 326.012H121.687C121.004 326.003 120.351 325.724 119.868 325.232C119.384 324.741 119.109 324.077 119.1 323.382V207.988C119.109 207.293 119.384 206.629 119.868 206.138C120.351 205.647 121.004 205.367 121.687 205.358H247.174C247.857 205.367 248.51 205.647 248.994 206.138C249.477 206.629 249.752 207.293 249.761 207.988V207.988Z" fill="#65617D"/>
<path opacity="0.1" d="M121.72 205.358V326.012H121.688C121.004 326.003 120.351 325.724 119.868 325.232C119.384 324.741 119.109 324.077 119.1 323.382V207.988C119.109 207.293 119.384 206.629 119.868 206.138C120.351 205.647 121.004 205.367 121.688 205.358H121.72Z" fill="black"/>
<path d="M127.451 212.509H243.702V311.223L127.451 313.887V212.509Z" fill="#D4DFEC"/>
<path opacity="0.1" d="M485.918 204.026H473.474V215.626H485.918V204.026Z" fill="black"/>
<path opacity="0.1" d="M475.551 322.043V326.312L444.657 325.473V322.043H475.551Z" fill="black"/>
<path d="M516.32 207.988V323.382C516.312 324.082 516.032 324.751 515.542 325.244C515.051 325.736 514.39 326.012 513.701 326.012V326.012L388.156 322.616C387.484 322.591 386.847 322.303 386.378 321.814C385.908 321.324 385.642 320.67 385.634 319.986V207.988C385.643 207.293 385.918 206.629 386.401 206.138C386.884 205.647 387.538 205.367 388.221 205.358H513.707C514.395 205.36 515.055 205.637 515.544 206.129C516.033 206.621 516.312 207.289 516.32 207.988V207.988Z" fill="#65617D"/>
<path opacity="0.1" d="M516.32 207.988V323.382C516.312 324.082 516.032 324.751 515.542 325.244C515.051 325.736 514.39 326.012 513.701 326.012V326.012V205.358C514.39 205.358 515.051 205.634 515.542 206.126C516.032 206.619 516.312 207.288 516.32 207.988Z" fill="black"/>
<path d="M507.97 212.509H391.718V311.223L507.97 313.887V212.509Z" fill="#D4DFEC"/>
<path d="M382.386 207.988V319.986C382.378 320.67 382.111 321.324 381.642 321.814C381.173 322.303 380.536 322.591 379.864 322.616L254.345 326.012C253.656 326.012 252.995 325.736 252.504 325.244C252.014 324.751 251.734 324.082 251.725 323.382V207.988C251.734 207.293 252.009 206.629 252.493 206.138C252.976 205.647 253.629 205.367 254.312 205.358H379.799C380.482 205.367 381.135 205.647 381.618 206.138C382.102 206.629 382.377 207.293 382.386 207.988V207.988Z" fill="#65617D"/>
<path d="M260.076 212.509H376.327V311.223L260.076 313.887V212.509Z" fill="#D4DFEC"/>
<path opacity="0.1" d="M565.277 355.337V363.993L465.779 364.925L464.718 364.945L426.902 365.298L425.998 365.311L414.504 365.411H414.163L344.098 366.07L229.084 367.156H228.986L199.743 367.435L199.429 367.442L69.4889 368.654V358.666L202.12 357.78H202.435L229.281 357.594H229.405L414.805 356.349H414.995L415.106 356.342H415.414L418.551 356.322H419.507L468.294 355.989L471.176 355.976L471.817 355.969L565.277 355.337Z" fill="black"/>
<path d="M319.125 215.399C337.692 215.399 352.743 200.097 352.743 181.221C352.743 162.344 337.692 147.042 319.125 147.042C300.558 147.042 285.507 162.344 285.507 181.221C285.507 200.097 300.558 215.399 319.125 215.399Z" fill="#FBBEBE"/>
<path d="M352.75 251.136C352.75 251.136 287.583 259.126 293.805 251.136C296.058 248.246 296.68 239.683 296.556 229.928C296.517 226.965 296.412 223.896 296.261 220.839C295.541 206.19 293.805 191.874 293.805 191.874C293.805 191.874 350.785 164.574 344.235 186.215C341.616 194.957 342.474 207.236 344.465 218.762C345.048 222.124 345.722 225.42 346.429 228.55C348.156 236.183 350.265 243.722 352.75 251.136V251.136Z" fill="#FBBEBE"/>
<path opacity="0.1" d="M352.75 251.136C352.75 251.136 287.583 259.126 293.805 251.136C296.058 248.246 296.68 239.683 296.556 229.928C306.491 225.614 319.132 228.83 319.132 228.83C332.44 226.133 340.974 226.659 346.429 228.55C348.156 236.183 350.265 243.722 352.75 251.136V251.136Z" fill="black"/>
<path d="M229.058 367.908V367.349L344.078 366.077L414.157 365.411H414.353L414.281 366.396L414.379 365.411H414.504V365.298L415.401 356.342L415.741 352.953L415.846 351.894L415.938 351.008L419.985 337.285L424.033 323.582L427.439 312.042L432.639 294.41C432.639 294.41 429.692 287.419 428.054 285.421C426.417 283.424 424.78 269.773 424.78 269.773C424.78 269.773 410.803 256.237 404.693 254.678C402.132 254.013 397.076 253.127 391.705 252.015C389.695 251.602 387.632 251.163 385.647 250.683C384.527 250.424 383.427 250.151 382.372 249.878C380.32 249.356 378.298 248.721 376.314 247.973C375.274 247.589 374.285 247.077 373.367 246.448C368.553 242.859 356.489 242.453 356.024 242.453C356.023 242.438 356.023 242.422 356.024 242.407V242.347C356.041 242.067 356.041 241.787 356.024 241.508C356.024 241.241 356.024 240.928 355.965 240.576C355.965 240.469 355.965 240.356 355.919 240.243C355.887 240.003 355.847 239.75 355.788 239.483C355.769 239.364 355.742 239.247 355.71 239.131C355.52 238.328 355.246 237.549 354.891 236.807C354.845 236.7 354.786 236.587 354.734 236.48C354.413 235.865 354.04 235.279 353.621 234.729C353.536 234.616 353.444 234.496 353.346 234.383C352.809 233.74 352.212 233.151 351.564 232.625C351.387 232.485 351.204 232.339 351.014 232.206C350.908 232.118 350.796 232.038 350.68 231.966L350.097 231.58L349.553 231.26C349.075 230.994 348.571 230.734 348.021 230.488C347.851 230.408 347.667 230.335 347.484 230.261C347.3 230.188 347.012 230.075 346.77 229.982H346.731L346.239 229.782C345.866 229.655 345.486 229.542 345.087 229.429L344.478 229.269L343.823 229.116L343.168 228.976C342.513 228.843 341.812 228.723 341.079 228.63L340.332 228.537L339.566 228.457L338.773 228.39L337.647 228.324L336.337 228.277C330.56 228.276 324.799 228.899 319.151 230.135C315.228 229.247 311.209 228.871 307.192 229.016H306.622L305.967 229.056H305.548L304.703 229.136C304.422 229.136 304.134 229.196 303.852 229.236C303.57 229.276 303.276 229.309 302.994 229.356L302.562 229.429C302.136 229.502 301.704 229.582 301.252 229.675C301.108 229.702 300.964 229.735 300.82 229.775C300.25 229.902 299.68 230.055 299.117 230.228C298.835 230.308 298.553 230.401 298.272 230.501C298.128 230.541 297.99 230.594 297.853 230.648L297.434 230.801L297.021 230.967L296.53 231.167C296.281 231.273 296.038 231.387 295.796 231.506C295.659 231.566 295.521 231.633 295.39 231.706C295.259 231.779 295.122 231.839 294.997 231.913C293.516 232.691 292.148 233.672 290.93 234.829L290.596 235.155L290.268 235.495C290.157 235.608 290.052 235.728 289.948 235.848C289.521 236.322 289.123 236.823 288.756 237.346C288.651 237.486 288.553 237.626 288.454 237.772C288.039 238.395 287.662 239.045 287.328 239.717C287.243 239.876 287.164 240.043 287.086 240.203C286.551 241.328 286.113 242.497 285.776 243.698C285.653 244.142 285.542 244.586 285.442 245.03C285.442 245.03 271.577 251.249 260.076 255.75C257.017 256.949 254.136 258.034 251.725 258.853C251.025 259.093 250.37 259.313 249.761 259.519C248.439 260.005 247.065 260.327 245.667 260.478C245.009 260.489 244.352 260.551 243.702 260.665C238.417 261.537 229.359 265.326 228.37 269.128C228.29 269.431 228.268 269.748 228.305 270.06C228.305 270.06 228.305 270.106 228.305 270.133C228.96 274.794 224.375 274.128 224.375 274.128C224.375 274.128 222.738 286.447 220.446 289.776C218.789 292.173 217.656 297.52 217.511 301.555C217.429 302.812 217.526 304.075 217.8 305.304C217.8 305.337 217.8 305.37 217.8 305.397C218.062 306.289 217.433 308.726 216.365 311.849C215.206 315.278 213.516 319.54 211.892 323.562C209.443 329.634 207.137 335.148 206.993 336.36C206.934 336.899 206.764 337.864 206.528 339.11C205.572 344.183 203.45 353.845 202.402 357.754C201.623 360.67 200.49 364.665 199.71 367.409C199.71 367.488 199.664 367.568 199.645 367.642L229.006 367.349V367.908H229.097H229.058Z" fill="#6C63FF"/>
<path opacity="0.1" d="M239.773 289.423C239.773 289.423 277.104 309.066 290.53 306.735L239.773 289.423Z" fill="black"/>
<path opacity="0.1" d="M315.746 281.433C315.746 281.433 352.095 293.418 364.211 295.083C376.327 296.747 315.746 281.433 315.746 281.433Z" fill="black"/>
<path opacity="0.1" d="M356.064 242.866C337.07 246.422 301.311 245.656 285.854 245.117C291.519 224.475 319.145 231.493 319.145 231.493C353.339 224.555 355.959 238.951 356.064 242.866Z" fill="black"/>
<path d="M356.064 241.534C337.07 245.09 301.311 244.324 285.854 243.785C291.519 223.143 319.145 230.161 319.145 230.161C353.339 223.223 355.959 237.619 356.064 241.534Z" fill="#6C63FF"/>
<path d="M456.885 332.538C456.885 332.538 479.257 329.042 479.696 339.03C480.135 349.018 468.287 355.996 468.287 355.996L456.885 332.538Z" fill="#FBBEBE"/>
<path opacity="0.1" d="M344.465 218.762C343.502 219.199 342.519 219.586 341.517 219.92C334.457 222.397 327.338 224.894 319.904 225.8C312.471 226.706 304.671 225.907 298.187 222.138C297.506 221.747 296.85 221.313 296.222 220.839C295.501 206.19 293.766 191.874 293.766 191.874C293.766 191.874 350.746 164.574 344.196 186.215C341.589 194.957 342.474 207.236 344.465 218.762Z" fill="black"/>
<path d="M309.904 127.799C308.969 128.05 307.989 128.075 307.043 127.873C306.097 127.67 305.211 127.246 304.454 126.633L305.817 128.558C305.014 128.652 304.201 128.567 303.434 128.308C302.666 128.049 301.964 127.623 301.376 127.06C301.253 128.782 301.323 130.514 301.586 132.22C299.332 132.331 297.112 131.622 295.325 130.222C295.29 130.823 295.437 131.42 295.746 131.933C296.055 132.447 296.511 132.851 297.054 133.092C294.789 132.817 292.504 133.389 290.624 134.701C288.744 136.014 287.398 137.976 286.837 140.224L290.255 140.543C287.569 141.127 285.157 142.623 283.418 144.785C282.37 146.116 281.571 147.821 282.029 149.446C282.488 151.07 284.702 152.109 285.907 150.951C284.192 153.031 282.946 155.467 282.256 158.088C281.566 160.71 281.448 163.453 281.911 166.126C282.222 167.264 282.324 168.452 282.213 169.628C281.997 170.727 281.315 171.679 280.975 172.751C280.32 174.695 280.942 176.806 281.525 178.744L284.597 189.011C285.71 192.72 286.817 196.436 288.271 200.025C289.3 202.294 290.176 204.632 290.891 207.023C291.716 210.246 291.749 213.775 293.51 216.591C294.718 218.364 296.332 219.81 298.213 220.806C304.69 224.575 312.517 225.374 319.931 224.468C327.345 223.563 334.457 221.066 341.511 218.589C343.078 218.109 344.582 217.438 345.991 216.591C350.87 213.342 351.957 206.696 352.867 200.844C353.883 194.318 355.238 187.806 357.642 181.667C359.07 178.011 360.917 174.302 360.602 170.387C360.203 165.187 356.155 160.972 355.153 155.858C354.818 154.149 354.833 152.387 355.199 150.684C355.51 149.67 355.684 148.617 355.716 147.555C355.605 145.411 353.876 143.759 352.252 142.381C348.728 139.389 345.091 136.561 341.341 133.898C341.151 132.566 342.932 131.994 343.738 130.942C344.877 129.457 343.698 127.1 341.969 126.407C340.24 125.715 338.302 126.167 336.501 126.627C336.618 125.689 336.435 124.739 335.978 123.916C335.521 123.093 334.815 122.442 333.965 122.06C333.115 121.678 332.167 121.584 331.261 121.794C330.355 122.004 329.539 122.506 328.936 123.224C328.458 122.109 327.694 121.145 326.724 120.433C325.753 119.721 324.613 119.287 323.421 119.176C319.079 118.83 318.994 122.205 316.217 124.063C313.44 125.921 311.148 123.471 309.013 121.686C308.62 122.695 308.496 123.791 308.653 124.864C308.809 125.937 309.24 126.949 309.904 127.799V127.799Z" fill="#3F3D56"/>
<path d="M473.474 352.513C473.474 352.513 472.891 353.925 471.817 355.969C470.193 359.114 468.214 362.057 465.923 364.739L465.746 364.932H464.685L426.869 365.285H425.965L425.854 365.151L418.518 356.302L415.755 352.966L415.643 352.826L415.408 352.547L415.277 352.387L415.106 352.18L409.729 345.695L411.694 337.372L415.041 323.349L415.126 323.009L415.781 320.346L416.246 318.348L417.805 311.836L423.149 289.43L432.645 294.424L442.659 312.402L448.036 322.057H450.984C451.54 322.057 452.818 323.149 454.101 324.407C454.56 324.853 455.018 325.326 455.411 325.739C456.577 326.964 457.5 328.016 457.5 328.016C457.5 328.016 462.275 328.123 463.559 331.945C463.625 332.13 463.679 332.319 463.722 332.511C464.148 334.013 464.703 335.475 465.379 336.879C466.224 338.75 467.285 340.874 468.359 342.998C470.357 346.893 472.387 350.602 473.134 351.947L473.225 352.114L473.474 352.513Z" fill="#6C63FF"/>
<path opacity="0.1" d="M417.215 322.45L417.15 323.402V323.468L417.038 325L416.167 337.325L415.113 352.174L414.812 356.355L414.157 365.304V365.418L344.078 366.084L229.078 367.349V367.908H228.986V367.349V367.162L229.281 357.6L229.844 338.916L230.329 323.076L230.374 321.497C230.403 320.545 230.622 319.608 231.019 318.745C231.416 317.882 231.981 317.109 232.681 316.476C233.381 315.842 234.201 315.36 235.09 315.059C235.98 314.758 236.92 314.645 237.854 314.726C240.945 314.992 244.96 315.318 249.761 315.665L251.725 315.811C279.449 317.769 330.685 320.299 382.386 317.143C383.473 317.083 384.567 317.016 385.66 316.936C393.677 316.424 401.687 315.764 409.618 314.939C410.621 314.832 411.634 314.95 412.587 315.284C413.54 315.619 414.409 316.162 415.133 316.875C415.858 317.587 416.42 318.453 416.779 319.411C417.139 320.368 417.288 321.394 417.215 322.416V322.45Z" fill="black"/>
<path d="M229.058 367.908V367.349L344.078 366.077L414.157 365.411H414.353V365.298L415.008 356.349L415.29 352.354L416.364 337.298L417.209 325.38V325.087C417.248 324.537 417.223 323.985 417.137 323.442C417.14 323.42 417.14 323.397 417.137 323.375C416.957 322.252 416.507 321.19 415.827 320.286C415.105 319.345 414.161 318.608 413.081 318.142C412.002 317.676 410.823 317.497 409.657 317.622C401.726 318.448 393.716 319.107 385.7 319.62C384.606 319.7 383.512 319.766 382.425 319.826C330.724 322.949 279.488 320.419 251.765 318.494L249.8 318.348C244.999 318.002 240.984 317.682 237.893 317.409C236.193 317.263 234.499 317.763 233.14 318.812C231.78 319.861 230.851 321.385 230.532 323.089C230.466 323.449 230.426 323.814 230.414 324.181L229.968 338.936L229.359 357.627L229.071 367.189V367.375V367.935L229.058 367.908Z" fill="#3F3D56"/>
<path opacity="0.1" d="M417.412 327.117L416.606 337.325L415.408 352.54L415.106 356.349L414.451 364.878L414.412 365.304V365.418L414.314 366.403L414.386 365.418H414.196L344.118 366.084L229.078 367.349V367.162L229.399 357.6L230.054 338.916L230.473 326.498C230.493 325.792 230.687 325.102 231.037 324.491C231.388 323.881 231.882 323.369 232.477 323.002C233.218 322.54 234.086 322.33 234.952 322.403C236.328 322.516 238.018 322.649 239.989 322.796C243.192 323.036 247.141 323.315 251.739 323.608C260.253 324.154 270.935 324.74 283.176 325.22C317.232 326.551 363.209 326.997 406.88 323.109C408.845 322.936 410.875 322.743 412.86 322.55C413.645 322.47 414.437 322.622 415.139 322.989C415.338 323.09 415.527 323.21 415.702 323.349C416.272 323.769 416.724 324.333 417.012 324.987C417.079 325.117 417.134 325.253 417.176 325.393C417.373 325.944 417.453 326.532 417.412 327.117V327.117Z" fill="black"/>
<path opacity="0.1" d="M195.237 336.233V338.357C195.237 339.129 195.022 339.886 194.616 340.539C194.211 341.192 193.631 341.715 192.945 342.046L166.682 342.559C165.983 342.233 165.392 341.711 164.977 341.053C164.563 340.396 164.343 339.631 164.344 338.85V336.852L195.237 336.233Z" fill="black"/>
<path d="M195.564 343.298L161.344 343.964V338.191L195.564 337.525V343.298Z" fill="#3F3D56"/>
<path opacity="0.1" d="M195.564 343.298L161.344 343.964V338.191L195.564 337.525V343.298Z" fill="black"/>
<path d="M196.874 343.298L162.654 343.964V338.191L196.874 337.525V343.298Z" fill="#3F3D56"/>
<g opacity="0.1">
<path opacity="0.1" d="M310.172 125.615C309.532 124.769 309.107 123.777 308.934 122.725C308.776 123.753 308.871 124.805 309.209 125.788C309.534 125.757 309.856 125.699 310.172 125.615Z" fill="black"/>
<path opacity="0.1" d="M301.854 130.036C301.731 129.22 301.65 128.397 301.612 127.572C301.612 128.391 301.612 129.217 301.612 130.043L301.854 130.036Z" fill="black"/>
<path opacity="0.1" d="M355.232 152.256C355.268 151.662 355.347 151.073 355.468 150.491C355.777 149.478 355.954 148.428 355.992 147.368C355.977 147.13 355.942 146.894 355.887 146.662C355.775 147.275 355.599 147.888 355.468 148.494C355.206 149.729 355.127 150.997 355.232 152.256Z" fill="black"/>
<path opacity="0.1" d="M341.609 131.681L342.323 132.207C342.925 131.764 343.488 131.269 344.006 130.728C344.253 130.382 344.405 129.976 344.449 129.55C344.493 129.125 344.426 128.696 344.255 128.305C344.19 128.457 344.106 128.6 344.006 128.731C343.201 129.783 341.419 130.362 341.609 131.681Z" fill="black"/>
<path opacity="0.1" d="M287.793 138.086C287.554 138.572 287.363 139.08 287.223 139.604C288.248 139.023 289.351 138.599 290.498 138.346L287.793 138.086Z" fill="black"/>
<path opacity="0.1" d="M296.824 130.842C296.394 130.601 295.983 130.327 295.593 130.023C295.577 130.286 295.597 130.55 295.652 130.808C296.043 130.789 296.435 130.8 296.824 130.842V130.842Z" fill="black"/>
<path opacity="0.1" d="M360.858 170.074C360.589 173.304 359.109 176.413 357.911 179.476C355.507 185.615 354.151 192.127 353.136 198.66C352.226 204.512 351.171 211.158 346.259 214.4C344.856 215.253 343.353 215.924 341.786 216.398C334.726 218.882 327.607 221.372 320.173 222.278C312.739 223.183 304.939 222.391 298.455 218.622C296.575 217.625 294.962 216.178 293.753 214.407C292.004 211.591 291.971 208.061 291.133 204.839C290.418 202.446 289.543 200.105 288.513 197.834C287.066 194.251 285.952 190.509 284.846 186.827C283.82 183.405 282.796 179.98 281.774 176.553C281.437 175.522 281.188 174.464 281.027 173.39C280.772 175.095 281.27 176.879 281.774 178.551C282.796 181.982 283.82 185.407 284.846 188.825C285.952 192.534 287.066 196.249 288.513 199.831C289.543 202.103 290.418 204.443 291.133 206.836C291.958 210.059 291.991 213.588 293.753 216.405C294.962 218.176 296.575 219.622 298.455 220.62C304.939 224.388 312.759 225.181 320.173 224.275C327.587 223.37 334.7 220.879 341.786 218.396C343.353 217.922 344.856 217.25 346.259 216.398C351.138 213.155 352.226 206.51 353.136 200.657C354.151 194.125 355.507 187.613 357.911 181.474C359.338 177.825 361.185 174.116 360.871 170.194C360.871 170.154 360.858 170.114 360.858 170.074Z" fill="black"/>
<path opacity="0.1" d="M282.468 167.497C282.468 167.497 282.468 167.451 282.468 167.424C282.586 166.25 282.484 165.064 282.167 163.928C282.036 163.198 281.951 162.459 281.911 161.718C281.836 163.126 281.922 164.538 282.167 165.926C282.272 166.445 282.39 166.971 282.468 167.497Z" fill="black"/>
<path opacity="0.1" d="M284.466 151.21C284.969 150.35 285.541 149.533 286.175 148.767C284.977 149.932 282.763 148.893 282.298 147.275C282.127 147.929 282.127 148.618 282.298 149.273C282.459 149.761 282.745 150.198 283.125 150.538C283.506 150.878 283.968 151.11 284.466 151.21V151.21Z" fill="black"/>
</g>
<path opacity="0.1" d="M448.043 322.05C448.043 322.05 450.119 329.708 448.043 336.366C445.967 343.025 448.043 322.05 448.043 322.05Z" fill="black"/>
<path opacity="0.1" d="M456.885 329.861C456.885 329.861 457.756 339.582 455.791 341.307C453.826 343.031 456.885 329.861 456.885 329.861Z" fill="black"/>
<path d="M130.326 228.297L196.874 227.631" stroke="#6C63FF" stroke-width="2" stroke-miterlimit="10"/>
<path d="M130.326 236.6L196.874 235.941" stroke="#6C63FF" stroke-width="2" stroke-miterlimit="10"/>
<path d="M130.326 244.91L196.874 244.244" stroke="#6C63FF" stroke-width="2" stroke-miterlimit="10"/>
</g>
<defs>
<clipPath id="clip0">
<rect width="682" height="369" fill="white"/>
</clipPath>
</defs>
</svg>
